<?xml version="1.0" encoding="UTF-8"?>
<svg width="51px" height="50px" viewBox="0 0 51 50" version="1.1" xmlns="http://www.w3.org/2000/svg" xmlns:xlink="http://www.w3.org/1999/xlink">
    <!-- Generator: Sketch 41.2 (35397) - http://www.bohemiancoding.com/sketch -->
    <title>Bitcoin icon@1x</title>
    <desc>Created with Sketch.</desc>
    <defs>
        <polygon id="path-1" points="9.47657594 27.8112 0 27.8112 0 0.9992 9.47657594 0.9992 18.9531519 0.9992 18.9531519 27.8112 9.47657594 27.8112"></polygon>
    </defs>
    <g id="Page-1" stroke="none" stroke-width="1" fill="none" fill-rule="evenodd" opacity="0.5">
        <g id="profile-page" transform="translate(-39.000000, -419.000000)">
            <g id="Group-7" transform="translate(40.000000, 420.000000)">
                <g id="Group-3" transform="translate(0.215444, 0.000000)">
                    <g id="Group-6">
                        <g id="Bitcoin-icon">
                            <circle id="Oval-2" stroke="#393939" stroke-width="2" cx="24" cy="24" r="24"></circle>
                            <g id="Page-1" transform="translate(15.000000, 10.000000)">
                                <mask id="mask-2" fill="white">
                                    <use xlink:href="#path-1"></use>
                                </mask>
                                <g id="Clip-2"></g>
                                <path d="M7.1618,12.9332 C7.4538,12.9332 7.7058,12.9412 7.9578,12.9312 C9.1298,12.8872 10.3098,12.9032 11.4718,12.7712 C13.0518,12.5912 13.8458,11.8512 14.0158,10.4272 C14.2458,8.4792 13.5138,7.2412 11.6538,7.0432 C10.1878,6.8872 8.7018,6.9352 7.2238,6.8952 C7.2038,6.8932 7.1858,6.9252 7.1618,6.9472 L7.1618,12.9332 Z M7.1738,22.0532 C8.7858,21.9812 10.3598,21.9832 11.9158,21.8192 C13.5698,21.6472 14.4478,20.7672 14.6438,19.2912 C14.7018,18.8392 14.7018,18.3692 14.6518,17.9152 C14.5518,16.9792 14.1578,16.1812 13.2678,15.7612 C12.8038,15.5432 12.2858,15.3612 11.7798,15.3252 C10.3478,15.2272 8.9078,15.2152 7.4718,15.1632 C7.1498,15.1532 7.1398,15.3592 7.1398,15.5912 C7.1458,17.5952 7.1478,19.6012 7.1518,21.6072 C7.1518,21.7192 7.1618,21.8312 7.1738,22.0532 L7.1738,22.0532 Z M14.2798,13.7952 C15.7558,14.1632 17.0558,14.6512 17.9898,15.8032 C18.7658,16.7612 18.9838,17.8892 18.9498,19.0772 C18.8938,21.0152 18.1658,22.5572 16.2618,23.3212 C15.7078,23.5432 15.1258,23.7172 14.5398,23.8232 C13.6278,23.9892 12.6998,24.0752 11.7278,24.2032 L11.7278,27.8112 L9.3038,27.8112 L9.3038,24.2012 L7.1638,24.2012 L7.1638,27.8012 L4.7178,27.8012 L4.7178,24.1812 L0.0018,24.1812 L0.0018,21.9232 C0.5958,21.9232 1.1778,21.9352 1.7618,21.9192 C2.6758,21.8972 3.0058,21.5752 3.0098,20.6552 C3.0198,18.4312 3.0098,16.2072 3.0098,13.9852 C3.0098,12.0552 3.0178,10.1252 3.0118,8.1952 C3.0098,7.2192 2.6818,6.8972 1.6938,6.8772 C1.1358,6.8652 0.5778,6.8752 -0.0002,6.8752 L-0.0002,4.6472 L4.6858,4.6472 L4.6858,1.0052 L7.1378,1.0052 L7.1378,4.6272 L9.2818,4.6272 L9.2818,0.9992 L11.7178,0.9992 L11.7178,4.5952 C12.5898,4.7212 13.4318,4.7852 14.2438,4.9832 C14.9178,5.1472 15.5978,5.3892 16.1958,5.7332 C17.7438,6.6212 18.2578,8.0812 18.1498,9.7732 C18.0198,11.8092 16.9338,13.0332 14.8498,13.6312 C14.6938,13.6772 14.5358,13.7212 14.2798,13.7952 L14.2798,13.7952 Z" id="Fill-1" fill="#393939" mask="url(#mask-2)"></path>
                            </g>
                        </g>
                    </g>
                </g>
            </g>
        </g>
    </g>
</svg>