<?xml version="1.0" encoding="UTF-8"?>
<svg width="39px" height="36px" viewBox="0 0 39 36" version="1.1" xmlns="http://www.w3.org/2000/svg" xmlns:xlink="http://www.w3.org/1999/xlink">
    <!-- Generator: Sketch 46.2 (44496) - http://www.bohemiancoding.com/sketch -->
    <title>bitcointalk</title>
    <desc>Created with Sketch.</desc>
    <defs></defs>
    <g id="Page-1" stroke="none" stroke-width="1" fill="none" fill-rule="evenodd" opacity="0.7">
        <g id="Snc-landing-1" transform="translate(-728.000000, -954.000000)" fill="#FFFFFF">
            <g id="Group-13" transform="translate(480.000000, 949.000000)">
                <g id="bitcointalk" transform="translate(248.000000, 5.000000)">
                    <g>
                        <path d="M19.5,32.8235294 C30.2695526,32.8235294 39,25.4757321 39,16.4117647 C39,7.34779734 30.2695526,0 19.5,0 C8.73044738,0 0,7.34779734 0,16.4117647 C0,25.4757321 8.73044738,32.8235294 19.5,32.8235294 Z M17.1728232,14.631147 C17.4002517,14.631147 17.5965256,14.6374061 17.7927995,14.6295823 C18.7056288,14.5951571 19.6246891,14.6076754 20.5297298,14.5044 C21.760336,14.36357 22.3787545,13.7846022 22.5111615,12.6704804 C22.6903004,11.1463868 22.1201714,10.1777893 20.6714832,10.0228763 C19.5296676,9.90082362 18.3722748,9.93837829 17.2211128,9.90708273 C17.2055355,9.90551795 17.1915159,9.9305544 17.1728232,9.94776695 L17.1728232,14.631147 Z M17.1821696,21.766534 C18.4376994,21.710202 19.6636323,21.7117668 20.8755457,21.583455 C22.1637879,21.4488841 22.847631,20.7603818 23.0002885,19.6055758 C23.0454626,19.251936 23.0454626,18.8842132 23.0065194,18.5290086 C22.9286329,17.7966926 22.6217603,17.1723463 21.9285707,16.8437429 C21.5671775,16.6731821 21.1637256,16.5307873 20.7696201,16.5026213 C19.654286,16.4259472 18.5327209,16.4165586 17.4142712,16.3758743 C17.1634768,16.3680504 17.1556882,16.5292226 17.1556882,16.7107368 C17.1603614,18.2786442 17.1619191,19.8481164 17.1650346,21.4175885 C17.1650346,21.5052161 17.1728232,21.5928437 17.1821696,21.766534 L17.1821696,21.766534 Z M22.7167818,15.3055663 C23.866386,15.5934854 24.87891,15.9752912 25.6063696,16.8766032 C26.2107686,17.6261318 26.3805611,18.5086665 26.3540797,19.4381446 C26.3104632,20.9544143 25.7434498,22.160858 24.2604915,22.7586032 C23.8290005,22.9322935 23.3757012,23.0684292 22.9192866,23.1513624 C22.208962,23.281239 21.4861756,23.3485244 20.7291192,23.4486702 L20.7291192,26.2715294 L18.8411513,26.2715294 L18.8411513,23.4471054 L17.1743809,23.4471054 L17.1743809,26.2637055 L15.269278,26.2637055 L15.269278,23.4314576 L11.5961523,23.4314576 L11.5961523,21.6648234 C12.0587979,21.6648234 12.5120971,21.6742121 12.9669541,21.6616939 C13.6788364,21.6444813 13.9358617,21.3925521 13.9389772,20.6727543 C13.9467658,18.9327213 13.9389772,17.1926884 13.9389772,15.4542202 C13.9389772,13.9442096 13.9452081,12.4341989 13.9405349,10.9241883 C13.9389772,10.1605767 13.6835096,9.90864751 12.9139913,9.89299973 C12.4793848,9.88361106 12.0447784,9.89143495 11.5945946,9.89143495 L11.5945946,8.14827243 L15.2443543,8.14827243 L15.2443543,5.29881198 L17.1541304,5.29881198 L17.1541304,8.13262465 L18.8240162,8.13262465 L18.8240162,5.29411765 L20.7213305,5.29411765 L20.7213305,8.10758821 C21.4005005,8.20616921 22.0563045,8.2562421 22.6887426,8.41115511 C23.2136974,8.53946689 23.7433254,8.72880501 24.2090864,8.9979468 C25.4147689,9.69270816 25.8151053,10.834996 25.7309879,12.158798 C25.6297355,13.7517419 24.7838885,14.7093859 23.1607346,15.1772545 C23.0392317,15.2132444 22.9161711,15.2476695 22.7167818,15.3055663 L22.7167818,15.3055663 Z" id="Fill-1"></path>
                        <path d="M23.1891892,32.8235294 C25.2972973,33.5294118 28.4594595,34.5882353 32.6756757,36 C31.2702703,32.4705882 31.6216216,29.6470588 33.7297297,27.5294118 L23.1891892,32.8235294 Z" id="Path"></path>
                    </g>
                </g>
            </g>
        </g>
    </g>
</svg>