<?xml version="1.0" encoding="UTF-8"?>
<svg width="35px" height="35px" viewBox="0 0 35 35" version="1.1" xmlns="http://www.w3.org/2000/svg" xmlns:xlink="http://www.w3.org/1999/xlink">
    <!-- Generator: Sketch 46.2 (44496) - http://www.bohemiancoding.com/sketch -->
    <title>fb</title>
    <desc>Created with Sketch.</desc>
    <defs></defs>
    <g id="Page-1" stroke="none" stroke-width="1" fill="none" fill-rule="evenodd" opacity="0.7">
        <g id="Snc-landing-1" transform="translate(-480.000000, -954.000000)" fill="#FFFFFF">
            <g id="Group-13" transform="translate(480.000000, 949.000000)">
                <path d="M31.935,5 L2.548,5 C1.141,5 0,6.105 0,7.47 L0,37.01 C0,38.375 1.141,39.48 2.548,39.48 L17.256,39.48 L17.256,26.215 L12.929,26.215 L12.929,20.701 L17.278,20.701 L17.278,20.305 C17.279,19.144 17.237,17.98 17.291,16.82 C17.387,14.798 17.967,12.944 19.445,11.476 C20.578,10.348 21.974,9.793 23.562,9.762 C25.019,9.733 26.478,9.755 27.935,9.755 C28.025,9.756 28.115,9.764 28.232,9.77 L28.232,15.269 C28.038,15.269 27.849,15.265 27.66,15.27 C26.875,15.289 26.089,15.281 25.306,15.339 C24.049,15.432 23.179,16.219 22.919,17.457 C22.854,17.767 22.806,18.086 22.798,18.402 C22.781,19.15 22.792,19.9 22.792,20.686 L28.266,20.686 C28.185,21.125 28.117,21.521 28.037,21.914 C27.771,23.239 27.494,24.562 27.242,25.89 C27.192,26.156 27.081,26.213 26.835,26.211 C25.628,26.201 24.421,26.206 23.214,26.206 L22.818,26.206 L22.818,39.48 L31.935,39.48 C33.342,39.48 34.482,38.374 34.482,37.01 L34.482,7.47 C34.482,6.105 33.342,5 31.935,5" id="fb"></path>
            </g>
        </g>
    </g>
</svg>