<?xml version="1.0" encoding="UTF-8"?>
<svg width="37px" height="36px" viewBox="0 0 37 36" version="1.1" xmlns="http://www.w3.org/2000/svg" xmlns:xlink="http://www.w3.org/1999/xlink">
    <!-- Generator: Sketch 46.2 (44496) - http://www.bohemiancoding.com/sketch -->
    <title>github</title>
    <desc>Created with Sketch.</desc>
    <defs></defs>
    <g id="Page-1" stroke="none" stroke-width="1" fill="none" fill-rule="evenodd" opacity="0.7">
        <g id="Snc-landing-1" transform="translate(-923.000000, -952.000000)" fill-rule="nonzero" fill="#FFFFFF">
            <g id="Group-13" transform="translate(480.000000, 949.000000)">
                <g id="github" transform="translate(443.000000, 3.000000)">
                    <path d="M18.4550986,0 C8.2634146,0 0,8.2634146 0,18.4550986 C0,26.6103419 5.28738576,33.5264982 12.6213771,35.9662839 C13.5438797,36.1351913 13.8806852,35.565282 13.8806852,35.0786369 C13.8806852,34.639319 13.8637801,33.1840336 13.8548049,31.6430328 C9.21551025,32.4886512 8.02605752,30.5061339 7.63814,29.4668811 C7.43899074,28.933089 6.5421162,27.295199 5.74944808,26.862153 C5.10106856,26.5079016 4.19013643,25.6641216 5.71639471,25.6461711 C7.17384288,25.6290136 8.21605132,26.9909422 8.5448909,27.5475509 C10.2007314,30.3500225 12.865835,29.5526325 13.9155769,29.0794682 C14.0833309,27.8900155 14.5608566,27.0743867 15.0870792,26.6149556 C10.9902996,26.1485679 6.68063757,24.5648897 6.68063757,17.4932708 C6.68063757,15.4769071 7.40038642,13.8324929 8.57870122,12.5405279 C8.39054572,12.0719774 7.75528662,10.1941712 8.76119763,7.65414403 C8.76119763,7.65414403 10.3088667,7.15855975 13.8367463,9.54654859 C15.3077834,9.13541801 16.8859467,8.93266424 18.4549905,8.92585171 C20.0229169,8.9326282 21.6022336,9.13758072 23.0755417,9.54871129 C26.5967528,7.1585237 28.1465846,7.65630673 28.1465846,7.65630673 C29.1558478,10.1986408 28.5205527,12.0741402 28.3312798,12.5403837 C29.5139561,13.8323848 30.22819,15.4769071 30.22819,17.4931266 C30.22819,24.582696 25.9117515,26.1439541 21.8003736,26.6012224 C22.4650095,27.1734747 23.0528693,28.2953789 23.0528693,30.016425 C23.0528693,32.4832445 23.0281423,34.4725743 23.0281423,35.0807996 C23.0281423,35.5719143 23.3637944,36.1463292 24.2987326,35.9661397 C31.6272811,33.5218844 36.9101973,26.6058362 36.9101973,18.4550986 C36.9101973,8.2634146 28.6467827,0 18.4550986,0 Z" id="Shape"></path>
                </g>
            </g>
        </g>
    </g>
</svg>