<?xml version="1.0" encoding="UTF-8"?>
<svg width="35px" height="35px" viewBox="0 0 35 35" version="1.1" xmlns="http://www.w3.org/2000/svg" xmlns:xlink="http://www.w3.org/1999/xlink">
    <!-- Generator: Sketch 46.2 (44496) - http://www.bohemiancoding.com/sketch -->
    <title>in</title>
    <desc>Created with Sketch.</desc>
    <defs></defs>
    <g id="Page-1" stroke="none" stroke-width="1" fill="none" fill-rule="evenodd" opacity="0.7">
        <g id="Snc-landing-1" transform="translate(-603.000000, -954.000000)" fill="#FFFFFF">
            <g id="Group-13" transform="translate(480.000000, 949.000000)">
                <path d="M154.935,5 L125.548,5 C124.141,5 123,6.105 123,7.47 L123,37.01 C123,38.375 124.141,39.48 125.548,39.48 L154.935,39.48 C156.342,39.48 157.481,38.374 157.481,37.01 L157.481,7.47 C157.481,6.105 156.342,5 154.935,5 L154.935,5 Z M128.244,33.862 L133.454,33.862 L133.454,18.295 L128.244,18.295 L128.244,33.862 Z M130.849,16.168 L130.814,16.168 C129.067,16.168 127.935,14.974 127.935,13.477 C127.935,11.951 129.101,10.789 130.882,10.789 C132.664,10.789 133.76,11.951 133.795,13.477 C133.795,14.974 132.665,16.168 130.849,16.168 L130.849,16.168 Z M152.234,33.862 L147.026,33.862 L147.026,25.533 C147.026,23.44 146.271,22.013 144.387,22.013 C142.947,22.013 142.091,22.976 141.716,23.905 C141.577,24.238 141.542,24.702 141.542,25.167 L141.542,33.862 L136.335,33.862 C136.335,33.862 136.403,19.755 136.335,18.295 L141.543,18.295 L141.543,20.502 C142.234,19.441 143.47,17.929 146.235,17.929 C149.663,17.929 152.234,20.152 152.234,24.936 L152.234,33.862 Z M141.509,20.552 C141.518,20.536 141.53,20.518 141.543,20.502 L141.543,20.552 L141.509,20.552 Z" id="in"></path>
            </g>
        </g>
    </g>
</svg>