<?xml version="1.0" encoding="UTF-8"?>
<svg width="46px" height="40px" viewBox="0 0 46 40" version="1.1" xmlns="http://www.w3.org/2000/svg" xmlns:xlink="http://www.w3.org/1999/xlink">
    <!-- Generator: Sketch 46.2 (44496) - http://www.bohemiancoding.com/sketch -->
    <title>reddit</title>
    <desc>Created with Sketch.</desc>
    <defs></defs>
    <g id="Page-1" stroke="none" stroke-width="1" fill="none" fill-rule="evenodd" opacity="0.7">
        <g id="Snc-landing-1" transform="translate(-790.000000, -949.000000)" fill="#FFFFFF">
            <g id="Group-13" transform="translate(480.000000, 949.000000)">
                <path d="M349.80748,4.61223167 C349.817464,3.65021193 349.0702,2.87421868 348.135279,2.87574683 C347.234895,2.87727497 346.468783,3.64837816 346.453604,4.5683229 C346.43822,5.50110408 347.221447,6.30704902 348.140577,6.30419648 C349.053288,6.30144582 349.797802,5.54572598 349.80748,4.61223167 M316.426628,16.93888 C315.585332,16.363889 314.748722,16.2414335 313.880429,16.6515882 C312.941433,17.0952604 312.43745,17.8636129 312.401182,18.9069301 C312.368683,19.8414431 312.80879,20.6560476 313.523453,21.0243311 C314.119125,19.4330203 315.117922,18.1223792 316.426628,16.93888 M352.277374,21.1310977 C353.140573,20.4736887 353.493473,19.6445159 353.357163,18.6245284 C353.216267,17.5704123 352.613668,16.8483117 351.610184,16.5183338 C350.804341,16.253353 350.029876,16.3539051 349.315314,16.9327674 C350.630846,18.1251298 351.652667,19.4581838 352.277374,21.1310977 M325.063921,31.2266507 C329.607714,35.3761822 336.640962,35.0468155 340.608542,31.2736158 C340.223245,30.8364638 339.836725,30.3979873 339.452753,29.9624653 C335.649602,33.2248563 330.027445,33.2162987 326.294792,29.9776449 C325.892482,30.385864 325.489764,30.7944907 325.063921,31.2266507 M339.651616,19.6338188 C337.838622,19.6267894 336.410823,21.0330925 336.399514,22.8368158 C336.388308,24.6321853 337.81896,26.078424 339.611782,26.084231 C341.410615,26.0901398 342.858484,24.6624426 342.865616,22.8758345 C342.872747,21.0725187 341.453302,19.6406446 339.651616,19.6338188 M326.163677,19.6340226 C324.357713,19.6426821 322.935415,21.078835 322.95141,22.8775664 C322.967506,24.6776222 324.400399,26.089936 326.205243,26.0843328 C327.995824,26.0788315 329.42454,24.6342228 329.417715,22.8361027 C329.410991,21.0420576 327.97117,19.6252612 326.163677,19.6340226 M318.490951,15.2713655 C320.560368,13.8486603 322.793603,12.8452787 325.173438,12.1634193 C327.187638,11.5862889 329.245441,11.2646649 331.336355,11.1617696 C331.706166,11.1436356 331.879968,11.0296358 331.992847,10.6432182 C332.914421,7.48769571 333.86768,4.34134207 334.811566,1.19233964 C334.859753,1.03168041 334.911303,0.872039939 334.98119,0.648013529 C335.984979,0.844533286 336.977358,1.0347367 337.968005,1.23359962 C339.895712,1.62062842 341.82454,2.00286902 343.747662,2.41149564 C344.079881,2.48209605 344.186342,2.32357623 344.337221,2.1000592 C345.404378,0.519343517 346.900434,-0.221094842 348.7879,0.0576392455 C350.756561,0.34839476 352.035111,1.52466076 352.553255,3.45033025 C353.218916,5.92470654 351.672227,8.49117918 349.213642,9.06158567 C346.687207,9.64768114 344.202235,8.0594266 343.702429,5.50874482 C343.633662,5.15788217 343.501019,5.0403167 343.170022,4.97593075 C341.223265,4.59725582 339.281295,4.19433429 337.337186,3.80180416 C337.172248,3.76849054 337.003948,3.75117154 336.784913,3.71867294 C336.048652,6.17573022 335.316567,8.61923793 334.559931,11.1444506 C336.862339,11.3038873 339.073976,11.6707446 341.225404,12.351687 C343.372247,13.0311014 345.391847,13.9748852 347.118042,15.1683684 C348.020159,14.7689106 348.798291,14.282756 349.644579,14.076558 C352.019728,13.4980014 354.41678,14.8037524 355.357915,17.0730513 C356.287538,19.3142323 355.507368,21.9724956 353.49113,23.2799786 C353.103083,23.5315116 353.007013,23.769597 353.041957,24.2113335 C353.346975,28.0626725 351.702179,31.0890156 348.944688,33.5960942 C346.298548,36.0019077 343.135588,37.4415244 339.696238,38.2894425 C335.167216,39.4060088 330.620876,39.4237353 326.091651,38.2951475 C322.118162,37.3050099 318.523755,35.5879835 315.718586,32.506627 C313.530788,30.1033605 312.366136,27.3083789 312.724843,24.0004491 C312.76213,23.6565141 312.612474,23.5261122 312.370211,23.3692224 C310.58615,22.2141467 309.691471,20.1231317 310.096124,18.0859074 C310.517282,15.9657557 312.073853,14.4083697 314.205211,14.0183865 C315.357638,13.807604 316.844321,13.904998 318.490951,15.2713655" id="reddit"></path>
            </g>
        </g>
    </g>
</svg>