<?xml version="1.0" encoding="UTF-8"?>
<svg width="38px" height="38px" viewBox="0 0 38 38" version="1.1" xmlns="http://www.w3.org/2000/svg" xmlns:xlink="http://www.w3.org/1999/xlink">
    <!-- Generator: Sketch 46.2 (44496) - http://www.bohemiancoding.com/sketch -->
    <title>slack</title>
    <desc>Created with Sketch.</desc>
    <defs></defs>
    <g id="Page-1" stroke="none" stroke-width="1" fill="none" fill-rule="evenodd" opacity="0.7">
        <g id="Snc-landing-1" transform="translate(-663.000000, -952.000000)" fill="#FFFFFF">
            <g id="Group-13" transform="translate(480.000000, 949.000000)">
                <path d="M206.215306,13.715512 C206.001284,13.0938155 205.821616,12.5703137 205.641035,12.0469638 C205.517456,11.6888423 205.419869,11.3185605 205.263153,10.9754874 C204.845446,10.0610312 203.785218,9.61991549 202.843857,9.94353207 C201.872855,10.2773329 201.299344,11.3197765 201.586632,12.3154029 C201.841998,13.2005224 202.153151,14.0693774 202.453358,14.9876337 C200.718232,15.564641 199.077197,16.1103355 197.401201,16.6675822 C197.088072,15.751606 196.833466,14.9326083 196.528545,14.1326111 C196.111294,13.0383341 195.046506,12.5347447 194.023671,12.9098907 C192.963291,13.298717 192.477182,14.3005755 192.823447,15.4216052 C193.075926,16.2387789 193.352269,17.0485043 193.638949,17.9264796 C192.836216,18.2009989 192.074371,18.4556056 191.316631,18.7219167 C190.156689,19.1295915 189.596706,20.1512105 189.942819,21.2128067 C190.304285,22.32198 191.361169,22.8251134 192.567929,22.4499674 C193.333117,22.2120811 194.092681,21.9559543 194.909855,21.6900993 C195.461933,23.3429911 195.992731,24.9329532 196.534474,26.5549882 C195.675499,26.848356 194.909095,27.0996186 194.15029,27.3717058 C193.040205,27.7696524 192.498615,28.7854953 192.826031,29.8250508 C193.16728,30.9083835 194.224924,31.4487579 195.364347,31.1018847 C196.159328,30.8598943 196.945645,30.5900871 197.725729,30.3360884 C197.777259,30.3943059 197.824836,30.4254667 197.83958,30.4678759 C198.088715,31.1836628 198.333289,31.9009698 198.579536,32.6178208 C199.014571,33.8841664 200.02859,34.4648218 201.147492,34.0887638 C202.248913,33.718482 202.713133,32.6275491 202.305307,31.3531473 C202.062252,30.5934312 201.809621,29.8369072 201.549847,29.0442062 C203.264452,28.471151 204.907463,27.9219604 206.597444,27.3572655 C206.893852,28.2233844 207.148003,29.0142614 207.434682,29.793282 C207.860598,30.9506407 208.896809,31.492687 209.952173,31.1348695 C211.041282,30.7654998 211.525263,29.6879432 211.139173,28.4814872 C210.888062,27.6968425 210.630415,26.9144777 210.365928,26.1009522 C210.787891,25.9580684 211.145253,25.8376812 211.50231,25.715926 C211.885056,25.5852025 212.269627,25.4593432 212.649485,25.3207155 C213.853509,24.8811198 214.428996,23.830316 214.048986,22.774496 C213.651495,21.6694268 212.612244,21.2052065 211.394995,21.5932727 C210.653824,21.829639 209.914628,22.0723894 209.098519,22.3368764 C208.543704,20.6867207 208.009866,19.0990386 207.465539,17.4804998 C208.356739,17.1754277 209.179233,16.9273571 209.975278,16.6127088 C211.024562,16.1980418 211.507174,15.1425258 211.154373,14.1476595 C210.778315,13.0871274 209.75776,12.5798899 208.654211,12.921747 C207.862422,13.1669295 207.077473,13.4340005 206.215306,13.715512 M221.000434,26.7202166 C221.091332,30.1564196 219.197818,33.5149486 215.48436,35.8877315 C212.30854,37.9168332 208.787214,39.1210091 205.160094,39.9681276 C202.90633,40.4945175 200.583557,40.9107046 198.278416,40.9914187 C193.853579,41.1463108 190.425736,39.2011153 188.073321,35.4189511 C185.892368,31.9126742 184.695336,28.0291233 183.751087,24.056346 C183.170128,21.6116652 182.825838,19.1409918 183.088349,16.6081487 C183.459087,13.0317979 185.241942,10.3531829 188.17106,8.37120241 C191.060201,6.41612661 194.315215,5.3139454 197.625559,4.35084789 C200.158858,3.61378036 202.735022,3.06610985 205.3805,3.00454821 C209.208265,2.91562586 212.489576,4.12390587 214.930305,7.21885988 C216.792962,9.58054645 217.943329,12.2959464 218.875722,15.1183572 C220.013624,18.5624644 220.967297,22.0456367 221.000434,26.7202166 Z M203.712073,18.7215366 C201.982116,19.3049281 200.339712,19.8586788 198.646235,20.4297579 C199.204698,22.0840177 199.740208,23.6706358 200.291831,25.3046791 C202.013884,24.7252397 203.653704,24.1736171 205.356909,23.6004099 C204.799966,21.9482781 204.270536,20.3782285 203.712073,18.7215366 Z" id="slack"></path>
            </g>
        </g>
    </g>
</svg>