<?xml version="1.0" encoding="UTF-8"?>
<svg width="36px" height="36px" viewBox="0 0 36 36" version="1.1" xmlns="http://www.w3.org/2000/svg" xmlns:xlink="http://www.w3.org/1999/xlink">
    <!-- Generator: Sketch 46.2 (44496) - http://www.bohemiancoding.com/sketch -->
    <title>telegram</title>
    <desc>Created with Sketch.</desc>
    <defs></defs>
    <g id="Page-1" stroke="none" stroke-width="1" fill="none" fill-rule="evenodd" opacity="0.7">
        <g id="Snc-landing-1" transform="translate(-863.000000, -952.000000)" fill="#FFFFFF">
            <g id="Group-13" transform="translate(480.000000, 949.000000)">
                <path d="M400.159271,27.346747 C401.523171,28.4239812 402.883809,29.5048217 404.253066,30.5731644 C404.451985,30.7283607 404.682116,30.8541469 404.9151,30.9398904 C405.341297,31.0967655 405.689289,30.9437454 405.884889,30.5140331 C405.993141,30.2762022 406.062903,30.0123809 406.114903,29.752228 C406.868129,25.9849241 407.61652,22.216501 408.363398,18.4477048 C408.575885,17.3753827 408.813586,16.3069156 408.97745,15.2259508 C409.125591,14.2489476 408.527204,13.7641455 407.670909,14.1126533 C406.477104,14.5985746 405.285337,15.090527 404.093453,15.5819821 C399.680084,17.401684 395.265958,19.2194583 390.856373,21.0496683 C390.602134,21.1551844 390.360124,21.3348167 390.158177,21.5331645 C389.923679,21.7634719 389.95524,22.0508587 390.217515,22.2466573 C390.388133,22.3739979 390.590197,22.4661457 390.790164,22.5337332 C392.126345,22.9858296 393.467709,23.4205161 394.802027,23.8787059 C395.009098,23.9498376 395.167779,23.920303 395.335661,23.8074499 C396.537851,22.9996331 397.741672,22.1946765 398.942115,21.3839995 C400.964614,20.0183215 402.983269,18.646177 405.009494,17.2868412 C405.170504,17.1788379 405.377634,17.1492412 405.563276,17.0832082 C405.579697,17.118774 405.596118,17.1543398 405.612598,17.1899056 C405.551571,17.262343 405.495494,17.3405008 405.428761,17.4063473 C404.699527,18.1253739 403.969886,18.8439653 403.237741,19.5595721 C402.847356,19.9411586 402.452838,20.3179574 402.058377,20.6948183 C401.155439,21.5575383 400.251335,22.4188904 399.347756,23.2809265 C398.802709,23.8009212 398.249801,24.3119623 397.718263,24.8472529 C397.574431,24.9920033 397.421923,25.2010458 397.400319,25.3965957 C397.326248,26.0684292 397.313495,26.747724 397.267201,27.4234125 C397.240007,27.8208544 397.177059,28.2159957 397.16023,28.6136242 C397.141188,29.062052 397.155804,29.5120343 397.155804,29.9655608 C397.478931,30.0013753 397.664632,29.9313007 397.949384,29.6370122 C398.685664,28.8761398 399.420022,28.1131533 400.159271,27.346747 M399.98,3 L402.02,3 C402.1073,3.0171 402.19394,3.0438 402.28202,3.04998 C405.52214,3.27612 408.49832,4.28982 411.15842,6.14604 C415.35974,9.07776 417.90704,13.08366 418.76594,18.1446 C418.86908,18.75216 418.92314,19.368 419,19.98 L419,22.02 C418.98236,22.11696 418.9634,22.21368 418.94732,22.31094 C418.76648,23.40288 418.67024,24.51696 418.39184,25.58346 C416.59022,32.48556 410.91122,37.61916 403.85942,38.76678 C403.24976,38.86596 402.63332,38.92326 402.02,39 L399.98,39 C399.87272,38.98182 399.76556,38.96304 399.65816,38.94546 C398.59622,38.77182 397.51682,38.66874 396.4757,38.41104 C393.76754,37.74072 391.3541,36.46344 389.25182,34.62924 C385.97102,31.7667 383.95352,28.18476 383.23736,23.88312 C383.13458,23.26602 383.07794,22.64124 383,22.02 C383,21.34002 383,20.65998 383,19.98 C383.01716,19.88388 383.03582,19.788 383.05118,19.69158 C383.21732,18.64836 383.31002,17.5872 383.56034,16.56462 C385.24712,9.67446 391.0991,4.32984 398.11238,3.23634 C398.73212,3.13968 399.35732,3.07794 399.98,3" id="telegram"></path>
            </g>
        </g>
    </g>
</svg>