<?xml version="1.0" encoding="UTF-8"?>
<svg width="41px" height="33px" viewBox="0 0 41 33" version="1.1" xmlns="http://www.w3.org/2000/svg" xmlns:xlink="http://www.w3.org/1999/xlink">
    <!-- Generator: Sketch 46.2 (44496) - http://www.bohemiancoding.com/sketch -->
    <title>tw</title>
    <desc>Created with Sketch.</desc>
    <defs></defs>
    <g id="Page-1" stroke="none" stroke-width="1" fill="none" fill-rule="evenodd" opacity="0.7">
        <g id="Snc-landing-1" transform="translate(-537.000000, -955.000000)" fill="#FFFFFF">
            <g id="Group-13" transform="translate(480.000000, 949.000000)">
                <path d="M97.616,9.902 C96.121,10.564 94.517,11.014 92.832,11.214 C94.553,10.184 95.87,8.549 96.494,6.608 C94.881,7.562 93.098,8.256 91.2,8.631 C89.68,7.009 87.517,6 85.119,6 C80.517,6 76.786,9.729 76.786,14.329 C76.786,14.981 76.86,15.619 77.002,16.227 C70.079,15.88 63.939,12.562 59.83,7.521 C59.112,8.751 58.703,10.181 58.703,11.71 C58.703,14.6 60.176,17.151 62.409,18.643 C61.043,18.597 59.76,18.222 58.635,17.597 L58.635,17.702 C58.635,21.738 61.509,25.105 65.317,25.872 C64.619,26.059 63.884,26.164 63.122,26.164 C62.584,26.164 62.064,26.11 61.553,26.009 C62.614,29.32 65.69,31.729 69.335,31.796 C66.485,34.028 62.891,35.356 58.988,35.356 C58.315,35.356 57.653,35.315 57,35.243 C60.688,37.61 65.066,38.991 69.772,38.991 C85.099,38.991 93.477,26.296 93.477,15.286 L93.449,14.208 C95.087,13.04 96.502,11.573 97.616,9.902" id="tw"></path>
            </g>
        </g>
    </g>
</svg>