<?xml version="1.0" encoding="UTF-8"?>
<svg width="88px" height="65px" viewBox="0 0 88 65" version="1.1" xmlns="http://www.w3.org/2000/svg" xmlns:xlink="http://www.w3.org/1999/xlink">
    <!-- Generator: Sketch 46.2 (44496) - http://www.bohemiancoding.com/sketch -->
    <title>N symbol</title>
    <desc>Created with Sketch.</desc>
    <defs></defs>
    <g id="Page-1" stroke="none" stroke-width="1" fill="none" fill-rule="evenodd">
        <g id="Snc-landing-1" transform="translate(-676.000000, -180.000000)" fill-rule="nonzero" fill="#FFFFFF">
            <path d="M761.163578,189.370247 L760.382261,189.370247 C758.949846,189.370247 757.77787,189.766173 756.866333,190.69 C755.954797,191.613827 755.173479,193.461481 754.261943,196.232963 C753.350406,199.004444 752.17843,203.62358 750.746015,209.958395 L752.829528,208.638642 L762.335554,208.638642 L760.51248,216.029259 L749.44382,216.029259 C748.011405,222.100123 746.709209,226.983209 745.537233,230.678518 C744.365258,234.373827 742.672404,237.673209 740.588891,240.18074 C738.505378,242.688271 735.900988,244.139999 732.645499,244.139999 C729.390011,244.139999 726.394961,242.820246 724.181229,240.048765 C721.967497,237.277283 720.665302,234.109876 719.363106,230.150617 C718.060911,226.323333 716.758715,221.308271 715.326301,214.973456 L714.935642,213.125802 C713.112568,205.471234 711.810373,200.192222 711.029056,197.15679 C710.247739,194.121358 709.466421,192.009753 708.945543,191.085926 C708.424665,190.162099 707.773567,189.634197 706.99225,189.634197 C706.341152,189.634197 705.820274,190.294074 705.169177,191.481852 C704.518079,192.801605 703.866981,195.045185 702.955444,198.212592 C702.043908,201.38 700.871932,206.395061 699.439517,212.861852 L698.918639,215.105432 C697.486224,221.308271 696.184028,226.455308 694.881833,230.282592 C693.709857,234.109876 692.017003,237.409259 689.803271,240.048765 C687.589539,242.820246 684.985148,244.139999 681.59944,244.139999 L676,244.139999 L678.213732,235.165678 L678.995049,235.165678 C680.427464,235.165678 681.59944,234.637777 682.510977,233.71395 C683.422514,232.790123 684.203831,230.942469 685.115368,228.170987 C685.896685,225.663456 687.068661,221.440247 688.370856,215.765308 C688.501076,215.369382 688.631295,214.841481 688.631295,214.445555 L686.547783,215.765308 L677.171976,215.765308 L678.995049,208.374691 L690.06371,208.374691 C691.496125,202.303827 692.668101,197.420741 693.970296,193.593457 C695.142272,189.898148 696.835126,186.598765 698.918639,183.959259 C701.002151,181.319753 703.736762,180 706.862031,180 C710.117519,180 713.112568,181.319753 715.326301,184.091235 C717.540033,186.862716 718.842228,190.162099 720.144423,193.989383 C721.446619,197.816666 722.748814,202.963703 724.181229,209.166543 L724.571888,211.014197 C726.264742,218.404814 727.566937,223.815802 728.478474,226.851234 C729.259791,230.018641 730.041108,231.998271 730.561987,233.054074 C731.082865,234.109876 731.733962,234.505802 732.51528,234.505802 C733.166377,234.505802 733.687255,233.845925 734.338353,232.658148 C734.989451,231.338395 735.640549,229.094814 736.552085,225.927407 C737.463622,222.76 738.635598,217.744938 740.068013,211.278148 C740.328452,210.354321 740.458671,209.694444 740.588891,209.166543 C742.021306,202.963703 743.323501,197.948642 744.495477,193.989383 C745.667453,190.030123 747.360307,186.862716 749.574039,184.091235 C751.787771,181.319753 754.522382,180 757.77787,180 L763.37731,180 L761.163578,189.370247 Z" id="N-symbol"></path>
        </g>
    </g>
</svg>