<?xml version="1.0" encoding="UTF-8"?>
<svg width="485px" height="41px" viewBox="0 0 485 41" version="1.1" xmlns="http://www.w3.org/2000/svg" xmlns:xlink="http://www.w3.org/1999/xlink">
    <!-- Generator: Sketch 46.2 (44496) - http://www.bohemiancoding.com/sketch -->
    <title>1-SUNCONTRACT-LOGO-RGB-white@2x</title>
    <desc>Created with Sketch.</desc>
    <defs></defs>
    <g id="end-2107-Product-page" stroke="none" stroke-width="1" fill="none" fill-rule="evenodd">
        <g id="Desktop-HD" transform="translate(-479.000000, -267.000000)">
            <g id="Group-3" transform="translate(-87.000000, 0.000000)">
                <g id="1-SUNCONTRACT-LOGO-RGB-white" transform="translate(522.000000, 228.000000)">
                    <rect id="Rectangle-path" x="0" y="0" width="570.64" height="120"></rect>
                    <g id="Group" transform="translate(44.200000, 39.200000)" fill-rule="nonzero" fill="#FFFFFF">
                        <path d="M74.64,1.36 L68,26.72 C66.8,31.44 64.72,34.96 61.92,37.28 C59.12,39.6 55.52,40.72 51.04,40.72 C47.2,40.72 44.24,39.76 42.24,37.92 C40.24,36.08 39.36,33.36 39.52,29.84 C39.6,28.4 39.84,26.88 40.32,25.36 L46.72,1.44 L53.04,1.44 L46.72,25.44 C46.24,26.96 46,28.4 45.92,29.6 C45.84,31.44 46.24,32.8 47.28,33.84 C48.32,34.88 49.84,35.36 52,35.36 C54.56,35.36 56.64,34.64 58.24,33.2 C59.84,31.76 61.04,29.44 61.92,26.24 L68.48,1.36 L74.64,1.36 Z" id="Shape"></path>
                        <path d="M217.44,15.68 C217.2,20.64 216.08,25.04 214.24,28.88 C212.32,32.72 209.92,35.68 206.8,37.68 C203.76,39.68 200.24,40.72 196.4,40.72 C191.84,40.72 188.32,39.36 186,36.72 C183.6,34.08 182.56,30.4 182.8,25.76 C183.04,21.04 184.16,16.72 186.08,12.8 C188,8.88 190.56,5.92 193.68,3.84 C196.8,1.76 200.32,0.72 204.16,0.72 C208.64,0.72 212,2 214.32,4.64 C216.64,7.36 217.68,10.96 217.44,15.68 Z M203.36,6.16 C200.88,6.16 198.64,7.04 196.56,8.72 C194.48,10.4 192.8,12.8 191.52,15.76 C190.24,18.72 189.52,22.08 189.28,25.68 C189.12,28.72 189.68,31.12 191.04,32.8 C192.4,34.48 194.4,35.28 196.96,35.28 C199.44,35.28 201.68,34.4 203.68,32.72 C205.76,31.04 207.36,28.72 208.64,25.68 C209.92,22.64 210.64,19.36 210.8,15.68 C210.96,12.64 210.4,10.32 209.04,8.64 C207.84,7.04 205.92,6.16 203.36,6.16 Z" id="Shape"></path>
                        <polygon id="Shape" points="300.48 40.16 294.16 40.16 302.88 6.8 292.16 6.8 293.6 1.36 321.44 1.36 320 6.8 309.2 6.8"></polygon>
                        <path d="M336.16,24.64 L332.08,40.16 L325.76,40.16 L336,1.36 L344.96,1.36 C348.88,1.36 351.92,2.16 353.92,3.84 C355.92,5.52 356.88,8.08 356.64,11.52 C356.48,14.48 355.6,16.88 353.92,18.88 C352.32,20.88 349.92,22.32 346.88,23.28 L352.64,40.08 L345.76,40.08 L341.04,24.56 L336.16,24.56 L336.16,24.64 Z M337.6,19.44 L340.88,19.44 C343.92,19.44 346.16,18.8 347.76,17.44 C349.28,16.08 350.16,14.32 350.24,12 C350.32,10.16 349.92,8.8 348.88,8 C347.84,7.2 346.24,6.8 344.08,6.8 L340.96,6.8 L337.6,19.44 Z" id="Shape"></path>
                        <path d="M389.36,29.36 L376.48,29.36 L370.4,40.16 L363.68,40.16 L386.4,1.28 L393.68,1.28 L396.08,40.16 L389.84,40.16 L389.36,29.36 Z M389.2,23.84 C388.88,16.48 388.72,12 388.72,10.48 C388.72,8.96 388.72,7.68 388.8,6.8 C387.68,9.28 386.32,12 384.64,14.96 L379.6,23.92 L389.2,23.92 L389.2,23.84 Z" id="Shape"></path>
                        <polygon id="Shape" points="463.04 40.16 456.72 40.16 465.44 6.8 454.72 6.8 456.16 1.36 484 1.36 482.56 6.8 471.76 6.8"></polygon>
                        <path d="M164.72,6.24 C162,6.24 159.52,7.04 157.28,8.64 C155.04,10.24 153.2,12.56 151.76,15.52 C150.32,18.56 149.52,21.84 149.28,25.52 C149.12,28.72 149.68,31.2 151.12,32.88 C152.48,34.56 154.64,35.44 157.44,35.44 C159.92,35.44 164.24,34.8 167.68,33.6 L167.36,39.04 C164.08,40.24 159.36,40.8 155.92,40.8 C151.52,40.8 148.16,39.52 145.76,36.88 C143.44,34.24 142.32,30.56 142.56,25.76 C142.8,21.12 144,16.88 146.08,12.88 C148.16,8.88 150.8,5.92 154.08,3.84 C157.28,1.76 160.96,0.72 164.96,0.72 C170.64,0.72 173.6,1.52 176.56,3.2 L173.76,8.4 C172.64,7.76 170.64,7.12 169.6,6.88 C168.4,6.56 166.32,6.24 164.72,6.24 Z" id="Shape"></path>
                        <path d="M133.68,6.88 L133.12,6.88 C132.16,6.88 131.36,7.2 130.8,7.84 C130.24,8.48 129.68,9.76 129.12,11.68 C128.56,13.6 127.68,16.96 126.64,21.68 L126.32,23.04 C125.44,26.72 124.64,29.76 123.92,32.08 C123.2,34.4 122.16,36.32 120.88,37.92 C119.6,39.52 117.92,40.32 115.92,40.32 C113.92,40.32 112.24,39.52 110.88,37.84 C109.52,36.16 108.48,34.16 107.76,31.84 C106.96,29.52 106.16,26.4 105.28,22.64 L105.04,21.52 C103.92,16.88 103.12,13.6 102.64,11.76 C102.16,9.92 101.68,8.64 101.36,8 C101.04,7.36 100.64,7.12 100.16,7.12 C99.76,7.12 99.44,7.52 99.04,8.24 C98.64,9.04 98.24,10.4 97.68,12.4 C97.12,14.4 96.4,17.36 95.52,21.36 L95.2,22.72 C94.32,26.56 93.52,29.6 92.72,31.92 C92,34.24 90.96,36.24 89.6,37.84 C88.24,39.52 86.56,40.32 84.56,40.32 L81.04,40.32 L82.4,34.88 L82.96,34.88 C83.92,34.88 84.64,34.56 85.2,33.92 C85.76,33.28 86.32,32 86.88,30 C87.44,28.08 88.32,24.72 89.44,20 C89.6,19.44 89.68,18.96 89.76,18.72 C90.64,14.96 91.44,12 92.16,9.68 C92.88,7.36 93.92,5.44 95.2,3.84 C96.48,2.24 98.16,1.44 100.08,1.44 C102.08,1.44 103.76,2.24 105.12,3.92 C106.48,5.6 107.52,7.6 108.24,9.92 C108.96,12.24 109.84,15.36 110.72,19.2 L110.96,20.32 C112,24.88 112.8,28.08 113.36,30 C113.84,31.92 114.32,33.12 114.64,33.76 C114.96,34.4 115.36,34.64 115.84,34.64 C116.24,34.64 116.64,34.24 116.96,33.52 C117.36,32.72 117.76,31.36 118.32,29.44 C118.88,27.44 119.6,24.48 120.48,20.48 C120.64,19.92 120.72,19.52 120.8,19.2 C121.68,15.44 122.48,12.32 123.2,10 C123.92,7.68 125.04,5.68 126.32,4 C127.6,2.32 129.36,1.52 131.36,1.52 L134.88,1.52 L133.68,6.88 Z" id="Shape"></path>
                        <path d="M279.92,6.96 L279.44,6.96 C278.56,6.96 277.84,7.2 277.28,7.76 C276.72,8.32 276.24,9.44 275.68,11.12 C275.12,12.8 274.4,15.6 273.52,19.44 L274.8,18.64 L280.64,18.64 L279.52,23.12 L272.72,23.12 C271.84,26.8 271.04,29.76 270.32,32 C269.6,34.24 268.56,36.16 267.28,37.76 C266,39.36 264.4,40.16 262.4,40.16 C260.4,40.16 258.56,39.36 257.2,37.68 C255.84,36.08 255.04,34.08 254.24,31.68 C253.44,29.36 252.64,26.32 251.76,22.48 L251.52,21.36 C250.4,16.72 249.6,13.52 249.12,11.68 C248.64,9.84 248.16,8.56 247.84,8 C247.52,7.44 247.12,7.12 246.64,7.12 C246.24,7.12 245.92,7.52 245.52,8.24 C245.12,8.96 244.72,10.4 244.16,12.32 C243.6,14.32 242.88,17.28 242,21.2 L241.68,22.56 C240.8,26.32 240,29.44 239.2,31.68 C238.48,34 237.44,36 236.08,37.6 C234.72,39.2 233.12,40.08 231.04,40.08 L227.6,40.08 L228.96,34.64 L229.44,34.64 C230.32,34.64 231.04,34.32 231.6,33.76 C232.16,33.2 232.64,32.08 233.2,30.4 C233.68,28.88 234.4,26.32 235.2,22.88 C235.28,22.64 235.36,22.32 235.36,22.08 L234.08,22.88 L228.32,22.88 L229.44,18.4 L236.24,18.4 C237.12,14.72 237.84,11.76 238.64,9.44 C239.36,7.2 240.4,5.2 241.68,3.6 C242.96,2 244.64,1.2 246.56,1.2 C248.56,1.2 250.4,2 251.76,3.68 C253.12,5.36 253.92,7.36 254.72,9.68 C255.52,12 256.32,15.04 257.2,18.88 L257.44,20 C258.48,24.48 259.28,27.68 259.84,29.6 C260.32,31.52 260.8,32.72 261.12,33.36 C261.44,34 261.84,34.24 262.32,34.24 C262.72,34.24 263.04,33.84 263.44,33.12 C263.84,32.32 264.24,30.96 264.8,29.04 C265.36,27.12 266.08,24.16 266.96,20.16 C267.12,19.6 267.2,19.2 267.28,18.88 C268.16,15.12 268.96,12.08 269.68,9.76 C270.4,7.44 271.44,5.44 272.8,3.76 C274.16,2.08 275.84,1.28 277.84,1.28 L281.28,1.28 L279.92,6.96 Z" id="Shape"></path>
                        <path d="M431.92,6.24 C429.2,6.24 426.72,7.04 424.48,8.64 C422.24,10.24 420.4,12.56 418.96,15.52 C417.52,18.56 416.72,21.84 416.48,25.52 C416.32,28.72 416.88,31.2 418.32,32.88 C419.68,34.56 421.84,35.44 424.64,35.44 C427.12,35.44 431.44,34.8 434.88,33.6 L434.56,39.04 C431.28,40.24 426.56,40.8 423.12,40.8 C418.72,40.8 415.36,39.52 412.96,36.88 C410.64,34.24 409.52,30.56 409.76,25.76 C410,21.12 411.2,16.88 413.28,12.88 C415.36,8.88 418,5.92 421.28,3.84 C424.48,1.76 428.16,0.72 432.16,0.72 C437.84,0.72 440.8,1.52 443.76,3.2 L440.96,8.4 C439.84,7.76 437.84,7.12 436.8,6.88 C435.6,6.56 433.52,6.24 431.92,6.24 Z" id="Shape"></path>
                        <path d="M24.4,28.72 C24.24,32.4 22.8,35.28 20.08,37.36 C17.44,39.44 13.84,40.48 9.28,40.48 C5.52,40.48 1.84,40.4 0.16,40.16 L1.52,34.8 C3.68,34.96 6.56,34.88 9.68,34.88 C12.08,34.88 14.08,34.4 15.52,33.36 C16.96,32.32 17.68,31.2 17.76,29.44 C17.84,28.24 17.52,27.2 16.8,26.24 C16.16,25.28 14.64,24.08 12.4,22.64 C10.56,21.44 9.28,20.4 8.4,19.44 C7.6,18.48 6.96,17.44 6.56,16.32 C6.16,15.2 6,13.92 6.08,12.56 C6.16,10.32 6.88,8.32 8,6.64 C9.2,4.88 10.8,3.6 12.88,2.64 C14.96,1.68 17.92,1.2 20.4,1.2 C22.8,1.2 25.76,1.2 28.4,1.28 L27.36,6.64 C22.88,6.56 21.28,6.64 19.52,6.8 C17.6,6.96 16,7.28 14.8,8.32 C13.6,9.28 12.88,10.4 12.8,12 C12.72,12.8 12.88,13.52 13.12,14.16 C13.36,14.8 13.76,15.36 14.24,15.92 C14.8,16.48 15.92,17.28 17.68,18.4 C20.32,20.08 22.16,21.76 23.12,23.28 C24.08,24.88 24.48,26.72 24.4,28.72 Z" id="Shape"></path>
                    </g>
                </g>
            </g>
        </g>
    </g>
</svg>