<?xml version="1.0" encoding="utf-8"?>
<!-- Generator: Adobe Illustrator 19.0.0, SVG Export Plug-In . SVG Version: 6.00 Build 0)  -->
<svg version="1.1" id="Layer_1" xmlns="http://www.w3.org/2000/svg" xmlns:xlink="http://www.w3.org/1999/xlink" x="0px" y="0px"
	 width="140px" height="140px" viewBox="-409 211 140 140" style="enable-background:new -409 211 140 140;" xml:space="preserve">
<style type="text/css">
	.st0{opacity:0.25;}
	.st1{fill:none;stroke:#FFFFFF;stroke-width:2;stroke-miterlimit:10;}
	.st2{opacity:0.25;fill:none;}
	.st3{fill:#FFFFFF;}
</style>
<g>
	<circle class="st0" cx="-338" cy="281" r="59.5"/>
	<g>
		<defs>
			<circle id="SVGID_1_" cx="-338" cy="281" r="59.5"/>
		</defs>
		<clipPath id="SVGID_2_">
			<use xlink:href="#SVGID_1_"  style="overflow:visible;"/>
		</clipPath>
	</g>
	<circle class="st1" cx="-338" cy="281" r="59.5"/>
	<g>
		<circle class="st2" cx="-338" cy="281" r="59.5"/>
		<g>
			<defs>
				<circle id="SVGID_3_" cx="-338" cy="281" r="59.5"/>
			</defs>
			<clipPath id="SVGID_4_">
				<use xlink:href="#SVGID_3_"  style="overflow:visible;"/>
			</clipPath>
		</g>
		<circle class="st1" cx="-338" cy="281" r="59.5"/>
	</g>
	<g>
		<g>
			<g>
				<circle class="st1" cx="-338" cy="246.5" r="12.7"/>
			</g>
			<path class="st3" d="M-335.6,246.9c0.7,0.2,1.4,0.4,1.9,1c0.4,0.5,0.5,1,0.5,1.6c0,1-0.4,1.7-1.3,2.1c-0.3,0.1-0.6,0.2-0.9,0.3
				c-0.5,0.1-0.9,0.1-1.4,0.2c0,0.6,0,1.2,0,1.8c-0.4,0-0.8,0-1.2,0c0-0.6,0-1.2,0-1.8c-0.4,0-0.7,0-1.1,0c0,0.6,0,1.2,0,1.8
				c-0.4,0-0.8,0-1.2,0c0-0.6,0-1.2,0-1.8c-0.8,0-1.6,0-2.4,0c0-0.4,0-0.7,0-1.1c0.3,0,0.6,0,0.9,0c0.5,0,0.6-0.2,0.6-0.6
				c0-1.1,0-2.2,0-3.3c0-1,0-1.9,0-2.9c0-0.5-0.2-0.6-0.7-0.7c-0.3,0-0.6,0-0.8,0c0-0.4,0-0.7,0-1.1c0.8,0,1.6,0,2.3,0
				c0-0.6,0-1.2,0-1.8c0.4,0,0.8,0,1.2,0c0,0.6,0,1.2,0,1.8c0.4,0,0.7,0,1.1,0c0-0.6,0-1.2,0-1.8c0.4,0,0.8,0,1.2,0
				c0,0.6,0,1.2,0,1.8c0.4,0.1,0.9,0.1,1.3,0.2c0.3,0.1,0.7,0.2,1,0.4c0.8,0.4,1,1.2,1,2c-0.1,1-0.6,1.6-1.7,1.9
				C-335.4,246.9-335.5,246.9-335.6,246.9z M-339.2,251.1c0.8,0,1.6,0,2.4-0.1c0.8-0.1,1.3-0.5,1.4-1.3c0-0.2,0-0.5,0-0.7
				c-0.1-0.5-0.2-0.9-0.7-1.1c-0.2-0.1-0.5-0.2-0.7-0.2c-0.7,0-1.4-0.1-2.2-0.1c-0.2,0-0.2,0.1-0.2,0.2c0,1,0,2,0,3
				C-339.2,250.9-339.2,250.9-339.2,251.1z M-339.2,246.5c0.1,0,0.3,0,0.4,0c0.6,0,1.2,0,1.8-0.1c0.8-0.1,1.2-0.5,1.3-1.2
				c0.1-1-0.3-1.6-1.2-1.7c-0.7-0.1-1.5-0.1-2.2-0.1c0,0,0,0,0,0C-339.2,244.5-339.2,245.5-339.2,246.5z"/>
		</g>
		<g>
			<g>
				<g>
					<circle class="st1" cx="-338" cy="315.1" r="12.7"/>
				</g>
				<g>
					<polygon class="st3" points="-342.2,315.2 -337.9,308 -333.6,315.2 -337.9,317.7 					"/>
					<polygon class="st3" points="-342.4,315.9 -337.9,318.4 -333.6,315.9 -337.9,322.1 					"/>
				</g>
			</g>
		</g>
	</g>
	<g>
		<g>
			<g>
				<circle class="st1" cx="-367.7" cy="297.9" r="12.7"/>
			</g>
			<path class="st3" d="M-365.3,298.3c0.7,0.2,1.4,0.4,1.9,1c0.4,0.5,0.5,1,0.5,1.6c0,1-0.4,1.7-1.3,2.1c-0.3,0.1-0.6,0.2-0.9,0.3
				c-0.5,0.1-0.9,0.1-1.4,0.2c0,0.6,0,1.2,0,1.8c-0.4,0-0.8,0-1.2,0c0-0.6,0-1.2,0-1.8c-0.4,0-0.7,0-1.1,0c0,0.6,0,1.2,0,1.8
				c-0.4,0-0.8,0-1.2,0c0-0.6,0-1.2,0-1.8c-0.8,0-1.6,0-2.4,0c0-0.4,0-0.7,0-1.1c0.3,0,0.6,0,0.9,0c0.5,0,0.6-0.2,0.6-0.6
				c0-1.1,0-2.2,0-3.3c0-1,0-1.9,0-2.9c0-0.5-0.2-0.6-0.7-0.7c-0.3,0-0.6,0-0.8,0c0-0.4,0-0.7,0-1.1c0.8,0,1.6,0,2.3,0
				c0-0.6,0-1.2,0-1.8c0.4,0,0.8,0,1.2,0c0,0.6,0,1.2,0,1.8c0.4,0,0.7,0,1.1,0c0-0.6,0-1.2,0-1.8c0.4,0,0.8,0,1.2,0
				c0,0.6,0,1.2,0,1.8c0.4,0.1,0.9,0.1,1.3,0.2c0.3,0.1,0.7,0.2,1,0.4c0.8,0.4,1,1.2,1,2c-0.1,1-0.6,1.6-1.7,1.9
				C-365.1,298.3-365.2,298.3-365.3,298.3z M-368.8,302.5c0.8,0,1.6,0,2.4-0.1c0.8-0.1,1.3-0.5,1.4-1.3c0-0.2,0-0.5,0-0.7
				c-0.1-0.5-0.2-0.9-0.7-1.1c-0.2-0.1-0.5-0.2-0.7-0.2c-0.7,0-1.4-0.1-2.2-0.1c-0.2,0-0.2,0.1-0.2,0.2c0,1,0,2,0,3
				C-368.8,302.3-368.8,302.4-368.8,302.5z M-368.8,297.9c0.1,0,0.3,0,0.4,0c0.6,0,1.2,0,1.8-0.1c0.8-0.1,1.2-0.5,1.3-1.2
				c0.1-1-0.3-1.6-1.2-1.7c-0.7-0.1-1.5-0.1-2.2-0.1c0,0,0,0,0,0C-368.8,295.9-368.8,296.9-368.8,297.9z"/>
		</g>
		<g>
			<g>
				<g>
					<circle class="st1" cx="-308.3" cy="263.6" r="12.7"/>
				</g>
				<g>
					<polygon class="st3" points="-312.5,263.8 -308.2,256.5 -303.9,263.8 -308.2,266.3 					"/>
					<polygon class="st3" points="-312.7,264.5 -308.2,267 -303.9,264.5 -308.2,270.7 					"/>
				</g>
			</g>
		</g>
	</g>
	<g>
		<g>
			<g>
				<circle class="st1" cx="-308.3" cy="297.9" r="12.7"/>
			</g>
			<path class="st3" d="M-305.9,298.3c0.7,0.2,1.4,0.4,1.9,1c0.4,0.5,0.5,1,0.5,1.6c0,1-0.4,1.7-1.3,2.1c-0.3,0.1-0.6,0.2-0.9,0.3
				c-0.5,0.1-0.9,0.1-1.4,0.2c0,0.6,0,1.2,0,1.8c-0.4,0-0.8,0-1.2,0c0-0.6,0-1.2,0-1.8c-0.4,0-0.7,0-1.1,0c0,0.6,0,1.2,0,1.8
				c-0.4,0-0.8,0-1.2,0c0-0.6,0-1.2,0-1.8c-0.8,0-1.6,0-2.4,0c0-0.4,0-0.7,0-1.1c0.3,0,0.6,0,0.9,0c0.5,0,0.6-0.2,0.6-0.6
				c0-1.1,0-2.2,0-3.3c0-1,0-1.9,0-2.9c0-0.5-0.2-0.6-0.7-0.7c-0.3,0-0.6,0-0.8,0c0-0.4,0-0.7,0-1.1c0.8,0,1.6,0,2.3,0
				c0-0.6,0-1.2,0-1.8c0.4,0,0.8,0,1.2,0c0,0.6,0,1.2,0,1.8c0.4,0,0.7,0,1.1,0c0-0.6,0-1.2,0-1.8c0.4,0,0.8,0,1.2,0
				c0,0.6,0,1.2,0,1.8c0.4,0.1,0.9,0.1,1.3,0.2c0.3,0.1,0.7,0.2,1,0.4c0.8,0.4,1,1.2,1,2c-0.1,1-0.6,1.6-1.7,1.9
				C-305.7,298.3-305.8,298.3-305.9,298.3z M-309.5,302.5c0.8,0,1.6,0,2.4-0.1c0.8-0.1,1.3-0.5,1.4-1.3c0-0.2,0-0.5,0-0.7
				c-0.1-0.5-0.2-0.9-0.7-1.1c-0.2-0.1-0.5-0.2-0.7-0.2c-0.7,0-1.4-0.1-2.2-0.1c-0.2,0-0.2,0.1-0.2,0.2c0,1,0,2,0,3
				C-309.5,302.3-309.5,302.4-309.5,302.5z M-309.5,297.9c0.1,0,0.3,0,0.4,0c0.6,0,1.2,0,1.8-0.1c0.8-0.1,1.2-0.5,1.3-1.2
				c0.1-1-0.3-1.6-1.2-1.7c-0.7-0.1-1.5-0.1-2.2-0.1c0,0,0,0,0,0C-309.5,295.9-309.5,296.9-309.5,297.9z"/>
		</g>
		<g>
			<g>
				<g>
					<circle class="st1" cx="-367.7" cy="263.6" r="12.7"/>
				</g>
				<g>
					<polygon class="st3" points="-371.9,263.8 -367.6,256.5 -363.3,263.8 -367.6,266.3 					"/>
					<polygon class="st3" points="-372.1,264.5 -367.6,267 -363.3,264.5 -367.6,270.7 					"/>
				</g>
			</g>
		</g>
	</g>
	<path class="st3" d="M-335.2,268.4c-0.4,1.2-0.8,2.4-1.3,3.5l-0.3,0.9c-0.1,0.3-0.2,0.6-0.4,0.8c-0.3,0.5-0.7,1-1,1.5l-3.9,6
		l-0.8-1.7h10h1.7l-0.9,1.7l-3.8,6.5l-0.9,1.7c-0.1,0.3-0.3,0.6-0.5,0.8l-0.6,0.7c-0.8,1-1.7,1.9-2.6,2.8c0.4-1.2,0.8-2.4,1.2-3.6
		l0.3-0.9c0.1-0.3,0.2-0.6,0.4-0.8l0.9-1.6l3.8-6.6l0.9,1.3h-10h-1.8l1-1.4l3.9-6.1c0.3-0.5,0.7-1,1-1.5c0.1-0.3,0.3-0.5,0.5-0.7
		l0.6-0.7C-336.9,270.2-336.1,269.3-335.2,268.4"/>
</g>
</svg>
