<?xml version="1.0" encoding="utf-8"?>
<!-- Generator: Adobe Illustrator 19.0.1, SVG Export Plug-In . SVG Version: 6.00 Build 0)  -->
<svg version="1.0" id="Layer_1" xmlns="http://www.w3.org/2000/svg" xmlns:xlink="http://www.w3.org/1999/xlink" x="0px" y="0px"
	 viewBox="-246 336 262 130" enable-background="new -246 336 262 130" xml:space="preserve">
<g>
	<g>
		<g>
			<defs>
				<rect id="SVGID_1_" x="-245.5" y="336.3" width="261.1" height="129.4"/>
			</defs>
			<clipPath id="SVGID_2_">
				<use xlink:href="#SVGID_1_"  overflow="visible"/>
			</clipPath>
			<path clip-path="url(#SVGID_2_)" fill="none" stroke="#000000" stroke-width="1" stroke-miterlimit="10" d="M-217.9,411.1
				c0-0.4-0.4-0.8-1-0.9l-4-0.2c-0.6-0.1-1-0.1-1-0.1s-0.4,0-1,0h-3c-0.6,0-1,0-1,0s-0.4,0-1,0.1l-4,0.3c-0.6,0-1,0.4-1,0.9
				c0,0.4,0.4,0.8,1,0.8h4c0.6,0,1,0.4,1,1v3.8v2v6.2c0,0.5,0.4,1,1,1h0.5c0.6,0,1-0.5,1-1v-6c0-0.6,0-0.6,0,0v6c0,0.5,0.4,1,1,1
				h0.5c0.6,0,1-0.5,1-1v-6.2v-2v-3.8c0-0.6,0.4-1,1-1h4C-218.4,411.8-217.9,411.5-217.9,411.1z M-226.4,408.3
				c0.9,0,1.7-0.8,1.7-1.7c0-0.9-0.8-1.7-1.7-1.7s-1.7,0.8-1.7,1.7C-228.1,407.5-227.4,408.3-226.4,408.3z"/>
		</g>
		<g>
			<defs>
				<rect id="SVGID_3_" x="-245.5" y="336.3" width="261.1" height="129.4"/>
			</defs>
			<clipPath id="SVGID_4_">
				<use xlink:href="#SVGID_3_"  overflow="visible"/>
			</clipPath>
			<path clip-path="url(#SVGID_4_)" fill="none" stroke="#000000" stroke-width="1" stroke-miterlimit="10" d="M-170.4,411.1
				c0-0.4-0.4-0.8-1-0.9l-4-0.2c-0.6-0.1-1-0.1-1-0.1s-0.4,0-1,0h-3c-0.6,0-1,0-1,0s-0.4,0-1,0.1l-4,0.3c-0.6,0-1,0.4-1,0.9
				c0,0.4,0.4,0.8,1,0.8h4c0.6,0,1,0.4,1,1v3.8v2v6.2c0,0.5,0.4,1,1,1h0.5c0.6,0,1-0.5,1-1v-6c0-0.6,0-0.6,0,0v6c0,0.5,0.4,1,1,1
				h0.5c0.6,0,1-0.5,1-1v-6.2v-2v-3.8c0-0.6,0.4-1,1-1h4C-170.9,411.8-170.4,411.5-170.4,411.1z M-178.9,408.3
				c0.9,0,1.7-0.8,1.7-1.7c0-0.9-0.8-1.7-1.7-1.7s-1.7,0.8-1.7,1.7C-180.6,407.5-179.9,408.3-178.9,408.3z"/>
		</g>
		<g>
			<defs>
				<rect id="SVGID_5_" x="-245.5" y="336.3" width="261.1" height="129.4"/>
			</defs>
			<clipPath id="SVGID_6_">
				<use xlink:href="#SVGID_5_"  overflow="visible"/>
			</clipPath>
			<path clip-path="url(#SVGID_6_)" fill="none" stroke="#000000" stroke-width="1" stroke-miterlimit="10" d="M-67.4,420.3h8
				 M-67.4,409.8h8 M-61.2,423.4h-4.4c-1.1,0-2-0.9-2-2v-12.2c0-1.1,0.9-2,2-2h4.4c1.1,0,2,0.9,2,2v12.2
				C-59.2,422.5-60.1,423.4-61.2,423.4z M13,418.8c0,1.6-1.4,3-3,3s-3-1.4-3-3c0-1.7,1.4-3,3-3C11.7,415.9,13,417.2,13,418.8z
				 M-2.9,418.8c0,1.6-1.4,3-3,3s-3-1.4-3-3c0-1.7,1.4-3,3-3S-2.9,417.2-2.9,418.8z M-4.4,412.3c0-3.5,2.9-6.4,6.4-6.4
				s6.4,2.4,6.4,5.9 M13.8,411.3H8.3c0,0-2.9,2.8-6.4,2.8s-6.4-1.8-6.4-1.8l-6,0.5c-0.6,0-1,0.4-1,1l-0.5,4c0,0.5,0.4,1,1,1h2.1
				c0-1.7,1.4-3,3-3s3,1.3,3,3H7.1c0-1.7,1.4-3,3-3s3,1.3,3,3h1.1c0.5,0,0.9-0.5,0.9-1l-0.5-5.5C14.5,411.8,14.3,411.3,13.8,411.3z
				 M-22.9,423.4h-27v-17l13.5-10l13.5,10V423.4z M-194.4,411.1c0-0.4-0.5-0.8-1-0.9l-4-0.2c-0.6-0.1-1-0.1-1-0.1s-0.5,0-1,0h-3
				c-0.6,0-1,0-1,0s-0.4,0-1,0.1l-4,0.3c-0.6,0-1,0.4-1,0.9c0,0.4,0.4,0.8,1,0.8h4c0.6,0,1,0.4,1,1v3.8v2v6.2c0,0.5,0.4,1,1,1h0.5
				c0.6,0,1-0.5,1-1v-6c0-0.6,0-0.6,0,0v6c0,0.5,0.4,1,1,1h0.5c0.5,0,1-0.5,1-1v-6.2v-2v-3.8c0-0.6,0.4-1,1-1h4
				C-194.9,411.8-194.4,411.5-194.4,411.1z M-202.9,408.3c0.9,0,1.7-0.8,1.7-1.7c0-0.9-0.8-1.7-1.7-1.7s-1.7,0.8-1.7,1.7
				C-204.6,407.5-203.9,408.3-202.9,408.3z"/>
		</g>
		<g>
			<defs>
				<rect id="SVGID_7_" x="-245.5" y="336.3" width="261.1" height="129.4"/>
			</defs>
			<clipPath id="SVGID_8_">
				<use xlink:href="#SVGID_7_"  overflow="visible"/>
			</clipPath>
			<path clip-path="url(#SVGID_8_)" fill="#FFFFFF" d="M-62.6,421.9c0,0.4-0.4,0.9-0.9,0.9c-0.4,0-0.9-0.4-0.9-0.9
				c0-0.5,0.4-0.9,0.9-0.9S-62.6,421.4-62.6,421.9"/>
		</g>
		<g>
			<defs>
				<rect id="SVGID_9_" x="-245.5" y="336.3" width="261.1" height="129.4"/>
			</defs>
			<clipPath id="SVGID_10_">
				<use xlink:href="#SVGID_9_"  overflow="visible"/>
			</clipPath>
			
				<circle clip-path="url(#SVGID_10_)" fill="none" stroke="#000000" stroke-width="0.5" stroke-miterlimit="10" cx="-63.4" cy="421.9" r="0.8"/>
		</g>
		<g>
			<defs>
				<rect id="SVGID_11_" x="-245.5" y="336.3" width="261.1" height="129.4"/>
			</defs>
			<clipPath id="SVGID_12_">
				<use xlink:href="#SVGID_11_"  overflow="visible"/>
			</clipPath>
			
				<line clip-path="url(#SVGID_12_)" fill="none" stroke="#73C73B" stroke-width="1" stroke-miterlimit="10" stroke-dasharray="0.8,0.8" x1="-36.4" y1="386" x2="-36.4" y2="383.2"/>
		</g>
		<g>
			<defs>
				<rect id="SVGID_13_" x="-245.5" y="336.3" width="261.1" height="129.4"/>
			</defs>
			<clipPath id="SVGID_14_">
				<use xlink:href="#SVGID_13_"  overflow="visible"/>
			</clipPath>
			
				<path clip-path="url(#SVGID_14_)" fill="none" stroke="#73C73B" stroke-width="1" stroke-miterlimit="10" stroke-dasharray="0.7135,0.7135" d="
				M-36.8,381.2c-0.2-0.3-0.5-0.5-0.8-0.7"/>
		</g>
		<g>
			<defs>
				<rect id="SVGID_15_" x="-245.5" y="336.3" width="261.1" height="129.4"/>
			</defs>
			<clipPath id="SVGID_16_">
				<use xlink:href="#SVGID_15_"  overflow="visible"/>
			</clipPath>
			
				<line clip-path="url(#SVGID_16_)" fill="none" stroke="#73C73B" stroke-width="1" stroke-miterlimit="10" stroke-dasharray="0.86,0.86" x1="-39.8" y1="380.3" x2="-201" y2="380.3"/>
		</g>
		<g>
			<defs>
				<rect id="SVGID_17_" x="-245.5" y="336.3" width="261.1" height="129.4"/>
			</defs>
			<clipPath id="SVGID_18_">
				<use xlink:href="#SVGID_17_"  overflow="visible"/>
			</clipPath>
			
				<path clip-path="url(#SVGID_18_)" fill="none" stroke="#73C73B" stroke-width="1" stroke-miterlimit="10" stroke-dasharray="0.7135,0.7135" d="
				M-203.1,380.7c-0.3,0.2-0.6,0.5-0.7,0.8"/>
		</g>
		<g>
			<defs>
				<rect id="SVGID_19_" x="-245.5" y="336.3" width="261.1" height="129.4"/>
			</defs>
			<clipPath id="SVGID_20_">
				<use xlink:href="#SVGID_19_"  overflow="visible"/>
			</clipPath>
			
				<line clip-path="url(#SVGID_20_)" fill="none" stroke="#73C73B" stroke-width="1" stroke-miterlimit="10" stroke-dasharray="0.9,0.9" x1="-203.9" y1="383.7" x2="-203.9" y2="386.9"/>
		</g>
		<g>
			<defs>
				<rect id="SVGID_21_" x="-245.5" y="336.3" width="261.1" height="129.4"/>
			</defs>
			<clipPath id="SVGID_22_">
				<use xlink:href="#SVGID_21_"  overflow="visible"/>
			</clipPath>
			<path clip-path="url(#SVGID_22_)" fill="none" stroke="#73C73B" stroke-width="1" stroke-miterlimit="10" d="M-203.9,387.3v0.5
				 M-203.9,381.8c-0.1,0.1-0.1,0.3-0.1,0.5v0.5 M-201.4,380.3h-0.5c-0.2,0-0.4,0-0.5,0 M-37.9,380.4c-0.1,0-0.3,0-0.5,0h-0.5
				 M-36.4,382.8v-0.5c0-0.2,0-0.4-0.1-0.5 M-36.4,387.3v-0.5"/>
		</g>
	</g>
	<polygon fill="#73C73B" points="-34.4,385.6 -34.7,385.3 -36.4,387.1 -38.1,385.3 -38.5,385.6 -36.4,387.8 	"/>
	<g>
		<g>
			<defs>
				<rect id="SVGID_23_" x="-245.5" y="336.3" width="261.1" height="129.4"/>
			</defs>
			<clipPath id="SVGID_24_">
				<use xlink:href="#SVGID_23_"  overflow="visible"/>
			</clipPath>
			
				<line clip-path="url(#SVGID_24_)" fill="none" stroke="#3391D1" stroke-width="1" stroke-miterlimit="10" stroke-dasharray="0.9925,0.9925" x1="-104.4" y1="452.3" x2="-39.4" y2="452.3"/>
		</g>
		<g>
			<defs>
				<rect id="SVGID_25_" x="-245.5" y="336.3" width="261.1" height="129.4"/>
			</defs>
			<clipPath id="SVGID_26_">
				<use xlink:href="#SVGID_25_"  overflow="visible"/>
			</clipPath>
			
				<path clip-path="url(#SVGID_26_)" fill="none" stroke="#3391D1" stroke-width="1" stroke-miterlimit="10" stroke-dasharray="0.7135,0.7135" d="
				M-37.3,452c0.3-0.2,0.6-0.5,0.7-0.8"/>
		</g>
		<g>
			<defs>
				<rect id="SVGID_27_" x="-245.5" y="336.3" width="261.1" height="129.4"/>
			</defs>
			<clipPath id="SVGID_28_">
				<use xlink:href="#SVGID_27_"  overflow="visible"/>
			</clipPath>
			
				<line clip-path="url(#SVGID_28_)" fill="none" stroke="#3391D1" stroke-width="1" stroke-miterlimit="10" stroke-dasharray="1.05,1.05" x1="-36.4" y1="448.8" x2="-36.4" y2="430.4"/>
		</g>
		<g>
			<defs>
				<rect id="SVGID_29_" x="-245.5" y="336.3" width="261.1" height="129.4"/>
			</defs>
			<clipPath id="SVGID_30_">
				<use xlink:href="#SVGID_29_"  overflow="visible"/>
			</clipPath>
			<path clip-path="url(#SVGID_30_)" fill="none" stroke="#3391D1" stroke-width="1" stroke-miterlimit="10" d="M-36.4,429.9v-0.6
				 M-36.5,450.8c0.1-0.2,0.1-0.3,0.1-0.5v-0.6 M-38.9,452.3h0.5c0.1,0,0.4,0,0.5-0.1 M-105.9,452.3h0.5"/>
		</g>
		<g>
			<defs>
				<rect id="SVGID_31_" x="-245.5" y="336.3" width="261.1" height="129.4"/>
			</defs>
			<clipPath id="SVGID_32_">
				<use xlink:href="#SVGID_31_"  overflow="visible"/>
			</clipPath>
			
				<line clip-path="url(#SVGID_32_)" fill="none" stroke="#3391D1" stroke-width="1" stroke-miterlimit="10" stroke-dasharray="0.8465,0.8465" x1="-137.3" y1="452.3" x2="-199.5" y2="452.3"/>
		</g>
		<g>
			<defs>
				<rect id="SVGID_33_" x="-245.5" y="336.3" width="261.1" height="129.4"/>
			</defs>
			<clipPath id="SVGID_34_">
				<use xlink:href="#SVGID_33_"  overflow="visible"/>
			</clipPath>
			
				<path clip-path="url(#SVGID_34_)" fill="none" stroke="#3391D1" stroke-width="1" stroke-miterlimit="10" stroke-dasharray="0.7135,0.7135" d="
				M-201.6,452c-0.3-0.2-0.5-0.5-0.7-0.8"/>
		</g>
		<g>
			<defs>
				<rect id="SVGID_35_" x="-245.5" y="336.3" width="261.1" height="129.4"/>
			</defs>
			<clipPath id="SVGID_36_">
				<use xlink:href="#SVGID_35_"  overflow="visible"/>
			</clipPath>
			
				<line clip-path="url(#SVGID_36_)" fill="none" stroke="#3391D1" stroke-width="1" stroke-miterlimit="10" stroke-dasharray="0.853,0.853" x1="-202.4" y1="449" x2="-202.4" y2="435.8"/>
		</g>
		<g>
			<defs>
				<rect id="SVGID_37_" x="-245.5" y="336.3" width="261.1" height="129.4"/>
			</defs>
			<clipPath id="SVGID_38_">
				<use xlink:href="#SVGID_37_"  overflow="visible"/>
			</clipPath>
			<path clip-path="url(#SVGID_38_)" fill="none" stroke="#3391D1" stroke-width="1" stroke-miterlimit="10" d="M-202.4,435.3v-0.5
				 M-202.4,450.8c-0.1-0.2-0.1-0.3-0.1-0.5v-0.5 M-199.9,452.3h-0.5c-0.2,0-0.4,0-0.5-0.1 M-135.9,452.3h-0.5"/>
		</g>
	</g>
	<polygon fill="#3391D1" points="-200.4,436.5 -200.7,436.9 -202.4,435.1 -204.1,436.9 -204.5,436.5 -202.4,434.3 	"/>
	<line fill="none" stroke="#73C73B" stroke-width="1" stroke-miterlimit="10" x1="-163.4" y1="418.3" x2="-151.9" y2="418.3"/>
	<polygon fill="#73C73B" points="-152.4,420.4 -148.8,418.3 -152.4,416.2 	"/>
	<line fill="none" stroke="#73C73B" stroke-width="1" stroke-miterlimit="10" x1="-91.4" y1="418.3" x2="-79.4" y2="418.3"/>
	<polygon fill="#73C73B" points="-79.9,420.5 -76.2,418.3 -79.9,416.2 	"/>
	<g>
		<g>
			<defs>
				<rect id="SVGID_39_" x="-245.5" y="336.3" width="261.1" height="129.4"/>
			</defs>
			<clipPath id="SVGID_40_">
				<use xlink:href="#SVGID_39_"  overflow="visible"/>
			</clipPath>
			<path clip-path="url(#SVGID_40_)" fill="none" stroke="#000000" stroke-width="1" stroke-miterlimit="10" d="M-131.6,371.7
				c0.7-0.8,1.4-0.1,2.2-1c0.7-0.8-0.1-1.4,0.6-2.2c0.7-0.8,1.4-0.1,2.2-0.9c0.7-0.8-0.1-1.5,0.6-2.2c0.7-0.8,1.4-0.2,2.2-1
				 M-117.8,346.6c0.7-0.8,1.4-0.1,2.1-1c0.7-0.8-0.1-1.4,0.6-2.2c0.7-0.8,1.4-0.1,2.1-0.9c0.7-0.8-0.1-1.5,0.6-2.2
				c0.7-0.8,1.4-0.2,2.1-1 M-137.2,344.7c0.8,0.7,0.1,1.5,0.9,2.1c0.8,0.7,1.4,0,2.2,0.6c0.8,0.7,0.1,1.5,0.9,2.1
				c0.8,0.7,1.4,0,2.2,0.6c0.8,0.7,0.1,1.5,0.9,2.1 M-112.1,358.6c0.8,0.7,0.1,1.5,0.9,2.1c0.8,0.7,1.4,0,2.2,0.6
				c0.8,0.7,0.1,1.5,0.9,2.1c0.8,0.7,1.4,0,2.2,0.6c0.8,0.7,0.1,1.5,0.9,2.1 M-124.9,336.3c0.1,1-0.9,1.1-0.8,2.2
				c0.1,1.1,1.1,1,1.2,2.1c0.1,1-0.9,1.1-0.8,2.2c0.1,1.1,1.1,1,1.2,2.1c0.1,1-0.9,1.1-0.8,2.2 M-116.9,363.9
				c0.1,1.1-0.9,1.2-0.9,2.2c0.1,1,1.1,1,1.1,2.1c0.1,1-0.9,1.1-0.9,2.2c0.1,1.1,1.1,1,1.1,2.1c0.1,1-0.9,1.1-0.9,2.2 M-140,359.4
				c1.1-0.1,1.1,0.9,2.2,0.9c1,0,1-1.1,2.1-1.1c1.1-0.1,1.1,0.9,2.2,0.9c1.1-0.1,1-1.1,2.1-1.1c1.1-0.1,1.1,0.9,2.2,0.9
				 M-112.4,351.4c1.1-0.1,1.1,0.9,2.2,0.8c1.1,0,1-1.1,2.1-1.1c1.1-0.1,1.1,0.9,2.2,0.9c1.1-0.1,1-1.1,2.1-1.1
				c1.1-0.1,1.1,0.9,2.2,0.9 M-114.2,355.4c0,3.7-2.9,6.6-6.6,6.6s-6.6-2.9-6.6-6.6c0-3.6,2.9-6.6,6.6-6.6S-114.2,351.8-114.2,355.4
				z"/>
		</g>
	</g>
	<g>
		<g>
			<defs>
				<path id="SVGID_41_" d="M-133.9,452.6c0,7.2,5.8,13,13,13c7.2,0,13-5.8,13-13c0-7.2-5.8-13-13-13
					C-128,439.6-133.9,445.4-133.9,452.6"/>
			</defs>
			<clipPath id="SVGID_42_">
				<use xlink:href="#SVGID_41_"  overflow="visible"/>
			</clipPath>
			<path clip-path="url(#SVGID_42_)" d="M-124.3,445.5c0,1-0.8,1.8-1.8,1.8s-1.8-0.8-1.8-1.8c0-0.9,0.8-1.8,1.8-1.8
				C-125.1,443.8-124.3,444.6-124.3,445.5"/>
		</g>
		<g>
			<defs>
				<path id="SVGID_43_" d="M-133.9,452.6c0,7.2,5.8,13,13,13c7.2,0,13-5.8,13-13c0-7.2-5.8-13-13-13
					C-128,439.6-133.9,445.4-133.9,452.6"/>
			</defs>
			<clipPath id="SVGID_44_">
				<use xlink:href="#SVGID_43_"  overflow="visible"/>
			</clipPath>
			<path clip-path="url(#SVGID_44_)" d="M-120,461.2c0,0.9-0.8,1.8-1.8,1.8s-1.8-0.8-1.8-1.8c0-1,0.8-1.8,1.8-1.8
				S-120,460.3-120,461.2"/>
		</g>
		<g>
			<defs>
				<path id="SVGID_45_" d="M-133.9,452.6c0,7.2,5.8,13,13,13c7.2,0,13-5.8,13-13c0-7.2-5.8-13-13-13
					C-128,439.6-133.9,445.4-133.9,452.6"/>
			</defs>
			<clipPath id="SVGID_46_">
				<use xlink:href="#SVGID_45_"  overflow="visible"/>
			</clipPath>
			<path clip-path="url(#SVGID_46_)" d="M-116,447.1c0,0.5-0.4,0.9-0.9,0.9s-0.9-0.4-0.9-0.9s0.4-0.9,0.9-0.9
				C-116.4,446.3-116,446.7-116,447.1"/>
		</g>
		<g>
			<defs>
				<path id="SVGID_47_" d="M-133.9,452.6c0,7.2,5.8,13,13,13c7.2,0,13-5.8,13-13c0-7.2-5.8-13-13-13
					C-128,439.6-133.9,445.4-133.9,452.6"/>
			</defs>
			<clipPath id="SVGID_48_">
				<use xlink:href="#SVGID_47_"  overflow="visible"/>
			</clipPath>
			<path clip-path="url(#SVGID_48_)" d="M-120.9,454.2c0,0.5-0.4,0.9-0.9,0.9s-0.9-0.4-0.9-0.9s0.4-0.9,0.9-0.9
				C-121.2,453.3-120.9,453.7-120.9,454.2"/>
		</g>
		<g>
			<defs>
				<path id="SVGID_49_" d="M-133.9,452.6c0,7.2,5.8,13,13,13c7.2,0,13-5.8,13-13c0-7.2-5.8-13-13-13
					C-128,439.6-133.9,445.4-133.9,452.6"/>
			</defs>
			<clipPath id="SVGID_50_">
				<use xlink:href="#SVGID_49_"  overflow="visible"/>
			</clipPath>
			<path clip-path="url(#SVGID_50_)" d="M-109.5,455.3c0,0.5-0.4,0.9-0.9,0.9s-0.9-0.4-0.9-0.9s0.4-0.9,0.9-0.9
				S-109.5,454.8-109.5,455.3"/>
		</g>
		<g>
			<defs>
				<path id="SVGID_51_" d="M-133.9,452.6c0,7.2,5.8,13,13,13c7.2,0,13-5.8,13-13c0-7.2-5.8-13-13-13
					C-128,439.6-133.9,445.4-133.9,452.6"/>
			</defs>
			<clipPath id="SVGID_52_">
				<use xlink:href="#SVGID_51_"  overflow="visible"/>
			</clipPath>
			<path clip-path="url(#SVGID_52_)" d="M-109.5,460.7c0,0.5-0.4,0.9-0.9,0.9s-0.9-0.4-0.9-0.9s0.4-0.9,0.9-0.9
				C-109.9,459.8-109.5,460.2-109.5,460.7"/>
		</g>
		<g>
			<defs>
				<path id="SVGID_53_" d="M-133.9,452.6c0,7.2,5.8,13,13,13c7.2,0,13-5.8,13-13c0-7.2-5.8-13-13-13
					C-128,439.6-133.9,445.4-133.9,452.6"/>
			</defs>
			<clipPath id="SVGID_54_">
				<use xlink:href="#SVGID_53_"  overflow="visible"/>
			</clipPath>
			<path clip-path="url(#SVGID_54_)" d="M-131.7,461.8c0,0.5-0.4,0.9-0.9,0.9s-0.9-0.4-0.9-0.9s0.4-0.9,0.9-0.9
				S-131.7,461.3-131.7,461.8"/>
		</g>
		<g>
			<defs>
				<path id="SVGID_55_" d="M-133.9,452.6c0,7.2,5.8,13,13,13c7.2,0,13-5.8,13-13c0-7.2-5.8-13-13-13
					C-128,439.6-133.9,445.4-133.9,452.6"/>
			</defs>
			<clipPath id="SVGID_56_">
				<use xlink:href="#SVGID_55_"  overflow="visible"/>
			</clipPath>
			<path clip-path="url(#SVGID_56_)" fill="none" stroke="#000000" stroke-width="0.439" stroke-miterlimit="10" d="M-121.7,454.2
				l11.4,6.6 M-110.4,454.8l-11.3-0.7 M-105.5,442.8l-4.9,12.3 M-105.5,442.8l-5.1-8.5 M-121.7,454.2l4.9-7 M-105.5,442.8
				l-16.2,11.3 M-116.9,447.1l11.4-4.4 M-126.1,445.5l9.2,1.6 M-105.5,442.8l-20.6,2.7 M-121.7,434.7l16.2,8.1 M-125.7,445.4
				l3.5-10.2 M-132.8,435.2l6.3,9.8 M-137.2,440.5l4.5-5.2"/>
		</g>
		<g>
			<defs>
				<path id="SVGID_57_" d="M-133.9,452.6c0,7.2,5.8,13,13,13c7.2,0,13-5.8,13-13c0-7.2-5.8-13-13-13
					C-128,439.6-133.9,445.4-133.9,452.6"/>
			</defs>
			<clipPath id="SVGID_58_">
				<use xlink:href="#SVGID_57_"  overflow="visible"/>
			</clipPath>
			
				<line clip-path="url(#SVGID_58_)" fill="none" stroke="#000000" stroke-width="0.5" stroke-miterlimit="10" x1="-110.7" y1="460.8" x2="-110.7" y2="454.8"/>
		</g>
		<g>
			<defs>
				<path id="SVGID_59_" d="M-133.9,452.6c0,7.2,5.8,13,13,13c7.2,0,13-5.8,13-13c0-7.2-5.8-13-13-13
					C-128,439.6-133.9,445.4-133.9,452.6"/>
			</defs>
			<clipPath id="SVGID_60_">
				<use xlink:href="#SVGID_59_"  overflow="visible"/>
			</clipPath>
			<path clip-path="url(#SVGID_60_)" fill="none" stroke="#000000" stroke-width="0.439" stroke-miterlimit="10" d="M-105.6,469.1
				l-16.1-7.8 M-105.5,469.3l-4.9-8.6 M-110.4,455.3l8.8,6"/>
		</g>
		<g>
			<defs>
				<path id="SVGID_61_" d="M-133.9,452.6c0,7.2,5.8,13,13,13c7.2,0,13-5.8,13-13c0-7.2-5.8-13-13-13
					C-128,439.6-133.9,445.4-133.9,452.6"/>
			</defs>
			<clipPath id="SVGID_62_">
				<use xlink:href="#SVGID_61_"  overflow="visible"/>
			</clipPath>
			
				<line clip-path="url(#SVGID_62_)" fill="none" stroke="#000000" stroke-width="0.5" stroke-miterlimit="10" x1="-122.2" y1="461.8" x2="-122.2" y2="454.3"/>
		</g>
		<g>
			<defs>
				<path id="SVGID_63_" d="M-133.9,452.6c0,7.2,5.8,13,13,13c7.2,0,13-5.8,13-13c0-7.2-5.8-13-13-13
					C-128,439.6-133.9,445.4-133.9,452.6"/>
			</defs>
			<clipPath id="SVGID_64_">
				<use xlink:href="#SVGID_63_"  overflow="visible"/>
			</clipPath>
			<path clip-path="url(#SVGID_64_)" fill="none" stroke="#000000" stroke-width="0.439" stroke-miterlimit="10" d="M-121.7,461.2
				l11.4-0.1 M-132.8,461.7l11-0.4 M-126.1,472.1l4.2-10.8 M-132.6,461.8l6.5,10.3 M-132.6,461.8l-8.1-7 M-137.4,467.2l4.6-5.5
				 M-137.4,440.7l11.3,4.9 M-136.4,445l10.3,0.5 M-126.1,445.5l-14.6,9.2 M-126.1,445.5l4.2,8.6 M-132.8,461.7l6.7-16.1
				 M-121.7,454.3l-11,7.4"/>
		</g>
		<g>
			<defs>
				<path id="SVGID_65_" d="M-133.9,452.6c0,7.2,5.8,13,13,13c7.2,0,13-5.8,13-13c0-7.2-5.8-13-13-13
					C-128,439.6-133.9,445.4-133.9,452.6"/>
			</defs>
			<clipPath id="SVGID_66_">
				<use xlink:href="#SVGID_65_"  overflow="visible"/>
			</clipPath>
			
				<line clip-path="url(#SVGID_66_)" fill="none" stroke="#000000" stroke-width="0.5" stroke-miterlimit="10" x1="-110.9" y1="461.6" x2="-102.4" y2="461.6"/>
		</g>
		<g>
			<defs>
				<path id="SVGID_67_" d="M-133.9,452.6c0,7.2,5.8,13,13,13c7.2,0,13-5.8,13-13c0-7.2-5.8-13-13-13
					C-128,439.6-133.9,445.4-133.9,452.6"/>
			</defs>
			<clipPath id="SVGID_68_">
				<use xlink:href="#SVGID_67_"  overflow="visible"/>
			</clipPath>
			<path clip-path="url(#SVGID_68_)" fill="none" stroke="#000000" stroke-width="0.439" stroke-miterlimit="10" d="M-116.9,471
				l-4.8-9.8 M-137.2,467.2l11.2,4.9"/>
		</g>
	</g>
	<g>
		<g>
			<defs>
				<rect id="SVGID_69_" x="-245.5" y="336.3" width="261.1" height="129.4"/>
			</defs>
			<clipPath id="SVGID_70_">
				<use xlink:href="#SVGID_69_"  overflow="visible"/>
			</clipPath>
			
				<circle clip-path="url(#SVGID_70_)" fill="none" stroke="#000000" stroke-width="1" stroke-miterlimit="10" cx="-120.8" cy="452.6" r="12.6"/>
		</g>
		<g>
			<defs>
				<rect id="SVGID_71_" x="-245.5" y="336.3" width="261.1" height="129.4"/>
			</defs>
			<clipPath id="SVGID_72_">
				<use xlink:href="#SVGID_71_"  overflow="visible"/>
			</clipPath>
			
				<path clip-path="url(#SVGID_72_)" fill="none" stroke="#000000" stroke-width="1" stroke-linecap="round" stroke-linejoin="round" stroke-miterlimit="10" d="
				M-176.2,397.9c0-2.6,3.1-4.9,7-4.9c3.8,0,7,2.1,7,4.9c0,2.6-3.2,4.9-7,4.9c-0.6,0-1.2-0.1-1.7-0.2c-0.8,0.8-1.9,1.9-3.7,2.2
				c0,0,1.1-1.5,1.5-2.9C-175,401.1-176.2,399.6-176.2,397.9z M-206.2,398.1c0-2.2-2.6-4-5.8-4s-5.9,1.8-5.9,4c0,2.2,2.6,4,5.9,4
				c0.5,0,0.9-0.1,1.4-0.1c0.6,0.7,1.7,1.5,3.1,1.9c0,0-0.9-1.3-1.2-2.4C-207.3,400.7-206.2,399.5-206.2,398.1z M-227.9,395.5
				c0-3.2-3.9-5.9-8.6-5.9s-8.6,2.6-8.6,5.9s3.9,5.9,8.6,5.9c0.7,0,1.4-0.1,2.1-0.2c0.9,1,2.4,2.2,4.4,2.8c0,0-1.3-1.9-1.9-3.5
				C-229.5,399.4-227.9,397.5-227.9,395.5z"/>
		</g>
		<g>
			<defs>
				<rect id="SVGID_73_" x="-245.5" y="336.3" width="261.1" height="129.4"/>
			</defs>
			<clipPath id="SVGID_74_">
				<use xlink:href="#SVGID_73_"  overflow="visible"/>
			</clipPath>
			<path clip-path="url(#SVGID_74_)" d="M-119.2,386.9c-0.2,0.6-0.4,1.2-0.7,1.8l-0.2,0.5c-0.1,0.1-0.1,0.3-0.2,0.4
				c-0.2,0.2-0.3,0.5-0.5,0.8l-1.9,3l-0.4-0.9h5h0.8l-0.4,0.9l-1.9,3.2l-0.4,0.9c-0.1,0.1-0.2,0.3-0.2,0.4l-0.3,0.4
				c-0.4,0.5-0.8,0.9-1.3,1.4c0.2-0.6,0.4-1.2,0.6-1.8l0.2-0.4c0.1-0.1,0.1-0.3,0.2-0.4l0.4-0.8l1.9-3.3l0.4,0.6h-5h-0.9l0.5-0.7
				l1.9-3c0.2-0.2,0.3-0.5,0.5-0.8c0.1-0.1,0.2-0.2,0.2-0.4l0.3-0.3C-120.1,387.7-119.7,387.3-119.2,386.9"/>
		</g>
	</g>
	<line fill="none" stroke="#000000" stroke-width="1" stroke-miterlimit="10" x1="-231.9" y1="430.3" x2="-171.4" y2="430.3"/>
	<path fill="none" stroke="#000000" stroke-width="0.5" stroke-miterlimit="10" d="M-115.7,408.8v10 M-110.7,408.8v10 M-105.7,408.8
		v10 M-120.9,411.1h20 M-120.9,413.6h20 M-120.9,416.1h20 M-135.7,408.8v10 M-130.7,408.8v10 M-125.7,408.8v10 M-140.9,411.1h20
		 M-140.9,413.6h20 M-140.9,416.1h20 M-115.7,418.8v10 M-110.7,418.8v10 M-105.7,418.8v10 M-120.9,421.1h20 M-120.9,423.6h20
		 M-120.9,426.1h20 M-135.7,418.8v10 M-130.7,418.8v10 M-125.7,418.8v10 M-140.9,421.1h20 M-140.9,423.6h20 M-140.9,426.1h20"/>
	<rect x="-140.9" y="408.5" fill="none" stroke="#000000" stroke-width="1.0115" stroke-miterlimit="10" width="40" height="20.2"/>
	<path fill="none" stroke="#000000" stroke-width="0.5" stroke-miterlimit="10" d="M-120.7,408.3v20.5 M-141.4,418.6h40.5"/>
	<path fill="none" stroke="#000000" stroke-width="1.024" stroke-miterlimit="10" d="M-28.7,412.6h-5v-5h5V412.6z M-38.7,412.6h-5
		v-5h5V412.6z"/>
</g>
</svg>
