<?xml version="1.0" encoding="utf-8"?>
<!-- Generator: Adobe Illustrator 19.0.0, SVG Export Plug-In . SVG Version: 6.00 Build 0)  -->
<svg version="1.1" id="Layer_1" xmlns="http://www.w3.org/2000/svg" xmlns:xlink="http://www.w3.org/1999/xlink" x="0px" y="0px"
	 width="223.9px" height="18px" viewBox="-367 272 223.9 18" style="enable-background:new -367 272 223.9 18;"
	 xml:space="preserve">
<style type="text/css">
	.st0{clip-path:url(#SVGID_2_);fill:#010101;}
	.st1{clip-path:url(#SVGID_2_);fill:#1096D4;}
	.st2{fill:#1096D4;}
	.st3{clip-path:url(#SVGID_4_);fill:#1096D4;}
	.st4{clip-path:url(#SVGID_6_);fill:#010101;}
	.st5{clip-path:url(#SVGID_6_);fill:#1096D4;}
</style>
<g>
	<g>
		<defs>
			<rect id="SVGID_1_" x="-365.5" y="272" width="220.9" height="18"/>
		</defs>
		<clipPath id="SVGID_2_">
			<use xlink:href="#SVGID_1_"  style="overflow:visible;"/>
		</clipPath>
		<path class="st0" d="M-354.8,284.6c0,1.7-0.6,3-1.7,3.9c-1.2,0.9-2.7,1.4-4.8,1.4c-1.7,0-3.1-0.3-4.2-0.9v-2.7
			c1.4,0.8,2.8,1.2,4.2,1.2c1.1,0,2-0.2,2.6-0.7c0.6-0.5,0.9-1.1,0.9-1.9c0-0.5-0.2-1-0.5-1.5c-0.3-0.4-1-1-2.1-1.6
			c-0.8-0.5-1.5-1-1.9-1.5c-0.4-0.4-0.7-0.9-0.9-1.4c-0.2-0.5-0.3-1.1-0.3-1.7c0-1,0.2-1.9,0.7-2.7c0.5-0.8,1.2-1.4,2.1-1.8
			c0.9-0.4,1.9-0.6,3-0.6c1.6,0,3.2,0.4,4.6,1.1l-1,2.3c-1.3-0.6-2.5-0.9-3.5-0.9c-0.9,0-1.6,0.2-2.1,0.7c-0.5,0.5-0.8,1.1-0.8,1.8
			c0,0.4,0.1,0.7,0.2,1c0.1,0.3,0.3,0.5,0.6,0.8c0.3,0.2,0.8,0.6,1.6,1.1c1.2,0.8,2.1,1.5,2.6,2.2
			C-355.1,282.9-354.8,283.7-354.8,284.6"/>
		<path class="st0" d="M-332.4,272.3l-2.4,11.4c-0.4,2.1-1.3,3.7-2.5,4.7c-1.2,1-2.8,1.5-4.8,1.5c-1.7,0-3.1-0.4-4-1.3
			c-0.9-0.8-1.4-2.1-1.4-3.6c0-0.7,0.1-1.3,0.2-2l2.3-10.8h2.8l-2.3,10.8c-0.2,0.7-0.3,1.3-0.3,1.9c0,0.8,0.2,1.4,0.7,1.9
			c0.5,0.5,1.2,0.7,2.2,0.7c1.2,0,2.1-0.3,2.8-1c0.7-0.6,1.2-1.7,1.5-3.1l2.4-11.2H-332.4z"/>
		<path class="st1" d="M-290.8,274.5c-1.2,0-2.3,0.4-3.3,1.1c-1,0.7-1.7,1.7-2.3,3.1c-0.6,1.4-0.9,2.9-0.9,4.5c0,1.4,0.3,2.5,1,3.3
			c0.7,0.8,1.6,1.1,2.9,1.1c1.1,0,2.4-0.3,3.9-0.8v2.5c-1.4,0.5-2.9,0.8-4.5,0.8c-2,0-3.5-0.6-4.6-1.8c-1.1-1.2-1.7-2.8-1.7-5
			c0-2.1,0.4-4,1.3-5.8c0.8-1.8,2-3.1,3.4-4.1c1.4-0.9,3-1.4,4.8-1.4c1.7,0,3.3,0.4,4.7,1.1l-1.1,2.3c-0.5-0.3-1-0.5-1.6-0.7
			C-289.4,274.6-290,274.5-290.8,274.5"/>
		<path class="st1" d="M-272.8,274.5c-1.1,0-2.1,0.4-3,1.1c-0.9,0.8-1.6,1.8-2.1,3.2c-0.5,1.4-0.8,2.8-0.8,4.5c0,1.4,0.3,2.4,1,3.2
			c0.6,0.8,1.6,1.1,2.7,1.1c1.1,0,2.1-0.4,3-1.1c0.9-0.8,1.6-1.8,2.1-3.2c0.5-1.4,0.7-2.8,0.7-4.5c0-1.4-0.3-2.4-0.9-3.2
			C-270.8,274.8-271.7,274.5-272.8,274.5 M-266.2,278.7c0,2.2-0.4,4.2-1.1,5.9c-0.8,1.7-1.8,3.1-3.1,4c-1.3,0.9-2.9,1.4-4.6,1.4
			c-2.1,0-3.7-0.6-4.8-1.8c-1.1-1.2-1.7-2.8-1.7-4.9c0-2.1,0.4-4.1,1.2-5.8s1.9-3.1,3.2-4c1.4-0.9,2.9-1.4,4.6-1.4
			c2,0,3.6,0.6,4.7,1.8C-266.8,275-266.2,276.6-266.2,278.7"/>
	</g>
	<polygon class="st2" points="-231.3,272.3 -231.8,274.7 -227.3,274.7 -230.5,289.8 -227.6,289.8 -224.4,274.7 -219.9,274.7 
		-219.4,272.3 	"/>
	<g>
		<defs>
			<rect id="SVGID_3_" x="-365.5" y="272" width="220.9" height="18"/>
		</defs>
		<clipPath id="SVGID_4_">
			<use xlink:href="#SVGID_3_"  style="overflow:visible;"/>
		</clipPath>
		<path class="st3" d="M-210.8,280.4h1.5c1.4,0,2.4-0.3,3-0.9c0.7-0.6,1-1.4,1-2.5c0-0.8-0.2-1.4-0.7-1.8c-0.5-0.4-1.2-0.6-2.2-0.6
			h-1.4L-210.8,280.4z M-211.3,282.8l-1.5,7h-2.8l3.7-17.5h4c1.8,0,3.1,0.4,4.1,1.1c0.9,0.8,1.4,1.9,1.4,3.5c0,1.3-0.3,2.4-1,3.3
			c-0.7,0.9-1.7,1.6-3.1,2l3,7.6h-3.1l-2.5-7H-211.3z"/>
		<path class="st3" d="M-187.4,282.4c-0.3-3.3-0.5-5.3-0.5-6c0-0.7-0.1-1.3-0.1-1.7c-0.4,1.1-1,2.3-1.7,3.7l-2.1,4H-187.4z
			 M-187.2,284.9h-5.8l-2.5,4.9h-3l9.4-17.5h3.3l2,17.5h-2.8L-187.2,284.9z"/>
		<path class="st3" d="M-167.7,274.5c-1.2,0-2.3,0.4-3.3,1.1c-1,0.7-1.7,1.7-2.3,3.1c-0.6,1.4-0.9,2.9-0.9,4.5c0,1.4,0.3,2.5,1,3.3
			c0.7,0.8,1.6,1.1,2.9,1.1c1.1,0,2.4-0.3,3.9-0.8v2.5c-1.4,0.5-2.9,0.8-4.5,0.8c-2,0-3.5-0.6-4.6-1.8c-1.1-1.2-1.7-2.8-1.7-5
			c0-2.1,0.4-4,1.3-5.8c0.8-1.8,2-3.1,3.4-4.1c1.4-0.9,3-1.4,4.8-1.4c1.7,0,3.3,0.4,4.7,1.1l-1.1,2.3c-0.5-0.3-1-0.5-1.6-0.7
			C-166.3,274.6-167,274.5-167.7,274.5"/>
	</g>
	<polygon class="st2" points="-156.5,272.3 -157.1,274.7 -152.6,274.7 -155.7,289.8 -152.9,289.8 -149.7,274.7 -145.1,274.7 
		-144.6,272.3 	"/>
	<g>
		<defs>
			<rect id="SVGID_5_" x="-365.5" y="272" width="220.9" height="18"/>
		</defs>
		<clipPath id="SVGID_6_">
			<use xlink:href="#SVGID_5_"  style="overflow:visible;"/>
		</clipPath>
		<path class="st4" d="M-305.3,274.5h-0.2c-0.4,0-0.8,0.1-1,0.4c-0.2,0.3-0.5,0.9-0.8,1.7c-0.3,0.9-0.6,2.4-1.1,4.5l-0.1,0.6
			c-0.4,1.7-0.7,3-1.1,4c-0.3,1-0.8,1.9-1.4,2.6c-0.6,0.7-1.3,1.1-2.2,1.1c-0.9,0-1.7-0.4-2.2-1.1c-0.6-0.7-1.1-1.6-1.4-2.7
			c-0.3-1.1-0.7-2.4-1.1-4.1l-0.1-0.5c-0.5-2.1-0.9-3.5-1.1-4.4c-0.2-0.8-0.4-1.4-0.6-1.7c-0.2-0.3-0.3-0.4-0.5-0.4
			c-0.2,0-0.3,0.2-0.5,0.5c-0.2,0.3-0.4,1-0.6,1.8c-0.2,0.9-0.6,2.2-1,4l-0.1,0.6c-0.4,1.7-0.8,3.1-1.1,4.1c-0.3,1-0.8,1.9-1.4,2.7
			c-0.6,0.7-1.3,1.1-2.3,1.1h-1.6l0.6-2.4h0.2c0.4,0,0.8-0.2,1-0.4c0.2-0.3,0.5-0.9,0.8-1.7c0.3-0.9,0.6-2.4,1.1-4.5
			c0.1-0.3,0.1-0.4,0.1-0.6c0.4-1.7,0.7-3,1.1-4.1c0.3-1,0.8-1.9,1.4-2.6c0.6-0.7,1.3-1.1,2.2-1.1c0.9,0,1.7,0.4,2.3,1.1
			c0.6,0.7,1.1,1.6,1.4,2.7c0.3,1.1,0.7,2.4,1.1,4.1l0.1,0.5c0.5,2,0.8,3.5,1.1,4.3c0.2,0.8,0.4,1.4,0.6,1.7
			c0.2,0.3,0.3,0.4,0.5,0.4c0.2,0,0.3-0.2,0.5-0.5c0.2-0.3,0.4-1,0.6-1.8c0.2-0.9,0.6-2.2,1-4c0.1-0.3,0.1-0.4,0.1-0.6
			c0.4-1.7,0.8-3.1,1.1-4.1c0.3-1,0.8-1.9,1.4-2.7c0.6-0.7,1.4-1.1,2.3-1.1h1.6L-305.3,274.5z"/>
		<path class="st5" d="M-237.4,274.5h-0.2c-0.4,0-0.7,0.1-1,0.4c-0.2,0.2-0.5,0.7-0.7,1.5c-0.2,0.8-0.6,2-1,3.8l0.6-0.4h2.6l-0.5,2
			h-3.1c-0.4,1.7-0.7,3-1.1,4c-0.3,1-0.8,1.9-1.4,2.6c-0.6,0.7-1.3,1.1-2.2,1.1c-0.9,0-1.7-0.4-2.3-1.1c-0.6-0.7-1-1.6-1.3-2.7
			c-0.3-1.1-0.7-2.4-1.1-4.1l-0.1-0.5c-0.5-2.1-0.9-3.5-1.1-4.4c-0.2-0.8-0.4-1.4-0.6-1.7c-0.2-0.3-0.3-0.4-0.5-0.4
			c-0.2,0-0.3,0.2-0.5,0.5c-0.2,0.3-0.4,1-0.6,1.8c-0.2,0.9-0.6,2.2-1,4l-0.1,0.6c-0.4,1.7-0.8,3.1-1.1,4.1c-0.3,1-0.8,1.9-1.4,2.7
			c-0.6,0.7-1.3,1.1-2.3,1.1h-1.6l0.6-2.4h0.2c0.4,0,0.7-0.1,1-0.4c0.2-0.2,0.5-0.7,0.7-1.5c0.2-0.7,0.5-1.8,0.9-3.4
			c0-0.1,0.1-0.2,0.1-0.4l-0.6,0.4h-2.6l0.5-2h3.1c0.4-1.7,0.7-3,1.1-4c0.3-1,0.8-1.9,1.4-2.6s1.3-1.1,2.2-1.1
			c0.9,0,1.7,0.4,2.3,1.1c0.6,0.7,1,1.6,1.3,2.7c0.3,1.1,0.7,2.4,1.1,4.1l0.1,0.5c0.5,2,0.8,3.5,1.1,4.3c0.2,0.9,0.4,1.4,0.6,1.7
			c0.2,0.3,0.3,0.4,0.5,0.4c0.2,0,0.3-0.2,0.5-0.5c0.2-0.3,0.4-1,0.6-1.8c0.2-0.9,0.6-2.2,1-4c0.1-0.3,0.1-0.4,0.1-0.6
			c0.4-1.7,0.8-3.1,1.1-4.1c0.3-1,0.8-1.9,1.4-2.7c0.6-0.7,1.4-1.1,2.3-1.1h1.6L-237.4,274.5z"/>
	</g>
</g>
</svg>
