<?xml version="1.0" encoding="utf-8"?>
<!-- Generator: Adobe Illustrator 19.0.1, SVG Export Plug-In . SVG Version: 6.00 Build 0)  -->
<svg version="1.0" id="Layer_1" xmlns="http://www.w3.org/2000/svg" xmlns:xlink="http://www.w3.org/1999/xlink" x="0px" y="0px"
	 viewBox="-388.4 349.1 166.6 103.7" enable-background="new -388.4 349.1 166.6 103.7" xml:space="preserve">
<g>
	<g>
		<defs>
			<rect id="SVGID_1_" x="-388.4" y="349.1" width="166.6" height="103.7"/>
		</defs>
		<clipPath id="SVGID_2_">
			<use xlink:href="#SVGID_1_"  overflow="visible"/>
		</clipPath>
		<path clip-path="url(#SVGID_2_)" fill="none" stroke="#1D1D1B" stroke-width="1" stroke-miterlimit="10" d="M-246.6,356.5h21V367
			h-21V356.5z M-222.2,398.4h-27v-17l13.5-10l13.5,10V398.4z M-312.3,357v-7l-13.5,7v-7l-13.5,7v17h40.5v-24L-312.3,357z
			 M-239.1,426.5c0,1.6-1.4,3-3,3s-3-1.4-3-3s1.4-3,3-3C-240.4,423.5-239.1,424.8-239.1,426.5z M-255.1,426.5c0,1.6-1.3,3-3,3
			s-3-1.4-3-3s1.4-3,3-3S-255.1,424.8-255.1,426.5z M-256.6,420c0-3.5,2.8-6.4,6.3-6.4s6.4,2.4,6.4,5.9 M-238.4,419h-5.5
			c0,0-2.9,2.9-6.4,2.9s-6.4-1.9-6.4-1.9l-6,0.5c-0.5,0-1,0.4-1,1l-0.5,4c0,0.5,0.5,1,1,1h2.1c0-1.6,1.4-3,3-3s3,1.4,3,3h10.1
			c0-1.6,1.4-3,3-3s3,1.4,3,3h1.1c0.6,0,0.9-0.5,0.9-1l-0.5-5.5C-237.6,419.4-237.9,419-238.4,419z"/>
	</g>
</g>
<path fill="none" stroke="#1D1D1B" stroke-width="0.5" stroke-miterlimit="10" d="M-240.8,357v10 M-235.8,357v10 M-230.8,357v10
	 M-246.1,359.2h20 M-246.1,361.7h20 M-246.1,364.2h20"/>
<g>
	<g>
		<defs>
			<rect id="SVGID_3_" x="-388.4" y="349.1" width="166.6" height="103.7"/>
		</defs>
		<clipPath id="SVGID_4_">
			<use xlink:href="#SVGID_3_"  overflow="visible"/>
		</clipPath>
		<path clip-path="url(#SVGID_4_)" fill="none" stroke="#1D1D1B" stroke-width="1" stroke-miterlimit="10" d="M-230.6,367v8
			 M-387.9,434.4h28.3v-47l-14.1-3.8l-14.2,3.9V434.4z"/>
	</g>
</g>
<line fill="none" stroke="#3390D0" stroke-width="1" stroke-miterlimit="10" x1="-373.6" y1="381" x2="-373.6" y2="380.5"/>
<g>
	<g>
		<defs>
			<rect id="SVGID_5_" x="-388.4" y="349.1" width="166.6" height="103.7"/>
		</defs>
		<clipPath id="SVGID_6_">
			<use xlink:href="#SVGID_5_"  overflow="visible"/>
		</clipPath>
		
			<line clip-path="url(#SVGID_6_)" fill="none" stroke="#3390D0" stroke-width="1" stroke-miterlimit="10" stroke-dasharray="0.8335,0.8335" x1="-373.6" y1="378.1" x2="-373.6" y2="376.9"/>
	</g>
	<g>
		<defs>
			<rect id="SVGID_7_" x="-388.4" y="349.1" width="166.6" height="103.7"/>
		</defs>
		<clipPath id="SVGID_8_">
			<use xlink:href="#SVGID_7_"  overflow="visible"/>
		</clipPath>
		
			<path clip-path="url(#SVGID_8_)" fill="none" stroke="#3390D0" stroke-width="1" stroke-miterlimit="10" stroke-dasharray="0.916,0.916" d="
			M-373.3,374.6c0.2-0.5,0.4-0.9,0.6-1.2"/>
	</g>
	<g>
		<defs>
			<rect id="SVGID_9_" x="-388.4" y="349.1" width="166.6" height="103.7"/>
		</defs>
		<clipPath id="SVGID_10_">
			<use xlink:href="#SVGID_9_"  overflow="visible"/>
		</clipPath>
		
			<line clip-path="url(#SVGID_10_)" fill="none" stroke="#3390D0" stroke-width="1" stroke-miterlimit="10" stroke-dasharray="0.9735,0.9735" x1="-371" y1="371.6" x2="-367.1" y2="368"/>
	</g>
	<g>
		<defs>
			<rect id="SVGID_11_" x="-388.4" y="349.1" width="166.6" height="103.7"/>
		</defs>
		<clipPath id="SVGID_12_">
			<use xlink:href="#SVGID_11_"  overflow="visible"/>
		</clipPath>
		
			<path clip-path="url(#SVGID_12_)" fill="none" stroke="#3390D0" stroke-width="1" stroke-miterlimit="10" stroke-dasharray="0.9315,0.9315" d="
			M-365.2,366.5c0.4-0.2,0.9-0.4,1.3-0.4"/>
	</g>
	<g>
		<defs>
			<rect id="SVGID_13_" x="-388.4" y="349.1" width="166.6" height="103.7"/>
		</defs>
		<clipPath id="SVGID_14_">
			<use xlink:href="#SVGID_13_"  overflow="visible"/>
		</clipPath>
		
			<line clip-path="url(#SVGID_14_)" fill="none" stroke="#3390D0" stroke-width="1" stroke-miterlimit="10" stroke-dasharray="1.0155,1.0155" x1="-361.4" y1="366" x2="-343.6" y2="366"/>
	</g>
	<g>
		<defs>
			<rect id="SVGID_15_" x="-388.4" y="349.1" width="166.6" height="103.7"/>
		</defs>
		<clipPath id="SVGID_16_">
			<use xlink:href="#SVGID_15_"  overflow="visible"/>
		</clipPath>
		<path clip-path="url(#SVGID_16_)" fill="none" stroke="#3390D0" stroke-width="1" stroke-miterlimit="10" d="M-343.1,366h0.5
			 M-363.4,366c0.1,0,0.4,0,0.5,0h0.5 M-366.7,367.7l0.4-0.3c0.1-0.1,0.2-0.2,0.4-0.3 M-372.4,373c0.1-0.1,0.2-0.2,0.3-0.4l0.4-0.4
			 M-373.6,376.5V376c0-0.1,0-0.4,0.1-0.5 M-373.6,379.5V379"/>
	</g>
</g>
<path fill="none" stroke="#3390D0" stroke-width="1" stroke-miterlimit="10" d="M-295.6,366h0.5 M-342.1,366h0.5"/>
<g>
	<g>
		<defs>
			<rect id="SVGID_17_" x="-388.4" y="349.1" width="166.6" height="103.7"/>
		</defs>
		<clipPath id="SVGID_18_">
			<use xlink:href="#SVGID_17_"  overflow="visible"/>
		</clipPath>
		
			<line clip-path="url(#SVGID_18_)" fill="none" stroke="#3390D0" stroke-width="1" stroke-miterlimit="10" stroke-dasharray="1.0355,1.0355" x1="-292.5" y1="366" x2="-280.6" y2="366"/>
	</g>
	<g>
		<defs>
			<rect id="SVGID_19_" x="-388.4" y="349.1" width="166.6" height="103.7"/>
		</defs>
		<clipPath id="SVGID_20_">
			<use xlink:href="#SVGID_19_"  overflow="visible"/>
		</clipPath>
		
			<path clip-path="url(#SVGID_20_)" fill="none" stroke="#3390D0" stroke-width="1" stroke-miterlimit="10" stroke-dasharray="0.925,0.925" d="
			M-278.2,365.7c0.4-0.1,0.9-0.4,1.2-0.6"/>
	</g>
	<g>
		<defs>
			<rect id="SVGID_21_" x="-388.4" y="349.1" width="166.6" height="103.7"/>
		</defs>
		<clipPath id="SVGID_22_">
			<use xlink:href="#SVGID_21_"  overflow="visible"/>
		</clipPath>
		
			<line clip-path="url(#SVGID_22_)" fill="none" stroke="#3390D0" stroke-width="1" stroke-miterlimit="10" stroke-dasharray="0.8485,0.8485" x1="-275.2" y1="363.6" x2="-273.1" y2="361.5"/>
	</g>
	<g>
		<defs>
			<rect id="SVGID_23_" x="-388.4" y="349.1" width="166.6" height="103.7"/>
		</defs>
		<clipPath id="SVGID_24_">
			<use xlink:href="#SVGID_23_"  overflow="visible"/>
		</clipPath>
		
			<path clip-path="url(#SVGID_24_)" fill="none" stroke="#3390D0" stroke-width="1" stroke-miterlimit="10" stroke-dasharray="0.925,0.925" d="
			M-271.3,360.1c0.4-0.2,0.9-0.4,1.3-0.5"/>
	</g>
	<g>
		<defs>
			<rect id="SVGID_25_" x="-388.4" y="349.1" width="166.6" height="103.7"/>
		</defs>
		<clipPath id="SVGID_26_">
			<use xlink:href="#SVGID_25_"  overflow="visible"/>
		</clipPath>
		
			<line clip-path="url(#SVGID_26_)" fill="none" stroke="#3390D0" stroke-width="1" stroke-miterlimit="10" stroke-dasharray="1.0715,1.0715" x1="-267.4" y1="359.5" x2="-263.6" y2="359.5"/>
	</g>
	<g>
		<defs>
			<rect id="SVGID_27_" x="-388.4" y="349.1" width="166.6" height="103.7"/>
		</defs>
		<clipPath id="SVGID_28_">
			<use xlink:href="#SVGID_27_"  overflow="visible"/>
		</clipPath>
		
			<path clip-path="url(#SVGID_28_)" fill="none" stroke="#3390D0" stroke-width="1" stroke-miterlimit="10" stroke-dasharray="0.7135,0.7135" d="
			M-261.4,359.8c0.3,0.2,0.5,0.5,0.7,0.8"/>
	</g>
	<g>
		<defs>
			<rect id="SVGID_29_" x="-388.4" y="349.1" width="166.6" height="103.7"/>
		</defs>
		<clipPath id="SVGID_30_">
			<use xlink:href="#SVGID_29_"  overflow="visible"/>
		</clipPath>
		
			<line clip-path="url(#SVGID_30_)" fill="none" stroke="#3390D0" stroke-width="1" stroke-miterlimit="10" stroke-dasharray="1.018,1.018" x1="-260.6" y1="363" x2="-260.6" y2="388.9"/>
	</g>
	<g>
		<defs>
			<rect id="SVGID_31_" x="-388.4" y="349.1" width="166.6" height="103.7"/>
		</defs>
		<clipPath id="SVGID_32_">
			<use xlink:href="#SVGID_31_"  overflow="visible"/>
		</clipPath>
		
			<path clip-path="url(#SVGID_32_)" fill="none" stroke="#3390D0" stroke-width="1" stroke-miterlimit="10" stroke-dasharray="0.7135,0.7135" d="
			M-260.2,391.1c0.2,0.3,0.5,0.6,0.8,0.7"/>
	</g>
	<g>
		<defs>
			<rect id="SVGID_33_" x="-388.4" y="349.1" width="166.6" height="103.7"/>
		</defs>
		<clipPath id="SVGID_34_">
			<use xlink:href="#SVGID_33_"  overflow="visible"/>
		</clipPath>
		
			<line clip-path="url(#SVGID_34_)" fill="none" stroke="#3390D0" stroke-width="1" stroke-miterlimit="10" stroke-dasharray="1,1" x1="-257.1" y1="392" x2="-253.6" y2="392"/>
	</g>
	<g>
		<defs>
			<rect id="SVGID_35_" x="-388.4" y="349.1" width="166.6" height="103.7"/>
		</defs>
		<clipPath id="SVGID_36_">
			<use xlink:href="#SVGID_35_"  overflow="visible"/>
		</clipPath>
		<path clip-path="url(#SVGID_36_)" fill="none" stroke="#3390D0" stroke-width="1" stroke-miterlimit="10" d="M-253.1,392h0.5
			 M-259.1,391.9c0.1,0,0.3,0,0.5,0h0.5 M-260.6,389.5v0.5c0,0.1,0,0.4,0,0.5 M-260.6,361c0.1,0.1,0.1,0.3,0.1,0.5v0.5
			 M-263.1,359.5h0.6c0.1,0,0.4,0,0.5,0 M-269.5,359.5c0.1,0,0.3,0,0.5,0h0.5 M-272.8,361.2l0.4-0.4c0.1-0.1,0.2-0.2,0.4-0.3
			 M-276.5,364.9c0.1-0.1,0.2-0.2,0.4-0.3l0.4-0.4 M-280.1,366h0.5c0.1,0,0.3,0,0.5-0.1 M-294.1,366h0.5"/>
	</g>
</g>
<path fill="none" stroke="#3390D0" stroke-width="1" stroke-miterlimit="10" d="M-230.6,400.5v0.5 M-252.1,392h0.5"/>
<g>
	<g>
		<defs>
			<rect id="SVGID_37_" x="-388.4" y="349.1" width="166.6" height="103.7"/>
		</defs>
		<clipPath id="SVGID_38_">
			<use xlink:href="#SVGID_37_"  overflow="visible"/>
		</clipPath>
		
			<line clip-path="url(#SVGID_38_)" fill="none" stroke="#3390D0" stroke-width="1" stroke-miterlimit="10" stroke-dasharray="0.826,0.826" x1="-230.6" y1="403.3" x2="-230.6" y2="421.1"/>
	</g>
	<g>
		<defs>
			<rect id="SVGID_39_" x="-388.4" y="349.1" width="166.6" height="103.7"/>
		</defs>
		<clipPath id="SVGID_40_">
			<use xlink:href="#SVGID_39_"  overflow="visible"/>
		</clipPath>
		
			<path clip-path="url(#SVGID_40_)" fill="none" stroke="#3390D0" stroke-width="1" stroke-miterlimit="10" stroke-dasharray="0.7215,0.7215" d="
			M-230.9,423.1c-0.2,0.3-0.5,0.6-0.9,0.7"/>
	</g>
	<g>
		<defs>
			<rect id="SVGID_41_" x="-388.4" y="349.1" width="166.6" height="103.7"/>
		</defs>
		<clipPath id="SVGID_42_">
			<use xlink:href="#SVGID_41_"  overflow="visible"/>
		</clipPath>
		
			<line clip-path="url(#SVGID_42_)" fill="none" stroke="#3390D0" stroke-width="1" stroke-miterlimit="10" stroke-dasharray="0.321,0.321" x1="-233.4" y1="424" x2="-233.9" y2="424"/>
	</g>
	<g>
		<defs>
			<rect id="SVGID_43_" x="-388.4" y="349.1" width="166.6" height="103.7"/>
		</defs>
		<clipPath id="SVGID_44_">
			<use xlink:href="#SVGID_43_"  overflow="visible"/>
		</clipPath>
		<path clip-path="url(#SVGID_44_)" fill="none" stroke="#3390D0" stroke-width="1" stroke-miterlimit="10" d="M-234.1,424h-0.5
			 M-232.1,423.9c-0.1,0.1-0.3,0.1-0.5,0.1h-0.5 M-230.6,421.5v0.5c0,0.1,0,0.4-0.1,0.5 M-230.6,402v0.5"/>
	</g>
</g>
<path fill="none" stroke="#3390D0" stroke-width="1" stroke-miterlimit="10" d="M-277.1,442h0.5 M-235.1,424h-0.5"/>
<g>
	<g>
		<defs>
			<rect id="SVGID_45_" x="-388.4" y="349.1" width="166.6" height="103.7"/>
		</defs>
		<clipPath id="SVGID_46_">
			<use xlink:href="#SVGID_45_"  overflow="visible"/>
		</clipPath>
		
			<line clip-path="url(#SVGID_46_)" fill="none" stroke="#3390D0" stroke-width="1" stroke-miterlimit="10" stroke-dasharray="1.024,1.024" x1="-274" y1="442" x2="-233.6" y2="442"/>
	</g>
	<g>
		<defs>
			<rect id="SVGID_47_" x="-388.4" y="349.1" width="166.6" height="103.7"/>
		</defs>
		<clipPath id="SVGID_48_">
			<use xlink:href="#SVGID_47_"  overflow="visible"/>
		</clipPath>
		
			<path clip-path="url(#SVGID_48_)" fill="none" stroke="#3390D0" stroke-width="1" stroke-miterlimit="10" stroke-dasharray="0.7135,0.7135" d="
			M-231.4,441.6c0.3-0.2,0.6-0.5,0.7-0.8"/>
	</g>
	<g>
		<defs>
			<rect id="SVGID_49_" x="-388.4" y="349.1" width="166.6" height="103.7"/>
		</defs>
		<clipPath id="SVGID_50_">
			<use xlink:href="#SVGID_49_"  overflow="visible"/>
		</clipPath>
		
			<line clip-path="url(#SVGID_50_)" fill="none" stroke="#3390D0" stroke-width="1" stroke-miterlimit="10" stroke-dasharray="1.0715,1.0715" x1="-230.6" y1="438.4" x2="-230.6" y2="426"/>
	</g>
	<g>
		<defs>
			<rect id="SVGID_51_" x="-388.4" y="349.1" width="166.6" height="103.7"/>
		</defs>
		<clipPath id="SVGID_52_">
			<use xlink:href="#SVGID_51_"  overflow="visible"/>
		</clipPath>
		<path clip-path="url(#SVGID_52_)" fill="none" stroke="#3390D0" stroke-width="1" stroke-miterlimit="10" d="M-230.6,425.5V425
			 M-230.6,440.5c0.1-0.1,0.1-0.3,0.1-0.5v-0.5 M-233.1,442h0.5c0.1,0,0.4,0,0.5,0 M-275.6,442h0.5"/>
	</g>
</g>
<path fill="none" stroke="#3390D0" stroke-width="1" stroke-miterlimit="10" d="M-321.1,442h-0.5 M-230.6,424.5V424"/>
<g>
	<g>
		<defs>
			<rect id="SVGID_53_" x="-388.4" y="349.1" width="166.6" height="103.7"/>
		</defs>
		<clipPath id="SVGID_54_">
			<use xlink:href="#SVGID_53_"  overflow="visible"/>
		</clipPath>
		
			<line clip-path="url(#SVGID_54_)" fill="none" stroke="#3390D0" stroke-width="1" stroke-miterlimit="10" stroke-dasharray="1.0265,1.0265" x1="-324.1" y1="442" x2="-360.5" y2="442"/>
	</g>
	<g>
		<defs>
			<rect id="SVGID_55_" x="-388.4" y="349.1" width="166.6" height="103.7"/>
		</defs>
		<clipPath id="SVGID_56_">
			<use xlink:href="#SVGID_55_"  overflow="visible"/>
		</clipPath>
		
			<path clip-path="url(#SVGID_56_)" fill="none" stroke="#3390D0" stroke-width="1" stroke-miterlimit="10" stroke-dasharray="0.7135,0.7135" d="
			M-362.7,441.6c-0.3-0.2-0.5-0.5-0.7-0.8"/>
	</g>
	<g>
		<defs>
			<rect id="SVGID_57_" x="-388.4" y="349.1" width="166.6" height="103.7"/>
		</defs>
		<clipPath id="SVGID_58_">
			<use xlink:href="#SVGID_57_"  overflow="visible"/>
		</clipPath>
		
			<line clip-path="url(#SVGID_58_)" fill="none" stroke="#3390D0" stroke-width="1" stroke-miterlimit="10" stroke-dasharray="0.1665,0.1665" x1="-363.6" y1="439.3" x2="-363.6" y2="439"/>
	</g>
	<g>
		<defs>
			<rect id="SVGID_59_" x="-388.4" y="349.1" width="166.6" height="103.7"/>
		</defs>
		<clipPath id="SVGID_60_">
			<use xlink:href="#SVGID_59_"  overflow="visible"/>
		</clipPath>
		<path clip-path="url(#SVGID_60_)" fill="none" stroke="#3390D0" stroke-width="1" stroke-miterlimit="10" d="M-363.6,439v-0.5
			 M-363.5,440.5c-0.1-0.1-0.1-0.3-0.1-0.5v-0.5 M-361.1,442h-0.5c-0.1,0-0.3,0-0.5,0 M-322.6,442h-0.5"/>
	</g>
</g>
<path fill="none" stroke="#3390D0" stroke-width="1" stroke-miterlimit="10" d="M-356.6,419h0.5 M-363.6,438v-0.5"/>
<g>
	<g>
		<defs>
			<rect id="SVGID_61_" x="-388.4" y="349.1" width="166.6" height="103.7"/>
		</defs>
		<clipPath id="SVGID_62_">
			<use xlink:href="#SVGID_61_"  overflow="visible"/>
		</clipPath>
		
			<line clip-path="url(#SVGID_62_)" fill="none" stroke="#3390D0" stroke-width="1" stroke-miterlimit="10" stroke-dasharray="1,1" x1="-353.6" y1="419" x2="-330.1" y2="419"/>
	</g>
	<g>
		<defs>
			<rect id="SVGID_63_" x="-388.4" y="349.1" width="166.6" height="103.7"/>
		</defs>
		<clipPath id="SVGID_64_">
			<use xlink:href="#SVGID_63_"  overflow="visible"/>
		</clipPath>
		
			<path clip-path="url(#SVGID_64_)" fill="none" stroke="#3390D0" stroke-width="1" stroke-miterlimit="10" stroke-dasharray="0.7135,0.7135" d="
			M-327.9,418.6c0.3-0.2,0.5-0.5,0.7-0.8"/>
	</g>
	<g>
		<defs>
			<rect id="SVGID_65_" x="-388.4" y="349.1" width="166.6" height="103.7"/>
		</defs>
		<clipPath id="SVGID_66_">
			<use xlink:href="#SVGID_65_"  overflow="visible"/>
		</clipPath>
		
			<line clip-path="url(#SVGID_66_)" fill="none" stroke="#3390D0" stroke-width="1" stroke-miterlimit="10" stroke-dasharray="0.9815,0.9815" x1="-327.1" y1="415.5" x2="-327.1" y2="390.5"/>
	</g>
	<g>
		<defs>
			<rect id="SVGID_67_" x="-388.4" y="349.1" width="166.6" height="103.7"/>
		</defs>
		<clipPath id="SVGID_68_">
			<use xlink:href="#SVGID_67_"  overflow="visible"/>
		</clipPath>
		
			<path clip-path="url(#SVGID_68_)" fill="none" stroke="#3390D0" stroke-width="1" stroke-miterlimit="10" stroke-dasharray="0.7135,0.7135" d="
			M-326.7,388.3c0.2-0.3,0.5-0.6,0.8-0.7"/>
	</g>
	<g>
		<defs>
			<rect id="SVGID_69_" x="-388.4" y="349.1" width="166.6" height="103.7"/>
		</defs>
		<clipPath id="SVGID_70_">
			<use xlink:href="#SVGID_69_"  overflow="visible"/>
		</clipPath>
		
			<line clip-path="url(#SVGID_70_)" fill="none" stroke="#3390D0" stroke-width="1" stroke-miterlimit="10" stroke-dasharray="1.0415,1.0415" x1="-323.5" y1="387.5" x2="-313.6" y2="387.5"/>
	</g>
	<g>
		<defs>
			<rect id="SVGID_71_" x="-388.4" y="349.1" width="166.6" height="103.7"/>
		</defs>
		<clipPath id="SVGID_72_">
			<use xlink:href="#SVGID_71_"  overflow="visible"/>
		</clipPath>
		
			<path clip-path="url(#SVGID_72_)" fill="none" stroke="#3390D0" stroke-width="1" stroke-miterlimit="10" stroke-dasharray="0.7135,0.7135" d="
			M-311.4,387.8c0.3,0.2,0.5,0.5,0.7,0.8"/>
	</g>
	<g>
		<defs>
			<rect id="SVGID_73_" x="-388.4" y="349.1" width="166.6" height="103.7"/>
		</defs>
		<clipPath id="SVGID_74_">
			<use xlink:href="#SVGID_73_"  overflow="visible"/>
		</clipPath>
		
			<line clip-path="url(#SVGID_74_)" fill="none" stroke="#3390D0" stroke-width="1" stroke-miterlimit="10" stroke-dasharray="1.25,1.25" x1="-310.6" y1="391.3" x2="-310.6" y2="393.2"/>
	</g>
	<g>
		<defs>
			<rect id="SVGID_75_" x="-388.4" y="349.1" width="166.6" height="103.7"/>
		</defs>
		<clipPath id="SVGID_76_">
			<use xlink:href="#SVGID_75_"  overflow="visible"/>
		</clipPath>
		
			<path clip-path="url(#SVGID_76_)" fill="none" stroke="#3390D0" stroke-width="1" stroke-miterlimit="10" stroke-dasharray="0.7135,0.7135" d="
			M-310.2,395.6c0.2,0.3,0.5,0.6,0.8,0.7"/>
	</g>
	<g>
		<defs>
			<rect id="SVGID_77_" x="-388.4" y="349.1" width="166.6" height="103.7"/>
		</defs>
		<clipPath id="SVGID_78_">
			<use xlink:href="#SVGID_77_"  overflow="visible"/>
		</clipPath>
		
			<line clip-path="url(#SVGID_78_)" fill="none" stroke="#3390D0" stroke-width="1" stroke-miterlimit="10" stroke-dasharray="1,1" x1="-307.1" y1="396.5" x2="-253.6" y2="396.5"/>
	</g>
	<g>
		<defs>
			<rect id="SVGID_79_" x="-388.4" y="349.1" width="166.6" height="103.7"/>
		</defs>
		<clipPath id="SVGID_80_">
			<use xlink:href="#SVGID_79_"  overflow="visible"/>
		</clipPath>
		<path clip-path="url(#SVGID_80_)" fill="none" stroke="#3390D0" stroke-width="1" stroke-miterlimit="10" d="M-253.1,396.5h0.5
			 M-309.1,396.4c0.2,0,0.3,0,0.5,0h0.5 M-310.6,393.8v0.6c0,0.1,0,0.4,0.1,0.5 M-310.6,389c0.1,0.1,0.1,0.3,0.1,0.5v0.6
			 M-313.1,387.5h0.5c0.2,0,0.4,0,0.5,0 M-325.6,387.5c0.1,0,0.3,0,0.5,0h0.5 M-327.1,390v-0.5c0-0.1,0-0.4,0-0.5 M-327.1,417.5
			c0.1-0.1,0.1-0.3,0.1-0.5v-0.5 M-329.6,419h0.5c0.1,0,0.3,0,0.5-0.1 M-355.1,419h0.5"/>
	</g>
</g>
<path fill="none" stroke="#3390D0" stroke-width="1" stroke-miterlimit="10" d="M-319.1,376v0.5 M-252.1,396.5h0.5"/>
<line fill="none" stroke="#3390D0" stroke-width="1" stroke-miterlimit="10" stroke-dasharray="1,1" x1="-319.1" y1="377.5" x2="-319.1" y2="428.5"/>
<line fill="none" stroke="#3390D0" stroke-width="1" stroke-miterlimit="10" x1="-319.1" y1="429" x2="-319.1" y2="429.5"/>
<path fill="none" stroke="#1D1D1B" stroke-width="1.024" stroke-miterlimit="10" d="M-228.3,387.4h-5v-5h5V387.4z M-238.3,387.4h-5
	v-5h5V387.4z M-363.7,430.5h-5v-5h5V430.5z M-368.7,430.5h-5v-5h5V430.5z M-373.7,430.5h-5v-5h5V430.5z M-378.7,430.5h-5v-5h5V430.5
	z M-363.7,422h-5v-5h5V422z M-368.7,422h-5v-5h5V422z M-373.7,422h-5v-5h5V422z M-378.7,422h-5v-5h5V422z M-363.7,413.5h-5v-5h5
	V413.5z M-368.7,413.5h-5v-5h5V413.5z M-373.7,413.5h-5v-5h5V413.5z M-378.7,413.5h-5v-5h5V413.5z M-363.7,405h-5v-5h5V405z
	 M-368.7,405h-5v-5h5V405z M-373.7,405h-5v-5h5V405z M-378.7,405h-5v-5h5V405z M-363.7,396.5h-5v-5h5V396.5z M-368.7,396.5h-5v-5h5
	V396.5z M-373.7,396.5h-5v-5h5V396.5z M-378.7,396.5h-5v-5h5V396.5z"/>
<g>
	<g>
		<defs>
			<rect id="SVGID_81_" x="-388.4" y="349.1" width="166.6" height="103.7"/>
		</defs>
		<clipPath id="SVGID_82_">
			<use xlink:href="#SVGID_81_"  overflow="visible"/>
		</clipPath>
		<path clip-path="url(#SVGID_82_)" fill="none" stroke="#1D1D1B" stroke-width="0.5" stroke-miterlimit="10" d="M-293.8,432.5v10
			 M-288.8,432.5v10 M-283.8,432.5v10 M-299.1,434.7h20 M-299.1,437.2h20 M-299.1,439.7h20 M-313.8,432.5v10 M-308.8,432.5v10
			 M-303.8,432.5v10 M-319.1,434.7h20 M-319.1,437.2h20 M-319.1,439.7h20 M-293.8,442.5v10 M-288.8,442.5v10 M-283.8,442.5v10
			 M-299.1,444.7h20 M-299.1,447.2h20 M-299.1,449.7h20 M-313.8,442.5v10 M-308.8,442.5v10 M-303.8,442.5v10 M-319.1,444.7h20
			 M-319.1,447.2h20 M-319.1,449.7h20"/>
	</g>
	<g>
		<defs>
			<rect id="SVGID_83_" x="-388.4" y="349.1" width="166.6" height="103.7"/>
		</defs>
		<clipPath id="SVGID_84_">
			<use xlink:href="#SVGID_83_"  overflow="visible"/>
		</clipPath>
		
			<rect x="-319.1" y="432.1" clip-path="url(#SVGID_84_)" fill="none" stroke="#1D1D1B" stroke-width="1.0115" stroke-miterlimit="10" width="40" height="20.2"/>
	</g>
	<g>
		<defs>
			<rect id="SVGID_85_" x="-388.4" y="349.1" width="166.6" height="103.7"/>
		</defs>
		<clipPath id="SVGID_86_">
			<use xlink:href="#SVGID_85_"  overflow="visible"/>
		</clipPath>
		<path clip-path="url(#SVGID_86_)" fill="none" stroke="#1D1D1B" stroke-width="0.5" stroke-miterlimit="10" d="M-298.8,432v20.5
			 M-319.6,442.2h40.5"/>
	</g>
</g>
</svg>
