<?xml version="1.0" encoding="utf-8"?>
<!-- Generator: Adobe Illustrator 19.0.1, SVG Export Plug-In . SVG Version: 6.00 Build 0)  -->
<svg version="1.0" id="Layer_1" xmlns="http://www.w3.org/2000/svg" xmlns:xlink="http://www.w3.org/1999/xlink" x="0px" y="0px"
	 viewBox="0 0 140 140" enable-background="new 0 0 140 140" xml:space="preserve">
<circle opacity="0.25" cx="70" cy="70" r="59.5"/>
<g>
	<defs>
		<circle id="SVGID_33_" cx="70" cy="70" r="59.5"/>
	</defs>
	<clipPath id="SVGID_2_">
		<use xlink:href="#SVGID_33_"  overflow="visible"/>
	</clipPath>
	
		<line clip-path="url(#SVGID_2_)" fill="none" stroke="#FFFFFF" stroke-width="2" stroke-miterlimit="10" x1="19.6" y1="101" x2="120.6" y2="101"/>
	<circle clip-path="url(#SVGID_2_)" fill="#FFFFFF" cx="19.3" cy="59.6" r="2"/>
	<circle clip-path="url(#SVGID_2_)" fill="#FFFFFF" cx="28.3" cy="68.6" r="2"/>
	<circle clip-path="url(#SVGID_2_)" fill="#FFFFFF" cx="32.3" cy="80.6" r="2"/>
	<circle clip-path="url(#SVGID_2_)" fill="#FFFFFF" cx="27.3" cy="51.6" r="2"/>
	<circle clip-path="url(#SVGID_2_)" fill="#FFFFFF" cx="19.3" cy="75.6" r="2"/>
	<circle clip-path="url(#SVGID_2_)" fill="#FFFFFF" cx="46.3" cy="80.6" r="2"/>
	<circle clip-path="url(#SVGID_2_)" fill="#FFFFFF" cx="28.3" cy="93.6" r="2"/>
	<circle clip-path="url(#SVGID_2_)" fill="#FFFFFF" cx="44.3" cy="92.6" r="2"/>
	<g clip-path="url(#SVGID_2_)">
		<polyline fill="none" stroke="#FFFFFF" stroke-width="2" stroke-miterlimit="10" points="52.3,101 44.8,106 52.3,111 44.8,116 
			52.3,121 44.8,126 		"/>
	</g>
	
		<line clip-path="url(#SVGID_2_)" fill="none" stroke="#FFFFFF" stroke-miterlimit="10" stroke-dasharray="2" x1="25.5" y1="30.9" x2="81.6" y2="128.1"/>
	<circle clip-path="url(#SVGID_2_)" fill="#FFFFFF" cx="38.3" cy="67.6" r="2"/>
	
		<line clip-path="url(#SVGID_2_)" fill="none" stroke="#FFFFFF" stroke-width="2" stroke-miterlimit="10" x1="86.6" y1="101" x2="86.6" y2="61"/>
	
		<line clip-path="url(#SVGID_2_)" fill="none" stroke="#FFFFFF" stroke-width="2" stroke-linecap="round" stroke-miterlimit="10" x1="86.2" y1="75.6" x2="81.1" y2="70.5"/>
	
		<line clip-path="url(#SVGID_2_)" fill="none" stroke="#FFFFFF" stroke-width="2" stroke-linecap="round" stroke-miterlimit="10" x1="87.1" y1="81.6" x2="92.2" y2="76.5"/>
	<path clip-path="url(#SVGID_2_)" fill="none" stroke="#FFFFFF" stroke-width="2" stroke-miterlimit="10" d="M92.2,48l-2.9,3l-2.8-3
		l-2.8,3l-3.2-3v6.8c0,3.2,2.6,5.7,5.8,5.7s5.5-2.6,5.5-5.7C91.9,54.5,92.2,48,92.2,48z"/>
	
		<line clip-path="url(#SVGID_2_)" fill="none" stroke="#FFFFFF" stroke-width="2" stroke-miterlimit="10" x1="103.6" y1="101" x2="103.6" y2="71"/>
	
		<circle clip-path="url(#SVGID_2_)" fill="none" stroke="#FFFFFF" stroke-width="2" stroke-miterlimit="10" cx="70.3" cy="73.1" r="3.1"/>
	
		<line clip-path="url(#SVGID_2_)" fill="none" stroke="#FFFFFF" stroke-width="2" stroke-miterlimit="10" x1="70.6" y1="100" x2="70.6" y2="76"/>
	<g clip-path="url(#SVGID_2_)">
		<path fill="none" stroke="#FFFFFF" stroke-width="2" stroke-miterlimit="10" d="M101.2,64.7c-5.7-3.3,2.3-8,2.3-1.4
			c0-6.6,8-2,2.3,1.4c5.7-3.3,5.7,6,0,2.7c5.7,3.3-2.3,8-2.3,1.4c0,6.6-8,2-2.3-1.4C95.5,70.7,95.5,61.4,101.2,64.7z"/>
	</g>
</g>
<circle fill="none" stroke="#FFFFFF" stroke-width="2" stroke-miterlimit="10" cx="70" cy="70" r="59.5"/>
</svg>
