<?xml version="1.0" encoding="utf-8"?>
<!-- Generator: Adobe Illustrator 19.0.0, SVG Export Plug-In . SVG Version: 6.00 Build 0)  -->
<svg version="1.1" id="Layer_1" xmlns="http://www.w3.org/2000/svg" xmlns:xlink="http://www.w3.org/1999/xlink" x="0px" y="0px"
	 width="140px" height="140px" viewBox="-409 211 140 140" style="enable-background:new -409 211 140 140;" xml:space="preserve">
<style type="text/css">
	.st0{opacity:0.25;fill:#010101;}
	.st1{fill:none;stroke:#FFFFFF;stroke-width:2;stroke-miterlimit:10;}
	.st2{opacity:0.25;fill:none;}
	.st3{fill:none;stroke:#FFFFFF;stroke-miterlimit:10;}
	.st4{fill:#FFFFFF;}
</style>
<circle class="st0" cx="-338" cy="281" r="59.5"/>
<g>
	<defs>
		<circle id="SVGID_1_" cx="-338" cy="281" r="59.5"/>
	</defs>
	<clipPath id="SVGID_2_">
		<use xlink:href="#SVGID_1_"  style="overflow:visible;"/>
	</clipPath>
</g>
<circle class="st1" cx="-338" cy="281" r="59.5"/>
<g>
	<circle class="st2" cx="-338" cy="281" r="59.5"/>
	<g>
		<defs>
			<circle id="SVGID_3_" cx="-338" cy="281" r="59.5"/>
		</defs>
		<clipPath id="SVGID_4_">
			<use xlink:href="#SVGID_3_"  style="overflow:visible;"/>
		</clipPath>
	</g>
	<circle class="st1" cx="-338" cy="281" r="59.5"/>
	<g>
		<g>
			<rect x="-320.7" y="264.2" class="st1" width="30.1" height="20.6"/>
			<path class="st3" d="M-310.2,264.6v20.6 M-300.4,264.6v20.6 M-290.6,264.6v19.7 M-319.6,270.1h29 M-319.6,275h29 M-319.6,279.9
				h29"/>
		</g>
		<polygon class="st1" points="-349,315 -337.8,295.7 -326.7,315 		"/>
		<line class="st1" x1="-370" y1="291" x2="-304" y2="291"/>
		<g>
			<circle class="st1" cx="-370.6" cy="273.1" r="12.7"/>
			<g>
				<path class="st4" d="M-367,274.9c0,0.8-0.3,1.4-0.8,1.8c-0.5,0.5-1.3,0.7-2.3,0.8v1.5h-1v-1.4c-1.2,0-2.2-0.2-3.1-0.6v-1.9
					c0.4,0.2,0.9,0.4,1.5,0.5c0.6,0.2,1.1,0.3,1.6,0.3v-2.2l-0.5-0.2c-0.9-0.4-1.6-0.8-2-1.2c-0.4-0.4-0.6-1-0.6-1.6
					c0-0.7,0.3-1.3,0.8-1.7c0.5-0.4,1.3-0.7,2.3-0.8v-1.1h1v1.1c1.1,0,2.1,0.3,3,0.7l-0.7,1.7c-0.7-0.3-1.5-0.5-2.3-0.6v2.1
					c0.9,0.4,1.6,0.7,2,0.9s0.7,0.6,0.9,0.9C-367.1,274.1-367,274.5-367,274.9z M-372,270.7c0,0.2,0.1,0.4,0.2,0.5
					c0.1,0.1,0.4,0.3,0.7,0.4v-1.7C-371.7,270-372,270.3-372,270.7z M-369.1,275c0-0.2-0.1-0.4-0.2-0.5s-0.4-0.3-0.7-0.4v1.8
					C-369.5,275.8-369.1,275.5-369.1,275z"/>
			</g>
		</g>
	</g>
</g>
</svg>
