<?xml version="1.0" encoding="utf-8"?>
<!-- Generator: Adobe Illustrator 19.0.1, SVG Export Plug-In . SVG Version: 6.00 Build 0)  -->
<svg version="1.0" id="Layer_1" xmlns="http://www.w3.org/2000/svg" xmlns:xlink="http://www.w3.org/1999/xlink" x="0px" y="0px"
	 viewBox="0 0 134.7 134.7" enable-background="new 0 0 134.7 134.7" xml:space="preserve">
<g>
	<defs>
		<rect id="SVGID_1_" x="0" y="0" width="134.7" height="134.7"/>
	</defs>
	<clipPath id="SVGID_2_">
		<use xlink:href="#SVGID_1_"  overflow="visible"/>
	</clipPath>
	<path clip-path="url(#SVGID_2_)" fill="none" stroke="#FFFFFF" stroke-width="2" stroke-miterlimit="10" d="M29.9,124.5
		c2.4-2.8,5.1-0.5,7.5-3.3c2.4-2.8-0.3-5.1,2.2-7.9c2.4-2.8,5.1-0.5,7.5-3.3c2.4-2.8-0.3-5.1,2.2-7.9c2.4-2.8,5.1-0.5,7.5-3.4
		 M78.5,36.4c2.4-2.8,5.1-0.5,7.5-3.3c2.4-2.8-0.3-5.1,2.2-7.9c2.4-2.8,5.1-0.5,7.5-3.3c2.4-2.8-0.3-5.1,2.2-7.9
		c2.4-2.8,5.1-0.5,7.5-3.4 M10.2,29.9c2.8,2.4,0.5,5.1,3.3,7.5c2.8,2.4,5.1-0.3,7.9,2.2c2.8,2.4,0.5,5.1,3.3,7.5
		c2.8,2.4,5.1-0.3,7.9,2.2c2.8,2.4,0.5,5.1,3.4,7.5 M98.3,78.5c2.8,2.4,0.5,5.1,3.3,7.5c2.8,2.4,5.1-0.3,7.9,2.2
		c2.8,2.4,0.5,5.1,3.3,7.5c2.8,2.4,5.1-0.3,7.9,2.2c2.8,2.4,0.5,5.1,3.4,7.5 M53.4,0.5c0.3,3.7-3.2,4-2.9,7.7
		c0.3,3.7,3.8,3.4,4.1,7.1c0.3,3.7-3.2,4-2.9,7.7c0.3,3.7,3.8,3.4,4.1,7.1c0.3,3.7-3.2,4-2.9,7.7 M81.4,97.1c0.3,3.7-3.2,4-2.9,7.7
		c0.3,3.7,3.8,3.4,4.1,7.1c0.3,3.7-3.2,4-2.9,7.7c0.3,3.7,3.8,3.4,4.1,7.1c0.3,3.7-3.2,4-2.9,7.7 M0.5,81.2c3.7-0.3,4,3.2,7.7,2.9
		c3.7-0.3,3.4-3.8,7.1-4.1c3.7-0.3,4,3.2,7.7,2.9c3.7-0.3,3.4-3.8,7.1-4.1c3.7-0.3,4,3.2,7.7,2.9 M97.1,53.3c3.7-0.3,4,3.2,7.7,2.9
		c3.7-0.3,3.4-3.8,7.1-4.1c3.7-0.3,4,3.2,7.7,2.9c3.7-0.3,3.4-3.8,7.1-4.1c3.7-0.3,4,3.2,7.7,2.9 M54.2,134.4
		c1.2-3.5,4.5-2.4,5.7-5.9c1.2-3.5-2.2-4.6-1-8.2c1.2-3.5,4.5-2.4,5.7-5.9c1.2-3.5-2.2-4.6-1-8.2c1.2-3.5,4.5-2.4,5.7-5.9 M66,34.5
		c1.2-3.5,4.5-2.4,5.7-5.9c1.2-3.5-2.2-4.6-1-8.2c1.2-3.5,4.5-2.4,5.7-5.9c1.2-3.5-2.2-4.6-1-8.2c1.2-3.5,4.5-2.4,5.7-5.9 M0.3,54.2
		c3.5,1.2,2.4,4.5,5.9,5.7c3.5,1.2,4.6-2.2,8.2-1c3.5,1.2,2.4,4.5,5.9,5.7c3.5,1.2,4.6-2.2,8.2-1c3.5,1.2,2.4,4.5,5.9,5.7 M100.2,66
		c3.5,1.2,2.4,4.5,5.9,5.7c3.5,1.2,4.6-2.2,8.2-1c3.5,1.2,2.4,4.5,5.9,5.7c3.5,1.2,4.6-2.2,8.2-1c3.5,1.2,2.4,4.5,5.9,5.7
		 M29.2,10.7c1.7,3.3-1.5,4.9,0.2,8.2c1.7,3.3,4.8,1.7,6.5,5.1c1.7,3.3-1.5,4.9,0.2,8.2c1.7,3.3,4.8,1.7,6.5,5.1
		c1.7,3.3-1.5,4.9,0.2,8.2 M91.6,89.6c1.7,3.3-1.5,4.9,0.2,8.2c1.7,3.3,4.8,1.7,6.5,5.1c1.7,3.3-1.5,4.9,0.2,8.2
		c1.7,3.3,4.8,1.7,6.5,5.1c1.7,3.3-1.5,4.9,0.2,8.2 M10.7,105.5c3.3-1.7,4.9,1.5,8.2-0.2c3.3-1.7,1.7-4.8,5.1-6.5
		c3.3-1.7,4.9,1.5,8.2-0.2c3.3-1.7,1.7-4.8,5.1-6.5c3.3-1.7,4.9,1.5,8.2-0.2 M89.6,43.1c3.3-1.7,4.9,1.5,8.2-0.2
		c3.3-1.7,1.7-4.8,5.1-6.5c3.3-1.7,4.9,1.5,8.2-0.2c3.3-1.7,1.7-4.8,5.1-6.5c3.3-1.7,4.9,1.5,8.2-0.2 M91,67.3
		c0,12.8-10.4,23.2-23.2,23.2c-12.8,0-23.2-10.4-23.2-23.2S55,44.2,67.8,44.2C80.6,44.2,91,54.5,91,67.3z"/>
</g>
</svg>
