<?xml version="1.0" encoding="utf-8"?>
<!-- Generator: Adobe Illustrator 19.2.1, SVG Export Plug-In . SVG Version: 6.00 Build 0)  -->
<svg version="1.1" id="Layer_1" xmlns="http://www.w3.org/2000/svg" xmlns:xlink="http://www.w3.org/1999/xlink" x="0px" y="0px"
	 width="366px" height="1128px" viewBox="0 0 366 1128" style="enable-background:new 0 0 366 1128;" xml:space="preserve">
<style type="text/css">
	.st0{fill:none;stroke:#9B9B9B;stroke-width:3;stroke-linecap:round;stroke-dasharray:1,6;}
</style>
<g id="ICO_x26_SNC-sept-2017">
	<g id="ICO-page-desktop" transform="translate(-44.000000, -5025.000000)">
		<g id="timeline-crtice" transform="translate(-95.000000, 5025.000000)">
			<path id="Page-1" class="st0" d="M502.8-2574c0,88.5-361.8,88.5-361.8,176.9c0,88.5,361.8,88.5,361.8,176.9
				c0,88.5-361.8,88.5-361.8,176.9c0,88.5,361.8,88.5,361.8,176.9c0,88.5-361.8,88.5-361.8,176.9c0,88.5,361.8,88.5,361.8,176.9
				c0,88.5-361.8,88.5-361.8,176.9c0,88.5,361.8,88.5,361.8,176.9c0,88.5-361.8,88.5-361.8,176.9S502.8-893,502.8-804.6
				c0,88.5-361.8,88.5-361.8,177s361.8,88.5,361.8,176.9S141-362.2,141-273.7s361.8,88.5,361.8,177C502.8-8.3,141-8.3,141,80.2
				s361.8,88.5,361.8,177S141,345.6,141,434.1S502.8,522.6,502.8,611S141,699.5,141,788s361.8,88.5,361.8,177S141,1053.5,141,1141.9
				c0,88.5,361.8,88.5,361.8,177s-361.8,88.5-361.8,177s361.8,88.5,361.8,177s-361.8,88.5-361.8,177s361.8,88.5,361.8,177"/>
		</g>
	</g>
</g>
</svg>
