<?xml version="1.0" encoding="UTF-8"?>
<svg width="50px" height="50px" viewBox="0 0 50 50" version="1.1" xmlns="http://www.w3.org/2000/svg" xmlns:xlink="http://www.w3.org/1999/xlink">
    <!-- Generator: Sketch 41.2 (35397) - http://www.bohemiancoding.com/sketch -->
    <title>usd icn header</title>
    <desc>Created with Sketch.</desc>
    <defs></defs>
    <g id="Page-1" stroke="none" stroke-width="1" fill="none" fill-rule="evenodd">
        <g id="ICO-page" transform="translate(-886.000000, -323.000000)">
            <g id="Group-27" transform="translate(397.000000, 132.000000)">
                <g id="Group-8" transform="translate(477.000000, 192.000000)">
                    <g id="usd-icn-header" transform="translate(13.000000, 0.000000)">
                        <circle id="Oval-2" stroke="#FFFFFF" stroke-width="2" cx="24" cy="24" r="24"></circle>
                        <path d="M28.176,24.024 C29.776008,24.5786694 30.9706627,25.2773291 31.76,26.12 C32.5493373,26.9626709 32.944,28.0773264 32.944,29.464 C32.944,30.9786742 32.3253395,32.2906611 31.088,33.4 C29.7226598,34.5733392 27.8133456,35.2453325 25.36,35.416 L25.36,38.232 L22.672,38.232 L22.672,35.352 C20.4533222,35.1386656 18.6506736,34.4773389 17.264,33.368 C15.7919926,32.1733274 15.056,30.5520102 15.056,28.504 L18.8,28.504 C18.8,29.5280051 19.1306634,30.306664 19.792,30.84 C20.4533366,31.373336 21.413327,31.7146659 22.672,31.864 L22.672,25.656 L21.072,25.112 C19.279991,24.5146637 17.8933382,23.7946709 16.912,22.952 C15.9306618,22.1093291 15.44,20.9306742 15.44,19.416 C15.44,17.9013258 16.0533272,16.6373384 17.28,15.624 C18.5066728,14.6106616 20.3039882,14.0186675 22.672,13.848 L22.672,11.416 L25.36,11.416 L25.36,13.88 C27.4293437,14.0933344 29.0079946,14.733328 30.096,15.8 C31.1840054,16.866672 31.8773318,18.2533248 32.176,19.96 L28.432,19.96 C28.3253328,19.3199968 28.0106693,18.7493358 27.488,18.248 C26.9653307,17.7466642 26.2560045,17.400001 25.36,17.208 L25.36,23.032 L28.176,24.024 Z M27.888,31.064 C28.421336,30.5946643 28.688,30.0400032 28.688,29.4 C28.688,28.1839939 27.9200077,27.2880029 26.384,26.712 L25.36,26.328 L25.36,31.928 C26.5120058,31.8213328 27.354664,31.5333357 27.888,31.064 Z M20.352,17.976 C19.8293307,18.4240022 19.568,18.9466637 19.568,19.544 C19.568,20.1413363 19.738665,20.6159982 20.08,20.968 C20.421335,21.3200018 20.9653296,21.6239987 21.712,21.88 L22.672,22.264 L22.672,17.112 C21.6479949,17.2400006 20.8746693,17.5279978 20.352,17.976 Z" id="$" fill="#FFFFFF"></path>
                    </g>
                </g>
            </g>
        </g>
    </g>
</svg>