<?xml version="1.0" encoding="utf-8"?>
<!-- Generator: Adobe Illustrator 19.0.1, SVG Export Plug-In . SVG Version: 6.00 Build 0)  -->
<svg version="1.0" id="Layer_1" xmlns="http://www.w3.org/2000/svg" xmlns:xlink="http://www.w3.org/1999/xlink" x="0px" y="0px"
	 viewBox="0 0 268.3 186.3" enable-background="new 0 0 268.3 186.3" xml:space="preserve">
<g>
	<line fill="none" stroke="#FFFFFF" stroke-width="2" stroke-miterlimit="10" x1="182.9" y1="142.3" x2="182.9" y2="106.3"/>
	<g>
		<defs>
			<rect id="SVGID_3_" y="0" width="268.3" height="186.3"/>
		</defs>
		<clipPath id="SVGID_2_">
			<use xlink:href="#SVGID_3_"  overflow="visible"/>
		</clipPath>
		<path clip-path="url(#SVGID_2_)" fill="#FFFFFF" d="M179.2,142.8c0-1.9,1.5-3.4,3.4-3.4c1.9,0,3.4,1.5,3.4,3.4s-1.5,3.4-3.4,3.4
			C180.7,146.3,179.2,144.7,179.2,142.8"/>
	</g>
	<line fill="none" stroke="#FFFFFF" stroke-width="2" stroke-miterlimit="10" x1="85.9" y1="142.3" x2="85.9" y2="104.3"/>
	<g>
		<defs>
			<rect id="SVGID_5_" y="0" width="268.3" height="186.3"/>
		</defs>
		<clipPath id="SVGID_4_">
			<use xlink:href="#SVGID_5_"  overflow="visible"/>
		</clipPath>
		<path clip-path="url(#SVGID_4_)" fill="#FFFFFF" d="M82.2,142.8c0-1.9,1.5-3.4,3.4-3.4s3.4,1.5,3.4,3.4s-1.5,3.4-3.4,3.4
			S82.2,144.7,82.2,142.8"/>
	</g>
	<line fill="none" stroke="#FFFFFF" stroke-width="2" stroke-miterlimit="10" x1="133.9" y1="142.3" x2="133.9" y2="127.3"/>
	<g>
		<defs>
			<rect id="SVGID_7_" y="0" width="268.3" height="186.3"/>
		</defs>
		<clipPath id="SVGID_6_">
			<use xlink:href="#SVGID_7_"  overflow="visible"/>
		</clipPath>
		<path clip-path="url(#SVGID_6_)" fill="#FFFFFF" d="M130.7,142.8c0-1.9,1.5-3.4,3.4-3.4c1.9,0,3.4,1.5,3.4,3.4s-1.5,3.4-3.4,3.4
			C132.2,146.3,130.7,144.7,130.7,142.8"/>
		
			<line clip-path="url(#SVGID_6_)" fill="none" stroke="#FFFFFF" stroke-width="2" stroke-miterlimit="10" x1="158.4" y1="182.5" x2="158.4" y2="122.5"/>
		<path clip-path="url(#SVGID_6_)" fill="#FFFFFF" d="M154.9,182.8c0-1.9,1.5-3.4,3.4-3.4c1.9,0,3.4,1.5,3.4,3.4s-1.5,3.4-3.4,3.4
			C156.5,186.3,154.9,184.7,154.9,182.8"/>
		
			<line clip-path="url(#SVGID_6_)" fill="none" stroke="#FFFFFF" stroke-width="2" stroke-miterlimit="10" x1="109.9" y1="182.5" x2="109.9" y2="122.5"/>
		<path clip-path="url(#SVGID_6_)" fill="#FFFFFF" d="M106.4,182.8c0-1.9,1.5-3.4,3.4-3.4s3.4,1.5,3.4,3.4s-1.5,3.4-3.4,3.4
			S106.4,184.7,106.4,182.8"/>
	</g>
	<g>
		<defs>
			<path id="SVGID_9_" d="M70.9,64.2c0,34.9,28.3,63.2,63.2,63.2c34.9,0,63.2-28.3,63.2-63.2C197.3,29.3,169,1,134.1,1
				C99.2,1,70.9,29.3,70.9,64.2"/>
		</defs>
		<clipPath id="SVGID_8_">
			<use xlink:href="#SVGID_9_"  overflow="visible"/>
		</clipPath>
		<path clip-path="url(#SVGID_8_)" fill="#FFFFFF" d="M110.5,9.8c0,2.4-2,4.4-4.4,4.4c-2.4,0-4.4-2-4.4-4.4c0-2.4,2-4.4,4.4-4.4
			C108.5,5.4,110.5,7.4,110.5,9.8"/>
		<path clip-path="url(#SVGID_8_)" fill="#FFFFFF" d="M138.8,21.9c0,2.4-2,4.4-4.4,4.4s-4.4-2-4.4-4.4c0-2.4,2-4.4,4.4-4.4
			S138.8,19.5,138.8,21.9"/>
		<path clip-path="url(#SVGID_8_)" fill="#FFFFFF" d="M149.6,61.1c0,2.4-2,4.4-4.4,4.4c-2.4,0-4.4-2-4.4-4.4c0-2.4,2-4.4,4.4-4.4
			C147.7,56.7,149.6,58.7,149.6,61.1"/>
		<path clip-path="url(#SVGID_8_)" fill="#FFFFFF" d="M110.5,75.9c0,2.4-2,4.4-4.4,4.4c-2.4,0-4.4-2-4.4-4.4c0-2.4,2-4.4,4.4-4.4
			C108.5,71.6,110.5,73.5,110.5,75.9"/>
		<path clip-path="url(#SVGID_8_)" fill="#FFFFFF" d="M190.2,15.2c0,2.4-2,4.4-4.4,4.4c-2.4,0-4.4-2-4.4-4.4c0-2.4,2-4.4,4.4-4.4
			C188.2,10.8,190.2,12.8,190.2,15.2"/>
		<path clip-path="url(#SVGID_8_)" fill="#FFFFFF" d="M190.2,81.3c0,2.4-2,4.4-4.4,4.4c-2.4,0-4.4-2-4.4-4.4c0-2.4,2-4.4,4.4-4.4
			C188.2,77,190.2,78.9,190.2,81.3"/>
		<path clip-path="url(#SVGID_8_)" fill="#FFFFFF" d="M138.8,88.1c0,2.4-2,4.4-4.4,4.4s-4.4-2-4.4-4.4c0-2.4,2-4.4,4.4-4.4
			S138.8,85.7,138.8,88.1"/>
		<path clip-path="url(#SVGID_8_)" fill="#FFFFFF" d="M159.6,26c0,1.2-1,2.2-2.2,2.2c-1.2,0-2.2-1-2.2-2.2c0-1.2,1-2.2,2.2-2.2
			C158.6,23.8,159.6,24.8,159.6,26"/>
		<path clip-path="url(#SVGID_8_)" fill="#FFFFFF" d="M147.5,43.5c0,1.2-1,2.2-2.2,2.2c-1.2,0-2.2-1-2.2-2.2c0-1.2,1-2.2,2.2-2.2
			C146.5,41.3,147.5,42.3,147.5,43.5"/>
		<path clip-path="url(#SVGID_8_)" fill="#FFFFFF" d="M175.8,46.2c0,1.2-1,2.2-2.2,2.2c-1.2,0-2.2-1-2.2-2.2c0-1.2,1-2.2,2.2-2.2
			C174.8,44,175.8,45,175.8,46.2"/>
		<path clip-path="url(#SVGID_8_)" fill="#FFFFFF" d="M100.2,44.9c0,1.2-1,2.2-2.2,2.2c-1.2,0-2.2-1-2.2-2.2c0-1.2,1-2.2,2.2-2.2
			C99.2,42.7,100.2,43.7,100.2,44.9"/>
		<path clip-path="url(#SVGID_8_)" fill="#FFFFFF" d="M175.8,59.7c0,1.2-1,2.2-2.2,2.2c-1.2,0-2.2-1-2.2-2.2c0-1.2,1-2.2,2.2-2.2
			C174.8,57.5,175.8,58.5,175.8,59.7"/>
		<path clip-path="url(#SVGID_8_)" fill="#FFFFFF" d="M120.4,62.4c0,1.2-1,2.2-2.2,2.2c-1.2,0-2.2-1-2.2-2.2c0-1.2,1-2.2,2.2-2.2
			C119.5,60.3,120.4,61.2,120.4,62.4"/>
		<path clip-path="url(#SVGID_8_)" fill="#FFFFFF" d="M79.9,9.8c0,1.2-1,2.2-2.2,2.2c-1.2,0-2.2-1-2.2-2.2c0-1.2,1-2.2,2.2-2.2
			C78.9,7.6,79.9,8.6,79.9,9.8"/>
		<path clip-path="url(#SVGID_8_)" fill="#FFFFFF" d="M86.7,17.9c0,1.2-1,2.2-2.2,2.2c-1.2,0-2.2-1-2.2-2.2c0-1.2,1-2.2,2.2-2.2
			C85.7,15.7,86.7,16.7,86.7,17.9"/>
		<path clip-path="url(#SVGID_8_)" fill="#FFFFFF" d="M111,20.6c0,1.2-1,2.2-2.2,2.2c-1.2,0-2.2-1-2.2-2.2c0-1.2,1-2.2,2.2-2.2
			C110,18.4,111,19.4,111,20.6"/>
		<path clip-path="url(#SVGID_8_)" fill="#FFFFFF" d="M149.6,127.3c0,2.4-2,4.4-4.4,4.4c-2.4,0-4.4-2-4.4-4.4c0-2.4,2-4.4,4.4-4.4
			C147.7,122.9,149.6,124.8,149.6,127.3"/>
		<path clip-path="url(#SVGID_8_)" fill="#FFFFFF" d="M199.6,125.9c0,2.4-2,4.4-4.4,4.4c-2.4,0-4.4-2-4.4-4.4s2-4.4,4.4-4.4
			C197.6,121.5,199.6,123.5,199.6,125.9"/>
		<path clip-path="url(#SVGID_8_)" fill="#FFFFFF" d="M86.7,84c0,1.2-1,2.2-2.2,2.2c-1.2,0-2.2-1-2.2-2.2c0-1.2,1-2.2,2.2-2.2
			C85.7,81.9,86.7,82.8,86.7,84"/>
		<path clip-path="url(#SVGID_8_)" fill="#FFFFFF" d="M100.2,111.1c0,1.2-1,2.2-2.2,2.2c-1.2,0-2.2-1-2.2-2.2c0-1.2,1-2.2,2.2-2.2
			C99.2,108.9,100.2,109.8,100.2,111.1"/>
		<path clip-path="url(#SVGID_8_)" fill="#FFFFFF" d="M121.8,97.6c0,1.2-1,2.2-2.2,2.2c-1.2,0-2.2-1-2.2-2.2c0-1.2,1-2.2,2.2-2.2
			C120.8,95.4,121.8,96.3,121.8,97.6"/>
		<path clip-path="url(#SVGID_8_)" fill="#FFFFFF" d="M159.6,85.4c0,1.2-1,2.2-2.2,2.2c-1.2,0-2.2-1-2.2-2.2c0-1.2,1-2.2,2.2-2.2
			C158.6,83.2,159.6,84.2,159.6,85.4"/>
		<path clip-path="url(#SVGID_8_)" fill="#FFFFFF" d="M159.6,92.1c0,1.2-1,2.2-2.2,2.2c-1.2,0-2.2-1-2.2-2.2c0-1.2,1-2.2,2.2-2.2
			C158.6,90,159.6,90.9,159.6,92.1"/>
		<path clip-path="url(#SVGID_8_)" fill="#FFFFFF" d="M147.5,109.7c0,1.2-1,2.2-2.2,2.2c-1.2,0-2.2-1-2.2-2.2c0-1.2,1-2.2,2.2-2.2
			C146.5,107.5,147.5,108.5,147.5,109.7"/>
		<path clip-path="url(#SVGID_8_)" fill="#FFFFFF" d="M175.8,111.1c0,1.2-1,2.2-2.2,2.2c-1.2,0-2.2-1-2.2-2.2c0-1.2,1-2.2,2.2-2.2
			C174.8,108.9,175.8,109.8,175.8,111.1"/>
		<path clip-path="url(#SVGID_8_)" fill="#FFFFFF" d="M175.8,127.3c0,1.2-1,2.2-2.2,2.2c-1.2,0-2.2-1-2.2-2.2s1-2.2,2.2-2.2
			C174.8,125.1,175.8,126.1,175.8,127.3"/>
		<path clip-path="url(#SVGID_8_)" fill="#FFFFFF" d="M197.4,61.1c0,1.2-1,2.2-2.2,2.2c-1.2,0-2.2-1-2.2-2.2c0-1.2,1-2.2,2.2-2.2
			C196.4,58.9,197.4,59.9,197.4,61.1"/>
		<path clip-path="url(#SVGID_8_)" fill="none" stroke="#FFFFFF" stroke-width="1.095" stroke-miterlimit="10" d="M145.3,43.5
			L173.6,60 M173.6,45.1l-28.4-1.6 M185.8,15.2L173.6,46 M185.8,15.2l9.6,45.7 M185.8,15.2l44.6,29.5 M185.8,15.2l31.8,2.7
			 M185.8,15.2l23.6-5.4 M185.8,15.2l9.6-21.1 M185.8,15.2L173.1-5.9 M145.3,43.5L157.4,26 M185.8,15.2l-40.5,28.4 M157.4,26
			l28.4-10.8 M134.5,21.9l23,4.1 M185.8,15.2l-51.3,6.8 M145.3-5.1l40.5,20.3 M135.5,21.7l8.7-25.4 M117.8-3.7l15.8,24.3 M106.6,9.3
			l11.2-13 M106.6,9.3L98-21.6 M64-5.9l41,15.2 M52.6,15.2L98,44.6"/>
		
			<line clip-path="url(#SVGID_8_)" fill="none" stroke="#FFFFFF" stroke-miterlimit="10" x1="173.4" y1="60.3" x2="173.4" y2="45.3"/>
		<path clip-path="url(#SVGID_8_)" fill="none" stroke="#FFFFFF" stroke-width="1.095" stroke-miterlimit="10" d="M185.5,80.8
			l-40.2-19.5 M185.5,80.8l-28,4.6 M185.8,81.3L173.6,60 M195.4,61.1l-9.6,20.3 M173.6,46.2l21.8,14.9"/>
		
			<line clip-path="url(#SVGID_8_)" fill="none" stroke="#FFFFFF" stroke-miterlimit="10" x1="144.4" y1="62.3" x2="144.4" y2="44.3"/>
		<path clip-path="url(#SVGID_8_)" fill="none" stroke="#FFFFFF" stroke-width="1.095" stroke-miterlimit="10" d="M77.7,9.8L64-5.9
			 M84.5,17.9l-6.8-8.1 M106.1,9.8l-21.6,8.1 M108.8,20.6l-2.7-10.8 M98,44.9l10.8-24.3 M134.5,21.9L98,44.9 M134.5,21.9l10.7,21.6
			 M117.8,62.2l16.7-40.3 M145.3,43.8l-27.5,18.4"/>
		<line clip-path="url(#SVGID_8_)" fill="none" stroke="#FFFFFF" stroke-miterlimit="10" x1="76.9" y1="9.8" x2="105.9" y2="9.8"/>
		<path clip-path="url(#SVGID_8_)" fill="none" stroke="#FFFFFF" stroke-width="1.095" stroke-miterlimit="10" d="M145.3,61.1
			l28.4-0.3 M117.8,62.2l27.5-1.1 M134.5,88.1l10.7-26.8 M118.3,62.4l16.2,25.7 M118.3,62.4L98,44.9 M106.1,75.9l11.7-13.8 M98,44.6
			l8.1,31.3 M62.9,61.1L98,44.6 M106.1,75.9L62.9,61.1 M84.5,84l21.6-8.1 M62.9,60.8L84.5,84 M106.1,9.8l28.4,12.1 M98,45.1
			L84.5,17.9 M108.8,20.6l25.7,1.4 M84.5,17.9l24.3,2.7 M52.6,15.2l31.9,2.7 M77.7,9.8l-25.2,5.4"/>
		
			<line clip-path="url(#SVGID_8_)" fill="none" stroke="#FFFFFF" stroke-miterlimit="10" x1="172.9" y1="61.8" x2="193.9" y2="61.8"/>
		<path clip-path="url(#SVGID_8_)" fill="none" stroke="#FFFFFF" stroke-width="1.095" stroke-miterlimit="10" d="M157.4,85.4
			l-12.2-24.3 M134.5,88.1l23-2.7 M106.6,75.9l27.9,12.2"/>
		
			<line clip-path="url(#SVGID_8_)" fill="none" stroke="#FFFFFF" stroke-miterlimit="10" x1="157.4" y1="85.3" x2="157.4" y2="91.3"/>
		<path clip-path="url(#SVGID_8_)" fill="none" stroke="#FFFFFF" stroke-width="1.095" stroke-miterlimit="10" d="M118.3,128.1
			l26.9-18.1 M68.5,92.1l-16-10.8 M68.5,92.1l-5.6,33.8 M62.9,125.9L98,110.8 M106.1,142.2l-43.2-16.3 M117.8,128.1l-11.7,14.1
			 M98,111.1l9.5,34.1 M68.3,92.1L98,111.1 M84.5,84l-16.2,8.1 M52.6,81.3L84.5,84 M84.5,84l13.5,27 M98,111.1l21.4-13.5
			 M118.3,128.1l-20.3-17 M119.6,97.4l-1.4,30.7 M84.5,84l35.1,13.3 M134.5,88.1l-16.2,40 M134.5,88.1l-15.1,9.5 M134.5,88.1
			l10.7,21.6 M157.4,92.1L145.3,110 M134.5,88.1l23,4 M84.5,84l50,4.1 M173.5,111.1l12-29.7 M145.1,110l28.4,1.1 M185.8,81.3
			L145.1,110 M157.4,92.1l28.4-10.8"/>
		
			<line clip-path="url(#SVGID_8_)" fill="none" stroke="#FFFFFF" stroke-miterlimit="10" x1="144.4" y1="110.3" x2="144.4" y2="128.3"/>
		<path clip-path="url(#SVGID_8_)" fill="none" stroke="#FFFFFF" stroke-width="1.095" stroke-miterlimit="10" d="M185.5,81.3
			l32.1,2.7 M185.5,81.3l15.7,10.8 M195.2,126.2L185.8,82 M173.5,111.1l21.8,15.1 M173.6,127.3l-0.1-16.2 M145.1,110l28.5,17.3"/>
	</g>
	<g>
		<defs>
			<rect id="SVGID_11_" y="0" width="268.3" height="186.3"/>
		</defs>
		<clipPath id="SVGID_10_">
			<use xlink:href="#SVGID_11_"  overflow="visible"/>
		</clipPath>
		
			<circle clip-path="url(#SVGID_10_)" fill="none" stroke="#FFFFFF" stroke-width="2" stroke-miterlimit="10" cx="134.1" cy="64.2" r="63.2"/>
		<path clip-path="url(#SVGID_10_)" fill="none" stroke="#FFFFFF" stroke-miterlimit="10" d="M257.4,44.3v20 M267.4,44.3v20
			 M246.9,48.8h20 M246.9,53.8h20 M246.9,58.8h20 M217.4,44.3v20 M227.4,44.3v20 M237.4,44.3v20 M206.9,48.8h40 M206.9,53.8h40
			 M206.9,58.8h40 M257.4,64.3v20 M267.4,64.3v20 M246.9,68.8h20 M246.9,73.8h20 M246.9,78.8h20 M217.4,64.3v20 M227.4,64.3v20
			 M237.4,64.3v20 M206.9,68.8h40 M206.9,73.8h40 M206.9,78.8h40"/>
		
			<rect x="206.9" y="43.5" clip-path="url(#SVGID_10_)" fill="none" stroke="#FFFFFF" stroke-width="1.759" stroke-miterlimit="10" width="60.5" height="40.4"/>
		<path clip-path="url(#SVGID_10_)" fill="none" stroke="#FFFFFF" stroke-miterlimit="10" d="M31.4,44.3v20 M41.4,44.3v20
			 M51.4,44.3v20 M20.9,48.8h40 M20.9,53.8h40 M20.9,58.8h40 M1.4,44.3v20 M11.4,44.3v20 M1.9,48.8h19 M1.9,53.8h19 M1.9,58.8h19
			 M31.4,64.3v20 M41.4,64.3v20 M51.4,64.3v20 M20.9,68.8h40 M20.9,73.8h40 M20.9,78.8h40 M1.4,64.3v20 M11.4,64.3v20 M1.9,68.8h19
			 M1.9,73.8h19 M1.9,78.8h19 M247.4,43.3v41 M205.9,63.8h61"/>
		
			<rect x="0.9" y="43.5" clip-path="url(#SVGID_10_)" fill="none" stroke="#FFFFFF" stroke-width="1.752" stroke-miterlimit="10" width="60" height="40.4"/>
		<path clip-path="url(#SVGID_10_)" fill="none" stroke="#FFFFFF" stroke-miterlimit="10" d="M21.4,43.3v41 M0.9,63.8h60"/>
	</g>
	<path fill="none" stroke="#FFFFFF" stroke-width="2" stroke-miterlimit="10" d="M196.9,64.3h9 M60.9,64.3h10"/>
</g>
</svg>
