<?xml version="1.0" encoding="utf-8"?>
<!-- Generator: Adobe Illustrator 19.0.1, SVG Export Plug-In . SVG Version: 6.00 Build 0)  -->
<svg version="1.0" id="Layer_1" xmlns="http://www.w3.org/2000/svg" xmlns:xlink="http://www.w3.org/1999/xlink" x="0px" y="0px"
	 viewBox="0 0 165 116.9" enable-background="new 0 0 165 116.9" xml:space="preserve">
<g>
	<defs>
		<rect id="SVGID_87_" x="0" y="0" width="165" height="116.9"/>
	</defs>
	<clipPath id="SVGID_2_">
		<use xlink:href="#SVGID_87_"  overflow="visible"/>
	</clipPath>
	<path clip-path="url(#SVGID_2_)" fill="none" stroke="#FFFFFF" stroke-width="2" stroke-miterlimit="10" d="M75.6,49.2
		c-0.3-0.8-1.3-1.3-2.3-1.1l-6.5,1.3c-1,0.2-1.8,0.3-1.8,0.3c0,0-0.8,0-1.8,0h-5.5c-1,0-1.8,0-1.8,0c0,0-0.8-0.1-1.8-0.3l-6.5-1.3
		c-1-0.2-2,0.3-2.3,1.1c-0.3,0.8,0.3,1.7,1.3,2l7.6,2.5c1,0.3,1.7,1.4,1.7,2.4v6v3.7v11.5c0,1,0.8,1.8,1.8,1.8h0.9
		c1,0,1.8-0.8,1.8-1.8v-11c0-1,0-1,0,0v11c0,1,0.8,1.8,1.8,1.8h0.9c1,0,1.8-0.8,1.8-1.8V65.8v-3.7v-6c0-1,0.8-2.1,1.7-2.4l7.6-2.5
		C75.3,50.9,75.9,50,75.6,49.2z M60.4,46.8c1.7,0,3.1-1.4,3.1-3.1c0-1.7-1.4-3.1-3.1-3.1s-3.1,1.4-3.1,3.1
		C57.3,45.4,58.7,46.8,60.4,46.8z M164,49.2c-0.3-0.8-1.3-1.3-2.3-1.1l-6.5,1.3c-1,0.2-1.8,0.3-1.8,0.3c0,0-0.8,0-1.8,0H146
		c-1,0-1.8,0-1.8,0c0,0-0.8-0.1-1.8-0.3l-6.5-1.3c-1-0.2-2,0.3-2.3,1.1c-0.3,0.8,0.3,1.7,1.3,2l7.6,2.5c1,0.3,1.7,1.4,1.7,2.4v6v3.7
		v11.5c0,1,0.8,1.8,1.8,1.8h0.9c1,0,1.8-0.8,1.8-1.8v-11c0-1,0-1,0,0v11c0,1,0.8,1.8,1.8,1.8h0.9c1,0,1.8-0.8,1.8-1.8V65.8v-3.7v-6
		c0-1,0.8-2.1,1.7-2.4l7.6-2.5C163.6,50.9,164.2,50,164,49.2z M148.8,46.8c1.7,0,3.1-1.4,3.1-3.1c0-1.7-1.4-3.1-3.1-3.1
		c-1.7,0-3.1,1.4-3.1,3.1C145.6,45.4,147,46.8,148.8,46.8z M119.8,49.2c-0.3-0.8-1.3-1.3-2.3-1.1l-6.5,1.3c-1,0.2-1.8,0.3-1.8,0.3
		c0,0-0.8,0-1.8,0h-5.5c-1,0-1.8,0-1.8,0c0,0-0.8-0.1-1.8-0.3l-6.5-1.3c-1-0.2-2,0.3-2.3,1.1c-0.3,0.8,0.3,1.7,1.3,2l7.6,2.5
		c1,0.3,1.7,1.4,1.7,2.4v6v3.7v11.5c0,1,0.8,1.8,1.8,1.8h0.9c1,0,1.8-0.8,1.8-1.8v-11c0-1,0-1,0,0v11c0,1,0.8,1.8,1.8,1.8h0.9
		c1,0,1.8-0.8,1.8-1.8V65.8v-3.7v-6c0-1,0.8-2.1,1.7-2.4l7.6-2.5C119.5,50.9,120,50,119.8,49.2z M104.6,46.8c1.7,0,3.1-1.4,3.1-3.1
		c0-1.7-1.4-3.1-3.1-3.1s-3.1,1.4-3.1,3.1C101.5,45.4,102.9,46.8,104.6,46.8z M31.4,49.2c-0.3-0.8-1.3-1.3-2.3-1.1l-6.5,1.3
		c-1,0.2-1.8,0.3-1.8,0.3c0,0-0.8,0-1.8,0h-5.5c-1,0-1.8,0-1.8,0c0,0-0.8-0.1-1.8-0.3l-6.5-1.3c-1-0.2-2,0.3-2.3,1.1
		c-0.3,0.8,0.3,1.7,1.3,2l7.6,2.5c1,0.3,1.7,1.4,1.7,2.4v6v3.7v11.5c0,1,0.8,1.8,1.8,1.8h0.9c1,0,1.8-0.8,1.8-1.8v-11c0-1,0-1,0,0
		v11c0,1,0.8,1.8,1.8,1.8H19c1,0,1.8-0.8,1.8-1.8V65.8v-3.7v-6c0-1,0.8-2.1,1.7-2.4l7.6-2.5C31.1,50.9,31.7,50,31.4,49.2z
		 M16.3,46.8c1.7,0,3.1-1.4,3.1-3.1c0-1.7-1.4-3.1-3.1-3.1c-1.7,0-3.1,1.4-3.1,3.1C13.1,45.4,14.5,46.8,16.3,46.8z M141.9,86
		c-0.3-0.8-1.3-1.3-2.3-1.1l-6.5,1.3c-1,0.2-1.8,0.3-1.8,0.3c0,0-0.8-0.1-1.8-0.1h-5.5c-1,0-1.8,0-1.8,0c0,0-0.8-0.1-1.8-0.3
		l-6.5-1.3c-1-0.2-2,0.3-2.3,1.1c-0.3,0.8,0.3,1.7,1.3,2l7.6,2.5c1,0.3,1.7,1.4,1.7,2.4v6v3.7v11.5c0,1,0.8,1.8,1.8,1.8h0.9
		c1,0,1.8-0.8,1.8-1.8v-11c0-1,0-1,0,0v11c0,1,0.8,1.8,1.8,1.8h0.9c1,0,1.8-0.8,1.8-1.8v-11.5v-3.7v-6c0-1,0.8-2.1,1.7-2.4l7.6-2.5
		C141.5,87.7,142.1,86.8,141.9,86z M126.7,83.6c1.7,0,3.1-1.4,3.1-3.1c0-1.7-1.4-3.1-3.1-3.1c-1.7,0-3.1,1.4-3.1,3.1
		C123.6,82.2,125,83.6,126.7,83.6z M98.6,86c-0.3-0.8-1.3-1.3-2.3-1.1l-6.5,1.3c-1,0.2-1.8,0.3-1.8,0.3c0,0-0.8-0.1-1.8-0.1h-5.5
		c-1,0-1.8,0-1.8,0c0,0-0.8-0.1-1.8-0.3l-6.5-1.3c-1-0.2-2,0.3-2.3,1.1c-0.3,0.8,0.3,1.7,1.3,2l7.6,2.5c1,0.3,1.7,1.4,1.7,2.4v6v3.7
		v11.5c0,1,0.8,1.8,1.8,1.8h0.9c1,0,1.8-0.8,1.8-1.8v-11c0-1,0-1,0,0v11c0,1,0.8,1.8,1.8,1.8h0.9c1,0,1.8-0.8,1.8-1.8v-11.5v-3.7v-6
		c0-1,0.8-2.1,1.7-2.4l7.6-2.5C98.3,87.7,98.9,86.8,98.6,86z M83.4,83.6c1.7,0,3.1-1.4,3.1-3.1c0-1.7-1.4-3.1-3.1-3.1
		s-3.1,1.4-3.1,3.1C80.3,82.2,81.7,83.6,83.4,83.6z M54.4,86c-0.3-0.8-1.3-1.3-2.3-1.1l-6.5,1.3c-1,0.2-1.8,0.3-1.8,0.3
		c0,0-0.8-0.1-1.8-0.1h-5.5c-1,0-1.8,0-1.8,0c0,0-0.8-0.1-1.8-0.3l-6.5-1.3c-1-0.2-2,0.3-2.3,1.1c-0.3,0.8,0.3,1.7,1.3,2l7.6,2.5
		c1,0.3,1.7,1.4,1.7,2.4v6v3.7v11.5c0,1,0.8,1.8,1.8,1.8h0.9c1,0,1.8-0.8,1.8-1.8v-11c0-1,0-1,0,0v11c0,1,0.8,1.8,1.8,1.8H42
		c1,0,1.8-0.8,1.8-1.8v-11.5v-3.7v-6c0-1,0.8-2.1,1.7-2.4l7.6-2.5C54.1,87.7,54.7,86.8,54.4,86z M39.3,83.6c1.7,0,3.1-1.4,3.1-3.1
		c0-1.7-1.4-3.1-3.1-3.1c-1.7,0-3.1,1.4-3.1,3.1C36.1,82.2,37.5,83.6,39.3,83.6z M141.9,9.6c-0.3-0.8-1.3-1.3-2.3-1.1l-6.5,1.3
		c-1,0.2-1.8,0.3-1.8,0.3s-0.8-0.1-1.8-0.1h-5.5c-1,0-1.8,0-1.8,0s-0.8-0.1-1.8-0.3l-6.5-1.3c-1-0.2-2,0.3-2.3,1.1
		c-0.3,0.8,0.3,1.7,1.3,2l7.6,2.5c1,0.3,1.7,1.4,1.7,2.4v6v3.7v11.5c0,1,0.8,1.8,1.8,1.8h0.9c1,0,1.8-0.8,1.8-1.8v-11c0-1,0-1,0,0
		v11c0,1,0.8,1.8,1.8,1.8h0.9c1,0,1.8-0.8,1.8-1.8V26.3v-3.7v-6c0-1,0.8-2.1,1.7-2.4l7.6-2.5C141.5,11.3,142.1,10.4,141.9,9.6z
		 M126.7,7.3c1.7,0,3.1-1.4,3.1-3.1c0-1.7-1.4-3.1-3.1-3.1c-1.7,0-3.1,1.4-3.1,3.1C123.6,5.9,125,7.3,126.7,7.3z M98.6,9.6
		c-0.3-0.8-1.3-1.3-2.3-1.1l-6.5,1.3c-1,0.2-1.8,0.3-1.8,0.3s-0.8-0.1-1.8-0.1h-5.5c-1,0-1.8,0-1.8,0S78,10,77,9.8l-6.5-1.3
		c-1-0.2-2,0.3-2.3,1.1s0.3,1.7,1.3,2l7.6,2.5c1,0.3,1.7,1.4,1.7,2.4v6v3.7v11.5c0,1,0.8,1.8,1.8,1.8h0.9c1,0,1.8-0.8,1.8-1.8v-11
		c0-1,0-1,0,0v11c0,1,0.8,1.8,1.8,1.8h0.9c1,0,1.8-0.8,1.8-1.8V26.3v-3.7v-6c0-1,0.8-2.1,1.7-2.4l7.6-2.5
		C98.3,11.3,98.9,10.4,98.6,9.6z M83.4,7.3c1.7,0,3.1-1.4,3.1-3.1c0-1.7-1.4-3.1-3.1-3.1s-3.1,1.4-3.1,3.1
		C80.3,5.9,81.7,7.3,83.4,7.3z M54.4,9.6c-0.3-0.8-1.3-1.3-2.3-1.1l-6.5,1.3c-1,0.2-1.8,0.3-1.8,0.3S43,10.1,42,10.1h-5.5
		c-1,0-1.8,0-1.8,0s-0.8-0.1-1.8-0.3l-6.5-1.3c-1-0.2-2,0.3-2.3,1.1s0.3,1.7,1.3,2l7.6,2.5c1,0.3,1.7,1.4,1.7,2.4v6v3.7v11.5
		c0,1,0.8,1.8,1.8,1.8h0.9c1,0,1.8-0.8,1.8-1.8v-11c0-1,0-1,0,0v11c0,1,0.8,1.8,1.8,1.8H42c1,0,1.8-0.8,1.8-1.8V26.3v-3.7v-6
		c0-1,0.8-2.1,1.7-2.4l7.6-2.5C54.1,11.3,54.7,10.4,54.4,9.6z M39.3,7.3c1.7,0,3.1-1.4,3.1-3.1C42.4,2.4,41,1,39.3,1
		c-1.7,0-3.1,1.4-3.1,3.1C36.1,5.9,37.5,7.3,39.3,7.3z"/>
</g>
</svg>
