<?xml version="1.0" encoding="utf-8"?>
<!-- Generator: Adobe Illustrator 19.0.1, SVG Export Plug-In . SVG Version: 6.00 Build 0)  -->
<svg version="1.0" id="Layer_1" xmlns="http://www.w3.org/2000/svg" xmlns:xlink="http://www.w3.org/1999/xlink" x="0px" y="0px"
	 viewBox="0 0 334 208" enable-background="new 0 0 334 208" xml:space="preserve">
<g>
	<defs>
		<rect id="SVGID_15_" x="0.3" y="0.3" width="333.3" height="207.3"/>
	</defs>
	<clipPath id="SVGID_2_">
		<use xlink:href="#SVGID_15_"  overflow="visible"/>
	</clipPath>
	<path clip-path="url(#SVGID_2_)" fill="none" stroke="#1D1D1B" stroke-width="2" stroke-miterlimit="10" d="M283.9,15h42v21h-42V15
		z M332.7,98.8h-54v-34l27-20l27,20V98.8z M152.4,16V2l-27,14V2l-27,14v34h81V2L152.4,16z M298.9,155c0,3.3-2.7,6-6,6
		c-3.3,0-6-2.7-6-6s2.7-6,6-6C296.2,149,298.9,151.7,298.9,155z M266.9,155c0,3.3-2.7,6-6,6c-3.3,0-6-2.7-6-6s2.7-6,6-6
		C264.2,149,266.9,151.7,266.9,155z M263.9,142c0-7,5.7-12.7,12.7-12.7c7,0,12.7,4.7,12.7,11.7 M300.2,140h-11c0,0-5.7,5.7-12.7,5.7
		c-7,0-12.7-3.7-12.7-3.7l-12,1c-1.1,0-2,0.9-2,2l-1,8c0,1.1,0.9,2,2,2h4.1c0-3.3,2.7-6,6-6c3.3,0,6,2.7,6,6H287c0-3.3,2.7-6,6-6
		c3.3,0,6,2.7,6,6h2.3c1.1,0,1.7-0.9,1.7-2l-1-11C301.9,140.9,301.3,140,300.2,140z"/>
</g>
<path fill="none" stroke="#1D1D1B" stroke-miterlimit="10" d="M295.4,16v20 M305.4,16v20 M315.4,16v20 M284.9,20.5h40 M284.9,25.5
	h40 M284.9,30.5h40"/>
<g>
	<defs>
		<rect id="SVGID_17_" x="0.3" y="0.3" width="333.3" height="207.3"/>
	</defs>
	<clipPath id="SVGID_4_">
		<use xlink:href="#SVGID_17_"  overflow="visible"/>
	</clipPath>
	<path clip-path="url(#SVGID_4_)" fill="none" stroke="#1D1D1B" stroke-width="2" stroke-miterlimit="10" d="M315.9,36v16
		 M1.3,170.9h56.6v-94l-28.2-7.7L1.3,76.9V170.9z"/>
</g>
<line fill="none" stroke="#3390D0" stroke-width="2" stroke-miterlimit="10" x1="29.9" y1="64" x2="29.9" y2="63"/>
<g>
	<defs>
		<rect id="SVGID_19_" x="0.3" y="0.3" width="333.3" height="207.3"/>
	</defs>
	<clipPath id="SVGID_6_">
		<use xlink:href="#SVGID_19_"  overflow="visible"/>
	</clipPath>
	
		<line clip-path="url(#SVGID_6_)" fill="none" stroke="#3390D0" stroke-width="2" stroke-miterlimit="10" stroke-dasharray="1.667,1.667" x1="29.9" y1="58.3" x2="29.9" y2="55.8"/>
	
		<path clip-path="url(#SVGID_6_)" fill="none" stroke="#3390D0" stroke-width="2" stroke-miterlimit="10" stroke-dasharray="1.832,1.832" d="
		M30.4,51.2c0.3-0.9,0.7-1.7,1.2-2.5"/>
	
		<line clip-path="url(#SVGID_6_)" fill="none" stroke="#3390D0" stroke-width="2" stroke-miterlimit="10" stroke-dasharray="1.947,1.947" x1="35" y1="45.3" x2="42.9" y2="38"/>
	
		<path clip-path="url(#SVGID_6_)" fill="none" stroke="#3390D0" stroke-width="2" stroke-miterlimit="10" stroke-dasharray="1.863,1.863" d="
		M46.7,35.1c0.8-0.4,1.8-0.7,2.6-0.9"/>
	
		<line clip-path="url(#SVGID_6_)" fill="none" stroke="#3390D0" stroke-width="2" stroke-miterlimit="10" stroke-dasharray="2.031,2.031" x1="54.3" y1="34" x2="89.9" y2="34"/>
	<path clip-path="url(#SVGID_6_)" fill="none" stroke="#3390D0" stroke-width="2" stroke-miterlimit="10" d="M90.9,34h1 M50.3,34.1
		c0.3,0,0.7-0.1,1-0.1h1 M43.6,37.4l0.7-0.7c0.2-0.2,0.5-0.4,0.8-0.6 M32.2,48c0.2-0.3,0.4-0.5,0.7-0.7l0.7-0.7 M29.9,55v-1
		c0-0.3,0-0.7,0.1-1 M29.9,61v-1"/>
</g>
<path fill="none" stroke="#3390D0" stroke-width="2" stroke-miterlimit="10" d="M185.9,34h1 M92.9,34h1"/>
<g>
	<defs>
		<rect id="SVGID_21_" x="0.3" y="0.3" width="333.3" height="207.3"/>
	</defs>
	<clipPath id="SVGID_8_">
		<use xlink:href="#SVGID_21_"  overflow="visible"/>
	</clipPath>
	
		<line clip-path="url(#SVGID_8_)" fill="none" stroke="#3390D0" stroke-width="2" stroke-miterlimit="10" stroke-dasharray="2.071,2.071" x1="192" y1="34" x2="215.8" y2="34"/>
	
		<path clip-path="url(#SVGID_8_)" fill="none" stroke="#3390D0" stroke-width="2" stroke-miterlimit="10" stroke-dasharray="1.85,1.85" d="
		M220.7,33.5c0.9-0.3,1.8-0.7,2.5-1.1"/>
	
		<line clip-path="url(#SVGID_8_)" fill="none" stroke="#3390D0" stroke-width="2" stroke-miterlimit="10" stroke-dasharray="1.697,1.697" x1="226.7" y1="29.3" x2="230.9" y2="25.1"/>
	
		<path clip-path="url(#SVGID_8_)" fill="none" stroke="#3390D0" stroke-width="2" stroke-miterlimit="10" stroke-dasharray="1.85,1.85" d="
		M234.5,22.2c0.8-0.4,1.7-0.7,2.6-1"/>
	
		<line clip-path="url(#SVGID_8_)" fill="none" stroke="#3390D0" stroke-width="2" stroke-miterlimit="10" stroke-dasharray="2.143,2.143" x1="242.3" y1="21" x2="249.8" y2="21"/>
	
		<path clip-path="url(#SVGID_8_)" fill="none" stroke="#3390D0" stroke-width="2" stroke-miterlimit="10" stroke-dasharray="1.427,1.427" d="
		M254.2,21.7c0.6,0.4,1.1,1,1.4,1.6"/>
	
		<line clip-path="url(#SVGID_8_)" fill="none" stroke="#3390D0" stroke-width="2" stroke-miterlimit="10" stroke-dasharray="2.036,2.036" x1="255.9" y1="28" x2="255.9" y2="79.9"/>
	
		<path clip-path="url(#SVGID_8_)" fill="none" stroke="#3390D0" stroke-width="2" stroke-miterlimit="10" stroke-dasharray="1.427,1.427" d="
		M256.6,84.3c0.4,0.6,1,1.1,1.6,1.4"/>
	
		<line clip-path="url(#SVGID_8_)" fill="none" stroke="#3390D0" stroke-width="2" stroke-miterlimit="10" stroke-dasharray="2,2" x1="262.9" y1="86" x2="269.9" y2="86"/>
	<path clip-path="url(#SVGID_8_)" fill="none" stroke="#3390D0" stroke-width="2" stroke-miterlimit="10" d="M270.9,86h1
		 M258.9,85.9c0.3,0.1,0.6,0.1,1,0.1h1 M255.9,81v1c0,0.3,0,0.7,0.1,1 M255.8,24c0.1,0.3,0.1,0.6,0.1,1v1 M250.8,21h1.1
		c0.3,0,0.7,0,1,0.1 M238.1,21.1c0.3-0.1,0.7-0.1,1-0.1h1.1 M231.5,24.5l0.7-0.7c0.2-0.2,0.5-0.4,0.8-0.6 M224,31.8
		c0.3-0.2,0.5-0.4,0.8-0.6l0.7-0.7 M216.9,34h1c0.3,0,0.7,0,1-0.1 M188.9,34h1"/>
</g>
<path fill="none" stroke="#3390D0" stroke-width="2" stroke-miterlimit="10" d="M315.9,103v1 M272.9,86h1"/>
<g>
	<defs>
		<rect id="SVGID_23_" x="0.3" y="0.3" width="333.3" height="207.3"/>
	</defs>
	<clipPath id="SVGID_10_">
		<use xlink:href="#SVGID_23_"  overflow="visible"/>
	</clipPath>
	
		<line clip-path="url(#SVGID_10_)" fill="none" stroke="#3390D0" stroke-width="2" stroke-miterlimit="10" stroke-dasharray="1.652,1.652" x1="315.9" y1="108.6" x2="315.9" y2="144.2"/>
	
		<path clip-path="url(#SVGID_10_)" fill="none" stroke="#3390D0" stroke-width="2" stroke-miterlimit="10" stroke-dasharray="1.443,1.443" d="
		M315.2,148.3c-0.4,0.6-1,1.1-1.7,1.4"/>
	
		<line clip-path="url(#SVGID_10_)" fill="none" stroke="#3390D0" stroke-width="2" stroke-miterlimit="10" stroke-dasharray="0.642,0.642" x1="310.2" y1="150" x2="309.2" y2="150"/>
	<path clip-path="url(#SVGID_10_)" fill="none" stroke="#3390D0" stroke-width="2" stroke-miterlimit="10" d="M308.9,150h-1
		 M312.8,149.9c-0.3,0.1-0.6,0.1-1,0.1h-1 M315.9,145v1c0,0.3,0,0.7-0.1,1 M315.9,106v1"/>
</g>
<path fill="none" stroke="#3390D0" stroke-width="2" stroke-miterlimit="10" d="M222.9,186h1 M306.9,150h-1"/>
<g>
	<defs>
		<rect id="SVGID_25_" x="0.3" y="0.3" width="333.3" height="207.3"/>
	</defs>
	<clipPath id="SVGID_12_">
		<use xlink:href="#SVGID_25_"  overflow="visible"/>
	</clipPath>
	
		<line clip-path="url(#SVGID_12_)" fill="none" stroke="#3390D0" stroke-width="2" stroke-miterlimit="10" stroke-dasharray="2.048,2.048" x1="229" y1="186" x2="309.9" y2="186"/>
	
		<path clip-path="url(#SVGID_12_)" fill="none" stroke="#3390D0" stroke-width="2" stroke-miterlimit="10" stroke-dasharray="1.427,1.427" d="
		M314.2,185.3c0.6-0.4,1.1-1,1.4-1.6"/>
	
		<line clip-path="url(#SVGID_12_)" fill="none" stroke="#3390D0" stroke-width="2" stroke-miterlimit="10" stroke-dasharray="2.143,2.143" x1="315.9" y1="178.8" x2="315.9" y2="154.1"/>
	<path clip-path="url(#SVGID_12_)" fill="none" stroke="#3390D0" stroke-width="2" stroke-miterlimit="10" d="M315.9,153V152
		 M315.8,183c0.1-0.3,0.1-0.6,0.1-1v-1.1 M310.9,186h1c0.3,0,0.7,0,1-0.1 M225.9,186h1"/>
</g>
<path fill="none" stroke="#3390D0" stroke-width="2" stroke-miterlimit="10" d="M134.9,186h-1 M315.9,151v-1"/>
<g>
	<defs>
		<rect id="SVGID_27_" x="0.3" y="0.3" width="333.3" height="207.3"/>
	</defs>
	<clipPath id="SVGID_14_">
		<use xlink:href="#SVGID_27_"  overflow="visible"/>
	</clipPath>
	
		<line clip-path="url(#SVGID_14_)" fill="none" stroke="#3390D0" stroke-width="2" stroke-miterlimit="10" stroke-dasharray="2.053,2.053" x1="128.8" y1="186" x2="56" y2="186"/>
	
		<path clip-path="url(#SVGID_14_)" fill="none" stroke="#3390D0" stroke-width="2" stroke-miterlimit="10" stroke-dasharray="1.427,1.427" d="
		M51.6,185.3c-0.6-0.4-1.1-1-1.4-1.6"/>
	
		<line clip-path="url(#SVGID_14_)" fill="none" stroke="#3390D0" stroke-width="2" stroke-miterlimit="10" stroke-dasharray="0.333,0.333" x1="49.9" y1="180.6" x2="49.9" y2="180.1"/>
	<path clip-path="url(#SVGID_14_)" fill="none" stroke="#3390D0" stroke-width="2" stroke-miterlimit="10" d="M49.9,180v-1 M50,183
		c-0.1-0.3-0.1-0.6-0.1-1v-1 M54.9,186h-1c-0.3,0-0.7,0-1-0.1 M131.9,186h-1"/>
</g>
<path fill="none" stroke="#3390D0" stroke-width="2" stroke-miterlimit="10" d="M63.9,140h1 M49.9,178v-1"/>
<g>
	<defs>
		<rect id="SVGID_29_" x="0.3" y="0.3" width="333.3" height="207.3"/>
	</defs>
	<clipPath id="SVGID_16_">
		<use xlink:href="#SVGID_29_"  overflow="visible"/>
	</clipPath>
	
		<line clip-path="url(#SVGID_16_)" fill="none" stroke="#3390D0" stroke-width="2" stroke-miterlimit="10" stroke-dasharray="2,2" x1="69.9" y1="140" x2="116.9" y2="140"/>
	
		<path clip-path="url(#SVGID_16_)" fill="none" stroke="#3390D0" stroke-width="2" stroke-miterlimit="10" stroke-dasharray="1.427,1.427" d="
		M121.2,139.3c0.6-0.4,1.1-1,1.4-1.6"/>
	
		<line clip-path="url(#SVGID_16_)" fill="none" stroke="#3390D0" stroke-width="2" stroke-miterlimit="10" stroke-dasharray="1.963,1.963" x1="122.9" y1="133" x2="122.9" y2="83"/>
	
		<path clip-path="url(#SVGID_16_)" fill="none" stroke="#3390D0" stroke-width="2" stroke-miterlimit="10" stroke-dasharray="1.427,1.427" d="
		M123.6,78.7c0.4-0.6,1-1.1,1.6-1.4"/>
	
		<line clip-path="url(#SVGID_16_)" fill="none" stroke="#3390D0" stroke-width="2" stroke-miterlimit="10" stroke-dasharray="2.083,2.083" x1="130" y1="77" x2="149.8" y2="77"/>
	
		<path clip-path="url(#SVGID_16_)" fill="none" stroke="#3390D0" stroke-width="2" stroke-miterlimit="10" stroke-dasharray="1.427,1.427" d="
		M154.2,77.7c0.6,0.4,1.1,1,1.4,1.6"/>
	
		<line clip-path="url(#SVGID_16_)" fill="none" stroke="#3390D0" stroke-width="2" stroke-miterlimit="10" stroke-dasharray="2.5,2.5" x1="155.9" y1="84.7" x2="155.9" y2="88.5"/>
	
		<path clip-path="url(#SVGID_16_)" fill="none" stroke="#3390D0" stroke-width="2" stroke-miterlimit="10" stroke-dasharray="1.427,1.427" d="
		M156.6,93.3c0.4,0.6,1,1.1,1.6,1.4"/>
	
		<line clip-path="url(#SVGID_16_)" fill="none" stroke="#3390D0" stroke-width="2" stroke-miterlimit="10" stroke-dasharray="2,2" x1="162.9" y1="95" x2="269.9" y2="95"/>
	<path clip-path="url(#SVGID_16_)" fill="none" stroke="#3390D0" stroke-width="2" stroke-miterlimit="10" d="M270.9,95h1
		 M158.9,94.9c0.3,0.1,0.6,0.1,1,0.1h1 M155.9,89.7V91c0,0.3,0,0.7,0.1,1 M155.8,80c0.1,0.3,0.1,0.6,0.1,1v1.2 M150.9,77h1
		c0.3,0,0.7,0,1,0.1 M125.9,77.1c0.3-0.1,0.6-0.1,1-0.1h1 M122.9,82v-1c0-0.3,0-0.7,0.1-1 M122.8,137c0.1-0.3,0.1-0.6,0.1-1v-1
		 M117.9,140h1c0.3,0,0.7,0,1-0.1 M66.9,140h1"/>
</g>
<path fill="none" stroke="#3390D0" stroke-width="2" stroke-miterlimit="10" d="M138.9,54v1 M272.9,95h1"/>
<line fill="none" stroke="#3390D0" stroke-width="2" stroke-miterlimit="10" stroke-dasharray="2,2" x1="138.9" y1="57" x2="138.9" y2="159"/>
<line fill="none" stroke="#3390D0" stroke-width="2" stroke-miterlimit="10" x1="138.9" y1="160" x2="138.9" y2="161"/>
<path fill="none" stroke="#1D1D1B" stroke-width="2.048" stroke-miterlimit="10" d="M320.4,76.8h-10v-10h10V76.8z M300.4,76.8h-10
	v-10h10V76.8z M49.7,163h-10v-10h10V163z M39.7,163h-10v-10h10V163z M29.7,163h-10v-10h10V163z M19.7,163h-10v-10h10V163z M49.7,146
	h-10v-10h10V146z M39.7,146h-10v-10h10V146z M29.7,146h-10v-10h10V146z M19.7,146h-10v-10h10V146z M49.7,129h-10v-10h10V129z
	 M39.7,129h-10v-10h10V129z M29.7,129h-10v-10h10V129z M19.7,129h-10v-10h10V129z M49.7,112h-10v-10h10V112z M39.7,112h-10v-10h10
	V112z M29.7,112h-10v-10h10V112z M19.7,112h-10v-10h10V112z M49.7,95h-10V85h10V95z M39.7,95h-10V85h10V95z M29.7,95h-10V85h10V95z
	 M19.7,95h-10V85h10V95z"/>
<g>
	<defs>
		<rect id="SVGID_31_" x="0.3" y="0.3" width="333.3" height="207.3"/>
	</defs>
	<clipPath id="SVGID_18_">
		<use xlink:href="#SVGID_31_"  overflow="visible"/>
	</clipPath>
	<path clip-path="url(#SVGID_18_)" fill="none" stroke="#1D1D1B" stroke-miterlimit="10" d="M189.4,167v20 M199.4,167v20 M209.4,167
		v20 M178.9,171.5h40 M178.9,176.5h40 M178.9,181.5h40 M149.4,167v20 M159.4,167v20 M169.4,167v20 M138.9,171.5h40 M138.9,176.5h40
		 M138.9,181.5h40 M189.4,187v20 M199.4,187v20 M209.4,187v20 M178.9,191.5h40 M178.9,196.5h40 M178.9,201.5h40 M149.4,187v20
		 M159.4,187v20 M169.4,187v20 M138.9,191.5h40 M138.9,196.5h40 M138.9,201.5h40"/>
	
		<rect x="138.9" y="166.2" clip-path="url(#SVGID_18_)" fill="none" stroke="#1D1D1B" stroke-width="2.023" stroke-miterlimit="10" width="80" height="40.4"/>
	<path clip-path="url(#SVGID_18_)" fill="none" stroke="#1D1D1B" stroke-miterlimit="10" d="M179.4,166v41 M137.9,186.5h81"/>
</g>
</svg>
