<?xml version="1.0" encoding="utf-8"?>
<!-- Generator: Adobe Illustrator 19.0.1, SVG Export Plug-In . SVG Version: 6.00 Build 0)  -->
<svg version="1.0" id="Layer_1" xmlns="http://www.w3.org/2000/svg" xmlns:xlink="http://www.w3.org/1999/xlink" x="0px" y="0px"
	 viewBox="0 0 140 140" enable-background="new 0 0 140 140" xml:space="preserve">
<circle opacity="0.25" cx="70" cy="70" r="59.5"/>
<g>
	<defs>
		<circle id="SVGID_35_" cx="70" cy="70" r="59.5"/>
	</defs>
	<clipPath id="SVGID_2_">
		<use xlink:href="#SVGID_35_"  overflow="visible"/>
	</clipPath>
	<polygon clip-path="url(#SVGID_2_)" fill="none" stroke="#FFFFFF" stroke-width="2" stroke-miterlimit="10" points="38.6,92.6 
		38.6,89.1 45.3,92.6 45.3,89.1 52,92.6 52,101.1 32.4,101.1 31.9,89.1 	"/>
	<polygon clip-path="url(#SVGID_2_)" fill="none" stroke="#FFFFFF" stroke-width="2" stroke-miterlimit="10" points="27.8,79.7 
		31.3,79.7 32.4,101.1 26.7,101.1 	"/>
	<g clip-path="url(#SVGID_2_)">
		<circle fill="none" stroke="#FFFFFF" stroke-width="2" stroke-miterlimit="10" cx="94.3" cy="56.2" r="13.2"/>
		<g>
			<g>
				<g>
					<path fill="none" stroke="#FFFFFF" stroke-width="2" stroke-miterlimit="10" d="M111,48.2c2.1-0.2,2.3,1.8,4.4,1.7
						c2.1-0.2,2-2.2,4.1-2.3c2.1-0.2,2.3,1.8,4.4,1.7c2.1-0.2,2-2.2,4.1-2.3c2.1-0.2,2.3,1.8,4.4,1.7"/>
				</g>
				<g>
					<path fill="none" stroke="#FFFFFF" stroke-width="2" stroke-miterlimit="10" d="M55.8,64.1c2.1-0.2,2.3,1.8,4.4,1.7
						c2.1-0.2,2-2.2,4.1-2.3c2.1-0.2,2.3,1.8,4.4,1.7c2.1-0.2,2-2.2,4.1-2.3s2.3,1.8,4.4,1.7"/>
				</g>
			</g>
		</g>
		<g>
			<g>
				<g>
					<path fill="none" stroke="#FFFFFF" stroke-width="2" stroke-miterlimit="10" d="M102,73.2c0.2,2.1-1.8,2.3-1.7,4.4
						c0.2,2.1,2.2,2,2.3,4.1c0.2,2.1-1.8,2.3-1.7,4.4c0.2,2.1,2.2,2,2.3,4.1c0.2,2.1-1.8,2.3-1.7,4.4"/>
				</g>
				<g>
					<path fill="none" stroke="#FFFFFF" stroke-width="2" stroke-miterlimit="10" d="M86.1,18c0.2,2.1-1.8,2.3-1.7,4.4
						c0.2,2.1,2.2,2,2.3,4.1c0.2,2.1-1.8,2.3-1.7,4.4c0.2,2.1,2.2,2,2.3,4.1s-1.8,2.3-1.7,4.4"/>
				</g>
			</g>
		</g>
		<g>
			<g>
				<g>
					<path fill="none" stroke="#FFFFFF" stroke-width="2" stroke-miterlimit="10" d="M111.7,62.6c1.6,1.4,0.3,2.9,1.9,4.3
						c1.6,1.4,2.9-0.1,4.5,1.2c1.6,1.4,0.3,2.9,1.9,4.3c1.6,1.4,2.9-0.1,4.5,1.2c1.6,1.4,0.3,2.9,1.9,4.3"/>
				</g>
				<g>
					<path fill="none" stroke="#FFFFFF" stroke-width="2" stroke-miterlimit="10" d="M61.4,34.8c1.6,1.4,0.3,2.9,1.9,4.3
						c1.6,1.4,2.9-0.1,4.5,1.2c1.6,1.4,0.3,2.9,1.9,4.3c1.6,1.4,2.9-0.1,4.5,1.2c1.6,1.4,0.3,2.9,1.9,4.3"/>
				</g>
			</g>
		</g>
		<g>
			<g>
				<g>
					<path fill="none" stroke="#FFFFFF" stroke-width="2" stroke-miterlimit="10" d="M100.3,38.5c1.4-1.6,2.9-0.3,4.3-1.9
						c1.4-1.6-0.1-2.9,1.2-4.5c1.4-1.6,2.9-0.3,4.3-1.9c1.4-1.6-0.1-2.9,1.2-4.5c1.4-1.6,2.9-0.3,4.3-1.9"/>
				</g>
				<g>
					<path fill="none" stroke="#FFFFFF" stroke-width="2" stroke-miterlimit="10" d="M72.6,88.8c1.4-1.6,2.9-0.3,4.3-1.9
						c1.4-1.6-0.1-2.9,1.2-4.5c1.4-1.6,2.9-0.3,4.3-1.9c1.4-1.6-0.1-2.9,1.2-4.5c1.4-1.6,2.9-0.3,4.3-1.9"/>
				</g>
			</g>
		</g>
	</g>
	
		<line clip-path="url(#SVGID_2_)" fill="none" stroke="#FFFFFF" stroke-miterlimit="10" stroke-dasharray="2" x1="25.5" y1="30.9" x2="81.6" y2="128.1"/>
</g>
<circle fill="none" stroke="#FFFFFF" stroke-width="2" stroke-miterlimit="10" cx="70" cy="70" r="59.5"/>
</svg>
