<?xml version="1.0" encoding="utf-8"?>
<!-- Generator: Adobe Illustrator 19.0.1, SVG Export Plug-In . SVG Version: 6.00 Build 0)  -->
<svg version="1.0" id="Layer_1" xmlns="http://www.w3.org/2000/svg" xmlns:xlink="http://www.w3.org/1999/xlink" x="0px" y="0px"
	 viewBox="0 0 140 140" enable-background="new 0 0 140 140" xml:space="preserve">
<circle opacity="0.25" cx="70" cy="70" r="59.5"/>
<g>
	<g>
		<g>
			<path fill="none" stroke="#FFFFFF" stroke-width="2" stroke-miterlimit="10" d="M10.4,70c0-23.5,14.3-45.3,35.9-54.6
				c21.9-9.4,47.9-4.6,65,11.9c8.8,8.6,14.9,19.8,17.1,31.9"/>
			<g>
				<polygon fill="#FFFFFF" points="118.9,54.4 120,52.8 128.1,58.4 133.1,49.9 134.9,51 128.8,61.3 				"/>
			</g>
		</g>
	</g>
	<g>
		<g>
			<path fill="none" stroke="#FFFFFF" stroke-width="2" stroke-miterlimit="10" d="M128.8,70c0,23.5-14.3,45.3-35.9,54.6
				c-21.9,9.4-47.9,4.6-65-11.9C19,104.2,13,92.9,10.7,80.8"/>
			<g>
				<polygon fill="#FFFFFF" points="20.3,85.6 19.1,87.2 11,81.6 6,90.1 4.3,89 10.4,78.7 				"/>
			</g>
		</g>
	</g>
	<g>
		<path fill="#FFFFFF" d="M77.6,32.2c-0.2,1.3-0.5,2.2-1,2.8c-0.5,0.6-1.3,0.8-2.3,0.7c-1-0.1-1.6-0.5-2-1.2c-0.4-0.7-0.5-1.7-0.3-3
			c0.2-1.3,0.5-2.2,1-2.8s1.3-0.8,2.3-0.7c1,0.1,1.7,0.5,2,1.2C77.7,30,77.8,30.9,77.6,32.2z M76.1,32.1c0.1-0.9,0.1-1.5-0.1-1.9
			c-0.2-0.4-0.5-0.7-0.9-0.7c-0.5-0.1-0.8,0.1-1.1,0.5c-0.3,0.4-0.4,1-0.5,1.9c-0.1,0.9-0.1,1.5,0.1,1.9c0.2,0.4,0.5,0.7,0.9,0.7
			c0.5,0.1,0.8-0.1,1.1-0.5C75.8,33.5,76,32.9,76.1,32.1z"/>
		<path fill="#FFFFFF" d="M81.2,37.1l1.6-4.6l-1.7-0.6l0.3-1c0.5,0.1,0.9,0.2,1.1,0.2s0.5-0.1,0.7-0.2c0.2-0.1,0.4-0.3,0.6-0.6
			l1.1,0.4l-2.4,6.9L81.2,37.1z"/>
		<path fill="#FFFFFF" d="M87.9,40.1l2.5-4.2L88.9,35l0.5-0.9c0.5,0.2,0.8,0.4,1.1,0.4c0.3,0.1,0.5,0,0.7,0c0.2-0.1,0.5-0.3,0.7-0.5
			l1,0.6l-3.8,6.3L87.9,40.1z"/>
		<path fill="#FFFFFF" d="M93.8,44.5l3.4-3.6l-1.3-1.2l0.7-0.7c0.4,0.3,0.7,0.5,1,0.7c0.3,0.1,0.5,0.1,0.7,0.1
			c0.2,0,0.5-0.1,0.8-0.3l0.8,0.8l-5,5.4L93.8,44.5z"/>
		<path fill="#FFFFFF" d="M103.5,50.4c-1.1,0.8-2,1.1-2.8,1.1c-0.8,0-1.4-0.4-2-1.2c-0.6-0.8-0.7-1.6-0.5-2.3c0.2-0.7,0.9-1.5,2-2.2
			c1.1-0.8,2-1.1,2.8-1.1c0.8,0,1.4,0.4,2,1.2c0.6,0.8,0.7,1.6,0.5,2.3C105.2,48.9,104.5,49.7,103.5,50.4z M102.6,49.2
			c0.7-0.5,1.2-1,1.4-1.4c0.2-0.4,0.2-0.8-0.1-1.2s-0.6-0.5-1.1-0.5s-1,0.3-1.8,0.9c-0.7,0.5-1.2,1-1.4,1.4
			c-0.2,0.4-0.2,0.8,0.1,1.2c0.3,0.4,0.6,0.5,1.1,0.5C101.3,50,101.9,49.7,102.6,49.2z"/>
		<path fill="#FFFFFF" d="M102.3,56.3l4.5-1.9l-0.7-1.6l0.9-0.4c0.2,0.5,0.4,0.8,0.6,1c0.2,0.2,0.4,0.3,0.6,0.4
			c0.2,0.1,0.5,0.1,0.9,0l0.4,1l-6.7,2.9L102.3,56.3z"/>
		<path fill="#FFFFFF" d="M108.7,65.7c-1.3,0.2-2.3,0.2-3-0.1c-0.7-0.3-1.1-1-1.3-2c-0.2-1,0-1.7,0.5-2.3c0.5-0.6,1.4-1,2.7-1.2
			c1.3-0.2,2.3-0.2,3,0.1c0.7,0.3,1.1,1,1.3,1.9c0.2,1,0,1.7-0.5,2.3C110.9,65.1,109.9,65.5,108.7,65.7z M108.4,64.2
			c0.9-0.2,1.5-0.4,1.8-0.7c0.4-0.3,0.5-0.7,0.4-1.1s-0.4-0.7-0.8-0.9c-0.4-0.1-1.1-0.1-2,0.1c-0.9,0.2-1.5,0.4-1.8,0.7
			c-0.4,0.3-0.5,0.6-0.4,1.1c0.1,0.4,0.4,0.7,0.8,0.9C106.9,64.4,107.5,64.4,108.4,64.2z"/>
		<path fill="#FFFFFF" d="M105.2,70.6l4.9,0.1l0-1.8l1,0c0,0.5,0.1,0.9,0.2,1.2s0.2,0.5,0.4,0.6c0.2,0.2,0.5,0.3,0.8,0.4l0,1.1
			l-7.3-0.1L105.2,70.6z"/>
		<path fill="#FFFFFF" d="M107.2,81.8c-1.3-0.3-2.2-0.7-2.7-1.3c-0.5-0.6-0.6-1.4-0.4-2.3c0.2-1,0.7-1.6,1.4-1.9s1.7-0.3,3,0
			s2.2,0.7,2.7,1.3c0.5,0.6,0.6,1.4,0.4,2.3c-0.2,1-0.7,1.6-1.4,1.9C109.5,82.1,108.5,82.1,107.2,81.8z M107.5,80.3
			c0.9,0.2,1.5,0.2,1.9,0.1c0.4-0.1,0.7-0.4,0.8-0.8c0.1-0.4,0-0.8-0.4-1.1c-0.4-0.3-1-0.5-1.8-0.7c-0.9-0.2-1.5-0.2-1.9-0.1
			c-0.4,0.1-0.7,0.4-0.8,0.8c-0.1,0.4,0,0.8,0.4,1.1C106.1,79.9,106.7,80.1,107.5,80.3z"/>
		<path fill="#FFFFFF" d="M104,89.3c-1.2-0.6-2-1.2-2.3-1.9c-0.4-0.7-0.3-1.5,0.1-2.4c0.4-0.9,1-1.4,1.8-1.6c0.8-0.2,1.7,0,2.9,0.6
			c1.2,0.6,2,1.2,2.3,1.9c0.4,0.7,0.3,1.5-0.1,2.4c-0.4,0.9-1,1.4-1.8,1.6C106.1,90,105.2,89.8,104,89.3z M104.6,87.9
			c0.8,0.4,1.4,0.5,1.9,0.5c0.5,0,0.8-0.2,1-0.6c0.2-0.4,0.1-0.8-0.1-1.2c-0.3-0.4-0.8-0.7-1.6-1.1c-0.8-0.4-1.4-0.5-1.9-0.5
			c-0.5,0-0.8,0.2-1,0.6c-0.2,0.4-0.1,0.8,0.1,1.2C103.3,87.1,103.8,87.5,104.6,87.9z"/>
		<path fill="#FFFFFF" d="M99.3,95.9c-1-0.8-1.7-1.6-1.9-2.3c-0.2-0.7,0-1.5,0.6-2.3c0.6-0.8,1.3-1.2,2-1.2c0.8,0,1.7,0.4,2.7,1.2
			c1,0.8,1.7,1.6,1.9,2.3c0.2,0.7,0,1.5-0.6,2.3c-0.6,0.8-1.3,1.2-2.1,1.2C101.2,97.1,100.3,96.7,99.3,95.9z M100.2,94.7
			c0.7,0.5,1.3,0.8,1.7,0.9c0.5,0.1,0.8-0.1,1.1-0.4c0.3-0.4,0.3-0.8,0.1-1.2c-0.2-0.4-0.7-0.9-1.3-1.4c-0.7-0.5-1.3-0.8-1.7-0.9
			c-0.5-0.1-0.8,0.1-1.1,0.4c-0.3,0.4-0.3,0.8-0.1,1.2C99.1,93.7,99.5,94.1,100.2,94.7z"/>
		<path fill="#FFFFFF" d="M93.3,96.6l3.2,3.7l1.3-1.2l0.7,0.8c-0.4,0.4-0.6,0.7-0.8,0.9c-0.1,0.2-0.2,0.5-0.2,0.7
			c0,0.2,0.1,0.5,0.3,0.8l-0.9,0.7l-4.8-5.5L93.3,96.6z"/>
		<path fill="#FFFFFF" d="M86.3,105.5c-0.6-1.2-0.9-2.1-0.8-2.9c0.1-0.8,0.6-1.4,1.5-1.9c0.9-0.5,1.6-0.6,2.3-0.2
			c0.7,0.3,1.4,1,2,2.2c0.6,1.1,0.9,2.1,0.8,2.9c-0.1,0.8-0.6,1.4-1.4,1.9c-0.9,0.5-1.6,0.6-2.3,0.2
			C87.6,107.4,86.9,106.7,86.3,105.5z M87.7,104.8c0.4,0.8,0.8,1.3,1.2,1.5c0.4,0.3,0.8,0.3,1.2,0.1c0.4-0.2,0.6-0.6,0.6-1
			c0-0.5-0.2-1.1-0.7-1.8c-0.4-0.8-0.8-1.3-1.2-1.5s-0.8-0.3-1.2-0.1c-0.4,0.2-0.6,0.6-0.6,1C87,103.4,87.2,104,87.7,104.8z"/>
		<path fill="#FFFFFF" d="M80.6,103.7l1.4,4.7l1.7-0.5l0.3,1c-0.5,0.2-0.8,0.3-1,0.5c-0.2,0.2-0.4,0.4-0.5,0.6
			c-0.1,0.2-0.1,0.5-0.1,0.9l-1.1,0.3l-2.1-7L80.6,103.7z"/>
		<path fill="#FFFFFF" d="M70.6,109c-0.1-1.3,0-2.3,0.4-2.9c0.4-0.7,1.1-1,2.1-1.1c1-0.1,1.7,0.2,2.2,0.7c0.5,0.6,0.8,1.5,0.9,2.8
			c0.1,1.3,0,2.3-0.5,2.9c-0.4,0.7-1.1,1-2.1,1.1c-1,0.1-1.7-0.2-2.2-0.7C71,111.3,70.7,110.4,70.6,109z M72.1,108.9
			c0.1,0.9,0.2,1.5,0.5,1.9c0.2,0.4,0.6,0.6,1.1,0.5c0.5,0,0.8-0.3,0.9-0.7s0.2-1.1,0.2-1.9c-0.1-0.9-0.2-1.5-0.5-1.9
			c-0.2-0.4-0.6-0.6-1-0.5c-0.5,0-0.8,0.3-0.9,0.7C72.1,107.4,72,108,72.1,108.9z"/>
		<path fill="#FFFFFF" d="M66.1,105l-0.6,4.9l1.8,0.2l-0.1,1c-0.5,0-0.9,0-1.2,0c-0.3,0.1-0.5,0.2-0.7,0.3c-0.2,0.2-0.3,0.4-0.5,0.8
			l-1.1-0.1l0.9-7.3L66.1,105z"/>
		<path fill="#FFFFFF" d="M54.7,105.9c0.4-1.2,1-2.1,1.6-2.5c0.6-0.4,1.4-0.5,2.4-0.2c0.9,0.3,1.5,0.9,1.7,1.6
			c0.2,0.7,0.1,1.7-0.3,3c-0.4,1.2-1,2.1-1.6,2.5c-0.6,0.4-1.4,0.5-2.3,0.2c-0.9-0.3-1.5-0.9-1.7-1.6
			C54.2,108.1,54.3,107.1,54.7,105.9z M56.2,106.4c-0.3,0.8-0.4,1.5-0.3,1.9c0.1,0.5,0.3,0.8,0.7,0.9c0.4,0.1,0.8,0.1,1.1-0.3
			c0.3-0.3,0.6-0.9,0.9-1.7c0.3-0.8,0.4-1.5,0.3-1.9c-0.1-0.5-0.3-0.8-0.7-0.9c-0.4-0.1-0.8-0.1-1.1,0.3
			C56.8,105,56.5,105.5,56.2,106.4z"/>
		<path fill="#FFFFFF" d="M52.3,100.4l-2.6,4.2l1.5,0.9l-0.5,0.9c-0.4-0.2-0.8-0.4-1.1-0.4c-0.3-0.1-0.5,0-0.7,0s-0.5,0.2-0.7,0.5
			l-1-0.6l3.8-6.3L52.3,100.4z"/>
		<path fill="#FFFFFF" d="M46.4,96L43,99.6l1.3,1.2l-0.7,0.7c-0.4-0.3-0.7-0.5-1-0.7c-0.3-0.1-0.5-0.2-0.7-0.1
			c-0.2,0-0.5,0.1-0.8,0.3l-0.8-0.8l5-5.3L46.4,96z"/>
		<path fill="#FFFFFF" d="M36.7,90c1.1-0.8,2-1.1,2.8-1.1c0.8,0,1.4,0.4,2,1.3c0.6,0.8,0.7,1.6,0.5,2.3c-0.2,0.7-0.9,1.5-2,2.2
			s-2,1.1-2.8,1.1s-1.4-0.4-2-1.2c-0.6-0.8-0.7-1.6-0.5-2.3C35,91.4,35.7,90.7,36.7,90z M37.6,91.2c-0.7,0.5-1.2,1-1.4,1.4
			C36,93,36,93.4,36.3,93.8s0.6,0.5,1.1,0.5c0.5-0.1,1-0.3,1.8-0.8c0.7-0.5,1.2-1,1.4-1.4c0.2-0.4,0.2-0.8-0.1-1.2
			c-0.3-0.4-0.6-0.5-1.1-0.5C38.9,90.4,38.3,90.7,37.6,91.2z"/>
		<path fill="#FFFFFF" d="M38,84.1L33.4,86l0.7,1.6L33.2,88c-0.2-0.5-0.4-0.8-0.6-1c-0.2-0.2-0.4-0.3-0.6-0.4
			c-0.2-0.1-0.5-0.1-0.9,0l-0.4-1l6.8-2.8L38,84.1z"/>
		<path fill="#FFFFFF" d="M31.6,74.6c1.3-0.2,2.3-0.2,3,0.1c0.7,0.3,1.1,1,1.3,2c0.2,1,0,1.7-0.5,2.3c-0.5,0.6-1.4,1-2.7,1.2
			c-1.3,0.2-2.3,0.2-3-0.1c-0.7-0.3-1.1-1-1.3-2c-0.2-1,0-1.7,0.5-2.3C29.4,75.3,30.3,74.9,31.6,74.6z M31.9,76.2
			c-0.9,0.2-1.5,0.4-1.8,0.7c-0.4,0.3-0.5,0.7-0.4,1.1c0.1,0.4,0.3,0.7,0.8,0.9c0.4,0.1,1.1,0.1,2,0c0.9-0.2,1.5-0.4,1.8-0.7
			c0.4-0.3,0.5-0.6,0.4-1.1c-0.1-0.4-0.3-0.7-0.8-0.9C33.4,76,32.8,76,31.9,76.2z"/>
		<path fill="#FFFFFF" d="M31.6,66.6c1.3,0,2.3,0.3,2.9,0.8c0.6,0.5,0.9,1.2,0.9,2.2c0,1-0.3,1.7-1,2.1c-0.6,0.4-1.6,0.7-2.9,0.6
			c-1.3,0-2.3-0.3-2.9-0.8c-0.6-0.5-0.9-1.2-0.9-2.2c0-1,0.3-1.7,1-2.1C29.3,66.7,30.3,66.5,31.6,66.6z M31.5,68.1
			c-0.9,0-1.5,0.1-1.9,0.3c-0.4,0.2-0.6,0.5-0.6,1c0,0.5,0.2,0.8,0.6,1c0.4,0.2,1,0.3,1.9,0.4s1.5-0.1,1.9-0.3
			c0.4-0.2,0.6-0.5,0.6-1c0-0.5-0.2-0.8-0.6-1C33,68.2,32.4,68.1,31.5,68.1z"/>
		<path fill="#FFFFFF" d="M36,62.5l-4.8-1.1l-0.4,1.7l-1-0.2c0.1-0.5,0.1-0.9,0.1-1.2c0-0.3-0.1-0.5-0.3-0.7
			c-0.2-0.2-0.4-0.4-0.7-0.5l0.3-1.1l7.1,1.7L36,62.5z"/>
		<path fill="#FFFFFF" d="M36.4,51.1c1.2,0.6,2,1.2,2.3,1.9c0.4,0.7,0.3,1.5-0.1,2.4c-0.4,0.9-1,1.4-1.8,1.6
			c-0.8,0.2-1.7-0.1-2.9-0.6c-1.2-0.6-2-1.2-2.3-1.9c-0.4-0.7-0.3-1.5,0.1-2.4c0.4-0.9,1-1.4,1.8-1.6C34.3,50.4,35.2,50.6,36.4,51.1
			z M35.8,52.5C35,52.2,34.4,52,33.9,52c-0.5,0-0.8,0.2-1,0.6c-0.2,0.4-0.2,0.8,0.1,1.2c0.3,0.4,0.8,0.7,1.6,1.1
			c0.8,0.4,1.4,0.6,1.9,0.5c0.5,0,0.8-0.2,1-0.6c0.2-0.4,0.2-0.8-0.1-1.2C37.1,53.3,36.6,52.9,35.8,52.5z"/>
		<path fill="#FFFFFF" d="M42.1,49.3l-3.9-3l-1.1,1.4l-0.8-0.6c0.3-0.4,0.5-0.8,0.6-1c0.1-0.3,0.1-0.5,0-0.7
			c-0.1-0.2-0.2-0.5-0.4-0.8l0.7-0.9l5.8,4.5L42.1,49.3z"/>
		<path fill="#FFFFFF" d="M47.2,39.1c0.9,1,1.3,1.9,1.4,2.7c0.1,0.8-0.3,1.5-1,2.1c-0.7,0.6-1.5,0.9-2.2,0.7
			c-0.8-0.2-1.6-0.7-2.4-1.7c-0.9-1-1.3-1.9-1.4-2.6c-0.1-0.8,0.3-1.5,1-2.1c0.7-0.6,1.5-0.9,2.3-0.7C45.5,37.5,46.3,38.1,47.2,39.1
			z M46,40.1c-0.6-0.7-1.1-1.1-1.5-1.3c-0.4-0.2-0.8-0.1-1.2,0.2c-0.3,0.3-0.5,0.7-0.4,1.1s0.4,1,1,1.7c0.6,0.7,1.1,1.1,1.5,1.3
			c0.4,0.2,0.8,0.1,1.2-0.2c0.3-0.3,0.5-0.7,0.4-1.1S46.6,40.7,46,40.1z"/>
		<path fill="#FFFFFF" d="M53.1,39.7l-2.4-4.3l-1.6,0.9l-0.5-0.9c0.4-0.3,0.7-0.5,0.9-0.7c0.2-0.2,0.3-0.4,0.3-0.7
			c0-0.2,0-0.5-0.1-0.9l1-0.5l3.5,6.4L53.1,39.7z"/>
		<path fill="#FFFFFF" d="M59.9,36.8l-1.4-4.7l-1.7,0.5l-0.3-1c0.5-0.2,0.8-0.3,1.1-0.5s0.4-0.4,0.5-0.6c0.1-0.2,0.1-0.5,0.1-0.9
			l1.1-0.3l2.1,7L59.9,36.8z"/>
		<path fill="#FFFFFF" d="M67.1,35.4l-0.4-4.9l-1.8,0.1l-0.1-1c0.5-0.1,0.9-0.2,1.1-0.3c0.3-0.1,0.4-0.3,0.6-0.5
			c0.1-0.2,0.2-0.5,0.3-0.8L68,28l0.6,7.3L67.1,35.4z"/>
	</g>
	<circle fill="none" stroke="#FFFFFF" stroke-miterlimit="10" stroke-dasharray="2" cx="70.2" cy="70.3" r="19.5"/>
</g>
<line fill="none" stroke="#FFFFFF" stroke-width="2" stroke-miterlimit="10" x1="69.6" y1="64" x2="69.6" y2="76"/>
<line fill="none" stroke="#FFFFFF" stroke-width="2" stroke-miterlimit="10" x1="75.6" y1="70" x2="63.6" y2="70"/>
</svg>
