<?xml version="1.0" encoding="utf-8"?>
<!-- Generator: Adobe Illustrator 19.0.1, SVG Export Plug-In . SVG Version: 6.00 Build 0)  -->
<svg version="1.0" id="Layer_1" xmlns="http://www.w3.org/2000/svg" xmlns:xlink="http://www.w3.org/1999/xlink" x="0px" y="0px"
	 viewBox="0 0 524 260" enable-background="new 0 0 524 260" xml:space="preserve">
<g>
	<g>
		<defs>
			<rect id="SVGID_37_" x="0.9" y="0.6" width="522.2" height="258.9"/>
		</defs>
		<clipPath id="SVGID_2_">
			<use xlink:href="#SVGID_37_"  overflow="visible"/>
		</clipPath>
		<path clip-path="url(#SVGID_2_)" fill="none" stroke="#000000" stroke-width="2" stroke-miterlimit="10" d="M56.1,150.1
			c0-0.8-0.9-1.6-2-1.7l-8-0.5c-1.1-0.1-2-0.2-2-0.2c0,0-0.9-0.1-2-0.1h-6c-1.1,0-2,0-2,0c0,0-0.9,0.1-2,0.2l-8,0.6
			c-1.1,0.1-2,0.8-2,1.7c0,0.9,0.9,1.5,2,1.5h8c1.1,0,2,0.9,2,2v7.5v4v12.5c0,1.1,0.9,2,2,2h1c1.1,0,2-0.9,2-2v-12c0-1.1,0-1.1,0,0
			v12c0,1.1,0.9,2,2,2h1c1.1,0,2-0.9,2-2v-12.5v-4v-7.5c0-1.1,0.9-2,2-2h8C55.2,151.6,56.1,150.9,56.1,150.1z M39.1,144.6
			c1.9,0,3.4-1.5,3.4-3.4c0-1.9-1.5-3.4-3.4-3.4c-1.9,0-3.4,1.5-3.4,3.4C35.7,143,37.2,144.6,39.1,144.6z"/>
		<path clip-path="url(#SVGID_2_)" fill="none" stroke="#000000" stroke-width="2" stroke-miterlimit="10" d="M151.1,150.1
			c0-0.8-0.9-1.6-2-1.7l-8-0.5c-1.1-0.1-2-0.2-2-0.2c0,0-0.9-0.1-2-0.1h-6c-1.1,0-2,0-2,0c0,0-0.9,0.1-2,0.2l-8,0.6
			c-1.1,0.1-2,0.8-2,1.7c0,0.9,0.9,1.5,2,1.5h8c1.1,0,2,0.9,2,2v7.5v4v12.5c0,1.1,0.9,2,2,2h1c1.1,0,2-0.9,2-2v-12c0-1.1,0-1.1,0,0
			v12c0,1.1,0.9,2,2,2h1c1.1,0,2-0.9,2-2v-12.5v-4v-7.5c0-1.1,0.9-2,2-2h8C150.2,151.6,151.1,150.9,151.1,150.1z M134.1,144.6
			c1.9,0,3.4-1.5,3.4-3.4c0-1.9-1.5-3.4-3.4-3.4c-1.9,0-3.4,1.5-3.4,3.4C130.7,143,132.2,144.6,134.1,144.6z"/>
		<path clip-path="url(#SVGID_2_)" fill="none" stroke="#000000" stroke-width="2" stroke-miterlimit="10" d="M357.1,168.6h16
			 M357.1,147.6h16 M369.5,174.7h-8.7c-2.2,0-4-1.8-4-4v-24.4c0-2.2,1.8-4,4-4h8.7c2.2,0,4,1.8,4,4v24.4
			C373.5,172.9,371.7,174.7,369.5,174.7z M518.1,165.6c0,3.3-2.7,6-6,6c-3.3,0-6-2.7-6-6s2.7-6,6-6
			C515.4,159.7,518.1,162.3,518.1,165.6z M486.1,165.6c0,3.3-2.7,6-6,6s-6-2.7-6-6s2.7-6,6-6S486.1,162.3,486.1,165.6z M483.1,152.6
			c0-7,5.7-12.7,12.7-12.7c7,0,12.7,4.7,12.7,11.7 M519.5,150.6h-11c0,0-5.7,5.7-12.7,5.7c-7,0-12.7-3.7-12.7-3.7l-12,1
			c-1.1,0-2,0.9-2,2l-1,8c0,1.1,0.9,2,2,2h4.1c0-3.3,2.7-6,6-6s6,2.7,6,6h20.1c0-3.3,2.7-6,6-6c3.3,0,6,2.7,6,6h2.3
			c1.1,0,1.7-0.9,1.7-2l-1-11C521.1,151.5,520.6,150.6,519.5,150.6z M446.1,174.7h-54v-34l27-20l27,20V174.7z M103.1,150.1
			c0-0.8-0.9-1.6-2-1.7l-8-0.5c-1.1-0.1-2-0.2-2-0.2c0,0-0.9-0.1-2-0.1h-6c-1.1,0-2,0-2,0c0,0-0.9,0.1-2,0.2l-8,0.6
			c-1.1,0.1-2,0.8-2,1.7c0,0.9,0.9,1.5,2,1.5h8c1.1,0,2,0.9,2,2v7.5v4v12.5c0,1.1,0.9,2,2,2h1c1.1,0,2-0.9,2-2v-12c0-1.1,0-1.1,0,0
			v12c0,1.1,0.9,2,2,2h1c1.1,0,2-0.9,2-2v-12.5v-4v-7.5c0-1.1,0.9-2,2-2h8C102.2,151.6,103.1,150.9,103.1,150.1z M86.1,144.6
			c1.9,0,3.4-1.5,3.4-3.4c0-1.9-1.5-3.4-3.4-3.4c-1.9,0-3.4,1.5-3.4,3.4C82.7,143,84.2,144.6,86.1,144.6z"/>
		<path clip-path="url(#SVGID_2_)" fill="#FFFFFF" d="M366.8,171.7c0,0.9-0.7,1.7-1.7,1.7c-0.9,0-1.7-0.7-1.7-1.7
			c0-0.9,0.8-1.7,1.7-1.7C366,170,366.8,170.7,366.8,171.7"/>
		<circle clip-path="url(#SVGID_2_)" fill="none" stroke="#000000" stroke-miterlimit="10" cx="365.1" cy="171.7" r="1.7"/>
		
			<line clip-path="url(#SVGID_2_)" fill="none" stroke="#73C73B" stroke-width="2" stroke-miterlimit="10" stroke-dasharray="1.6,1.6" x1="419.1" y1="100" x2="419.1" y2="94.4"/>
		
			<path clip-path="url(#SVGID_2_)" fill="none" stroke="#73C73B" stroke-width="2" stroke-miterlimit="10" stroke-dasharray="1.427,1.427" d="
			M418.4,90.3c-0.4-0.6-1-1.1-1.6-1.4"/>
		
			<line clip-path="url(#SVGID_2_)" fill="none" stroke="#73C73B" stroke-width="2" stroke-miterlimit="10" stroke-dasharray="1.72,1.72" x1="412.4" y1="88.6" x2="90" y2="88.6"/>
		
			<path clip-path="url(#SVGID_2_)" fill="none" stroke="#73C73B" stroke-width="2" stroke-miterlimit="10" stroke-dasharray="1.427,1.427" d="
			M85.8,89.3c-0.6,0.4-1.1,1-1.4,1.6"/>
		
			<line clip-path="url(#SVGID_2_)" fill="none" stroke="#73C73B" stroke-width="2" stroke-miterlimit="10" stroke-dasharray="1.8,1.8" x1="84.1" y1="95.4" x2="84.1" y2="101.7"/>
		<path clip-path="url(#SVGID_2_)" fill="none" stroke="#73C73B" stroke-width="2" stroke-miterlimit="10" d="M84.1,102.6v1
			 M84.2,91.6c-0.1,0.3-0.1,0.6-0.1,1v1 M89.1,88.6h-1c-0.3,0-0.7,0-1,0.1 M416.1,88.8c-0.3-0.1-0.6-0.1-1-0.1h-1 M419.1,93.6v-1
			c0-0.3,0-0.7-0.1-1 M419.1,102.6v-1"/>
	</g>
	<polygon fill="#73C73B" points="423.2,99.2 422.5,98.5 419.1,102.2 415.8,98.5 415,99.2 419.1,103.6 	"/>
	<g>
		<defs>
			<rect id="SVGID_39_" x="0.9" y="0.6" width="522.2" height="258.9"/>
		</defs>
		<clipPath id="SVGID_4_">
			<use xlink:href="#SVGID_39_"  overflow="visible"/>
		</clipPath>
		
			<line clip-path="url(#SVGID_4_)" fill="none" stroke="#3391D1" stroke-width="2" stroke-miterlimit="10" stroke-dasharray="1.985,1.985" x1="283.1" y1="232.6" x2="413.1" y2="232.6"/>
		
			<path clip-path="url(#SVGID_4_)" fill="none" stroke="#3391D1" stroke-width="2" stroke-miterlimit="10" stroke-dasharray="1.427,1.427" d="
			M417.4,231.9c0.6-0.4,1.1-1,1.4-1.6"/>
		
			<line clip-path="url(#SVGID_4_)" fill="none" stroke="#3391D1" stroke-width="2" stroke-miterlimit="10" stroke-dasharray="2.1,2.1" x1="419.1" y1="225.5" x2="419.1" y2="188.7"/>
		<path clip-path="url(#SVGID_4_)" fill="none" stroke="#3391D1" stroke-width="2" stroke-miterlimit="10" d="M419.1,187.7v-1.1
			 M419,229.6c0.1-0.3,0.1-0.6,0.1-1v-1.1 M414.1,232.6h1c0.3,0,0.7,0,1-0.1 M280.1,232.6h1"/>
		
			<line clip-path="url(#SVGID_4_)" fill="none" stroke="#3391D1" stroke-width="2" stroke-miterlimit="10" stroke-dasharray="1.693,1.693" x1="217.4" y1="232.6" x2="93" y2="232.6"/>
		
			<path clip-path="url(#SVGID_4_)" fill="none" stroke="#3391D1" stroke-width="2" stroke-miterlimit="10" stroke-dasharray="1.427,1.427" d="
			M88.8,231.9c-0.6-0.4-1.1-1-1.4-1.6"/>
		
			<line clip-path="url(#SVGID_4_)" fill="none" stroke="#3391D1" stroke-width="2" stroke-miterlimit="10" stroke-dasharray="1.706,1.706" x1="87.1" y1="225.9" x2="87.1" y2="199.5"/>
		<path clip-path="url(#SVGID_4_)" fill="none" stroke="#3391D1" stroke-width="2" stroke-miterlimit="10" d="M87.1,198.6v-1
			 M87.2,229.6c-0.1-0.3-0.1-0.6-0.1-1v-1 M92.1,232.6h-1c-0.3,0-0.7,0-1-0.1 M220.1,232.6h-1"/>
	</g>
	<polygon fill="#3391D1" points="91.2,201 90.5,201.7 87.1,198.1 83.8,201.7 83,201 87.1,196.6 	"/>
	<line fill="none" stroke="#73C73B" stroke-width="2" stroke-miterlimit="10" x1="165.1" y1="164.6" x2="188.1" y2="164.6"/>
	<polygon fill="#73C73B" points="187.1,168.8 194.4,164.6 187.1,160.4 	"/>
	<line fill="none" stroke="#73C73B" stroke-width="2" stroke-miterlimit="10" x1="309.1" y1="164.6" x2="333.1" y2="164.6"/>
	<polygon fill="#73C73B" points="332.1,168.9 339.5,164.6 332.1,160.4 	"/>
	<g>
		<defs>
			<rect id="SVGID_41_" x="0.9" y="0.6" width="522.2" height="258.9"/>
		</defs>
		<clipPath id="SVGID_6_">
			<use xlink:href="#SVGID_41_"  overflow="visible"/>
		</clipPath>
		<path clip-path="url(#SVGID_6_)" fill="none" stroke="#000000" stroke-width="2" stroke-miterlimit="10" d="M228.7,71.4
			c1.4-1.6,2.9-0.3,4.3-1.9c1.4-1.6-0.1-2.9,1.2-4.5c1.4-1.6,2.9-0.3,4.3-1.9c1.4-1.6-0.1-2.9,1.2-4.5c1.4-1.6,2.9-0.3,4.3-1.9
			 M256.4,21.1c1.4-1.6,2.9-0.3,4.3-1.9c1.4-1.6-0.1-2.9,1.2-4.5c1.4-1.6,2.9-0.3,4.3-1.9c1.4-1.6-0.1-2.9,1.2-4.5
			c1.4-1.6,2.9-0.3,4.3-1.9 M217.5,17.4c1.6,1.4,0.3,2.9,1.9,4.3c1.6,1.4,2.9-0.1,4.5,1.2c1.6,1.4,0.3,2.9,1.9,4.3
			c1.6,1.4,2.9-0.1,4.5,1.2c1.6,1.4,0.3,2.9,1.9,4.3 M267.8,45.2c1.6,1.4,0.3,2.9,1.9,4.3c1.6,1.4,2.9-0.1,4.5,1.2
			c1.6,1.4,0.3,2.9,1.9,4.3c1.6,1.4,2.9-0.1,4.5,1.2c1.6,1.4,0.3,2.9,1.9,4.3 M242.2,0.6c0.2,2.1-1.8,2.3-1.7,4.4
			c0.2,2.1,2.2,2,2.3,4.1c0.2,2.1-1.8,2.3-1.7,4.4c0.2,2.1,2.2,2,2.3,4.1c0.2,2.1-1.8,2.3-1.7,4.4 M258.1,55.8
			c0.2,2.1-1.8,2.3-1.7,4.4c0.2,2.1,2.2,2,2.3,4.1c0.2,2.1-1.8,2.3-1.7,4.4c0.2,2.1,2.2,2,2.3,4.1c0.2,2.1-1.8,2.3-1.7,4.4
			 M211.9,46.8c2.1-0.2,2.3,1.8,4.4,1.7s2-2.2,4.1-2.3c2.1-0.2,2.3,1.8,4.4,1.7c2.1-0.2,2-2.2,4.1-2.3c2.1-0.2,2.3,1.8,4.4,1.7
			 M267.1,30.8c2.1-0.2,2.3,1.8,4.4,1.7s2-2.2,4.1-2.3c2.1-0.2,2.3,1.8,4.4,1.7c2.1-0.2,2-2.2,4.1-2.3c2.1-0.2,2.3,1.8,4.4,1.7
			 M263.6,38.8c0,7.3-5.9,13.2-13.2,13.2c-7.3,0-13.2-5.9-13.2-13.2c0-7.3,5.9-13.2,13.2-13.2C257.7,25.6,263.6,31.5,263.6,38.8z"/>
	</g>
	<g>
		<defs>
			<path id="SVGID_43_" d="M224.2,233.1c0,14.4,11.6,26,26,26c14.4,0,26-11.6,26-26c0-14.4-11.6-26-26-26
				C235.9,207.1,224.2,218.8,224.2,233.1"/>
		</defs>
		<clipPath id="SVGID_8_">
			<use xlink:href="#SVGID_43_"  overflow="visible"/>
		</clipPath>
		<path clip-path="url(#SVGID_8_)" d="M243.3,219c0,1.9-1.6,3.5-3.5,3.5c-1.9,0-3.5-1.6-3.5-3.5s1.6-3.5,3.5-3.5
			C241.8,215.5,243.3,217.1,243.3,219"/>
		<path clip-path="url(#SVGID_8_)" d="M252,250.4c0,1.9-1.6,3.5-3.5,3.5c-1.9,0-3.5-1.6-3.5-3.5c0-1.9,1.6-3.5,3.5-3.5
			C250.4,246.9,252,248.5,252,250.4"/>
		<path clip-path="url(#SVGID_8_)" d="M260,222.2c0,1-0.8,1.8-1.8,1.8c-1,0-1.8-0.8-1.8-1.8c0-1,0.8-1.8,1.8-1.8
			C259.2,220.5,260,221.3,260,222.2"/>
		<path clip-path="url(#SVGID_8_)" d="M250.2,236.3c0,1-0.8,1.8-1.8,1.8c-1,0-1.8-0.8-1.8-1.8s0.8-1.8,1.8-1.8
			C249.5,234.6,250.2,235.4,250.2,236.3"/>
		<path clip-path="url(#SVGID_8_)" d="M273,238.5c0,1-0.8,1.8-1.8,1.8c-1,0-1.8-0.8-1.8-1.8c0-1,0.8-1.8,1.8-1.8
			C272.2,236.7,273,237.5,273,238.5"/>
		<path clip-path="url(#SVGID_8_)" d="M273,249.3c0,1-0.8,1.8-1.8,1.8c-1,0-1.8-0.8-1.8-1.8c0-1,0.8-1.8,1.8-1.8
			C272.2,247.6,273,248.3,273,249.3"/>
		<path clip-path="url(#SVGID_8_)" d="M228.6,251.5c0,1-0.8,1.8-1.8,1.8c-1,0-1.8-0.8-1.8-1.8s0.8-1.8,1.8-1.8
			C227.8,249.7,228.6,250.5,228.6,251.5"/>
		<path clip-path="url(#SVGID_8_)" fill="none" stroke="#000000" stroke-width="0.878" stroke-miterlimit="10" d="M248.5,236.3
			l22.7,13.2 M271.2,237.6l-22.7-1.3 M281,213.6l-9.7,24.7 M281,213.6l-10.2-16.9 M248.5,236.3l9.7-14.1 M281,213.6l-32.5,22.7
			 M258.2,222.2l22.7-8.7 M239.8,219l18.4,3.2 M281,213.6l-41.2,5.4 M248.5,197.3l32.5,16.2 M240.6,218.8l7-20.4 M226.4,198.4
			l12.7,19.5 M217.5,208.9l9-10.4"/>
		
			<line clip-path="url(#SVGID_8_)" fill="none" stroke="#000000" stroke-miterlimit="10" x1="270.6" y1="249.6" x2="270.6" y2="237.6"/>
		<path clip-path="url(#SVGID_8_)" fill="none" stroke="#000000" stroke-width="0.878" stroke-miterlimit="10" d="M280.7,266.2
			l-32.2-15.6 M281,266.6l-9.7-17.1 M271.2,238.5l17.5,11.9"/>
		
			<line clip-path="url(#SVGID_8_)" fill="none" stroke="#000000" stroke-miterlimit="10" x1="247.6" y1="251.6" x2="247.6" y2="236.6"/>
		<path clip-path="url(#SVGID_8_)" fill="none" stroke="#000000" stroke-width="0.878" stroke-miterlimit="10" d="M248.5,250.4
			l22.7-0.2 M226.4,251.3l22.1-0.9 M239.8,272.1l8.5-21.5 M226.8,251.5l13,20.6 M226.8,251.5l-16.2-14.1 M217.1,262.3l9.3-11
			 M217.1,209.3l22.7,9.7 M219.2,217.9l20.6,1.1 M239.8,219l-29.2,18.4 M239.8,219l8.5,17.3 M226.4,251.3l13.4-32.3 M248.5,236.5
			l-22.1,14.8"/>
		
			<line clip-path="url(#SVGID_8_)" fill="none" stroke="#000000" stroke-miterlimit="10" x1="270.1" y1="251.1" x2="287.1" y2="251.1"/>
		<path clip-path="url(#SVGID_8_)" fill="none" stroke="#000000" stroke-width="0.878" stroke-miterlimit="10" d="M258.2,269.9
			l-9.7-19.5 M217.5,262.3l22.4,9.7"/>
	</g>
	<g>
		<defs>
			<rect id="SVGID_45_" x="0.9" y="0.6" width="522.2" height="258.9"/>
		</defs>
		<clipPath id="SVGID_10_">
			<use xlink:href="#SVGID_45_"  overflow="visible"/>
		</clipPath>
		
			<circle clip-path="url(#SVGID_10_)" fill="none" stroke="#000000" stroke-width="2" stroke-miterlimit="10" cx="250.3" cy="233.1" r="25.3"/>
		
			<path clip-path="url(#SVGID_10_)" fill="none" stroke="#000000" stroke-width="2" stroke-linecap="round" stroke-linejoin="round" stroke-miterlimit="10" d="
			M139.5,123.7c0-5.3,6.3-9.7,14-9.7s14,4.3,14,9.7c0,5.3-6.3,9.7-14,9.7c-1.2,0-2.3-0.1-3.4-0.3c-1.5,1.6-3.9,3.7-7.3,4.5
			c0,0,2.1-3.1,3-5.8C142,130.1,139.5,127.1,139.5,123.7z M79.5,124.1c0-4.4-5.2-8-11.7-8s-11.7,3.6-11.7,8c0,4.4,5.2,8,11.7,8
			c1,0,1.9-0.1,2.8-0.2c1.2,1.4,3.3,3.1,6.1,3.8c0,0-1.7-2.6-2.5-4.8C77.4,129.4,79.5,126.9,79.5,124.1z M36.1,118.9
			c0-6.5-7.7-11.8-17.1-11.8s-17.1,5.3-17.1,11.8c0,6.5,7.7,11.8,17.1,11.8c1.4,0,2.8-0.1,4.1-0.4c1.8,2,4.8,4.5,8.9,5.5
			c0,0-2.6-3.8-3.7-7.1C33,126.7,36.1,123,36.1,118.9z"/>
		<path clip-path="url(#SVGID_10_)" d="M253.5,101.7c-0.4,1.2-0.8,2.4-1.3,3.5l-0.3,0.9c-0.1,0.3-0.2,0.6-0.4,0.8
			c-0.3,0.5-0.7,1-1,1.5l-3.9,6l-0.8-1.7h10h1.7l-0.9,1.7l-3.8,6.5l-0.9,1.7c-0.1,0.3-0.3,0.6-0.5,0.8l-0.6,0.7
			c-0.8,1-1.7,1.9-2.6,2.8c0.4-1.2,0.8-2.4,1.2-3.6l0.3-0.9c0.1-0.3,0.2-0.6,0.4-0.8l0.9-1.6l3.8-6.6l0.9,1.3h-10h-1.8l1-1.4
			l3.9-6.1c0.3-0.5,0.7-1,1-1.5c0.1-0.3,0.3-0.5,0.5-0.7l0.6-0.7C251.7,103.4,252.6,102.6,253.5,101.7"/>
	</g>
	<line fill="none" stroke="#000000" stroke-width="2" stroke-miterlimit="10" x1="28.1" y1="188.6" x2="149.1" y2="188.6"/>
	<path fill="none" stroke="#000000" stroke-miterlimit="10" d="M260.6,145.6v20 M270.6,145.6v20 M280.6,145.6v20 M250.1,150.1h40
		 M250.1,155.1h40 M250.1,160.1h40 M220.6,145.6v20 M230.6,145.6v20 M240.6,145.6v20 M210.1,150.1h40 M210.1,155.1h40 M210.1,160.1
		h40 M260.6,165.6v20 M270.6,165.6v20 M280.6,165.6v20 M250.1,170.1h40 M250.1,175.1h40 M250.1,180.1h40 M220.6,165.6v20
		 M230.6,165.6v20 M240.6,165.6v20 M210.1,170.1h40 M210.1,175.1h40 M210.1,180.1h40"/>
	<rect x="210.1" y="144.9" fill="none" stroke="#000000" stroke-width="2.023" stroke-miterlimit="10" width="80" height="40.4"/>
	<path fill="none" stroke="#000000" stroke-miterlimit="10" d="M250.6,144.6v41 M209.1,165.1h81"/>
	<path fill="none" stroke="#000000" stroke-width="2.048" stroke-miterlimit="10" d="M434.6,153.1h-10v-10h10V153.1z M414.6,153.1
		h-10v-10h10V153.1z"/>
</g>
</svg>
