<?xml version="1.0" encoding="utf-8"?>
<!-- Generator: Adobe Illustrator 19.0.1, SVG Export Plug-In . SVG Version: 6.00 Build 0)  -->
<svg version="1.0" id="Layer_1" xmlns="http://www.w3.org/2000/svg" xmlns:xlink="http://www.w3.org/1999/xlink" x="0px" y="0px"
	 viewBox="0 0 582.7 298.2" enable-background="new 0 0 582.7 298.2" xml:space="preserve">
<g>
	<defs>
		<rect id="SVGID_83_" x="0" y="0" width="582.7" height="298.2"/>
	</defs>
	<clipPath id="SVGID_2_">
		<use xlink:href="#SVGID_83_"  overflow="visible"/>
	</clipPath>
	<g clip-path="url(#SVGID_2_)">
		<defs>
			<rect id="SVGID_85_" x="0" y="0" width="582.7" height="298.2"/>
		</defs>
		<clipPath id="SVGID_4_">
			<use xlink:href="#SVGID_85_"  overflow="visible"/>
		</clipPath>
		<g opacity="0.5" clip-path="url(#SVGID_4_)">
			<g>
				<defs>
					<rect id="SVGID_87_" x="-9" y="-7" width="600.7" height="306.2"/>
				</defs>
				<clipPath id="SVGID_6_">
					<use xlink:href="#SVGID_87_"  overflow="visible"/>
				</clipPath>
				<path clip-path="url(#SVGID_6_)" fill="#FFFFFF" d="M471,167.5c0.8,0.7,2.1,1.4,2.5,2.4c1.1,2.8,3.2,3.9,5.8,4.6
					c0.6,0.1,1.3,0.4,1.6,0.8c2.9,4.2,5.9,8.5,8.2,13.1c0.7,1.3,0.3,2.5-0.9,3.3c-1.2,0.8-2.4,0.5-3.3-0.7c-0.8-1.1-1.7-2.2-2.4-3.4
					c-2.1-3.3-4.1-6.7-6.2-10c-1.5-2.3-3.2-4.5-4.8-6.8c-0.5-0.7-0.9-1.5-1.4-2.3c-0.1-0.2-0.1-0.5,0-0.7
					C470.3,167.8,470.5,167.7,471,167.5 M119.3,21.9c0.3,1-0.9,1.6-2.3,2.2c-1,0.4-5.1,0.4-6.3,0.5c-1.5,0-3-0.2-4.6,0.5
					c-2.2,0.9-5,1.2-6.8-1.4c-0.3-0.4-0.5-0.8-0.6-1.2c-0.5-1.7-0.5-1.7-1.4-1.9c-1.5-0.4-2.9-0.8-4.3-1.3c-0.3-0.1,2.7-3.1,4.1-3.3
					c2.8-0.5,5.6-0.5,7.9,1.7c1,0.9,2.2,1.7,3.4,2.4c0.5,0.3,1.4,0.7,1.7,0.5c2.1-1.4,4.6-0.6,6.8-1.1c0.7-0.1,1.3-0.4,2-0.6
					C119,19.6,119.1,20.3,119.3,21.9 M357.8,232.6c0.1-2.6,0.3-4,1.2-5.5c1.4-2.3,2.9-5.1,1.1-8.2c-0.8-1.3-0.8-2.9,1.6-2.6
					c2.4-2.1,5.9-2.7,7.8-5.5c0.2-0.4,0.5-0.7,0.8-1.1c0.3,0.3,0.9,0.6,1,1c0.2,0.7,0.4,1.6,0.2,2.3c-1.1,4.4-1.7,8.9-4.3,12.7
					c-1.2,1.8-1.6,3.6-1.6,5.7c0,2.7-2.6,5.1-5.4,5.2c-0.4,0-1.1-0.4-1.3-0.8C358.3,234.6,358,233.1,357.8,232.6 M575.3,195.3
					c-0.7,1.7,0.9,2.4,1.8,2.9c2,1.1,3.5,2.7,5,4.2c0.3,0.3,0.4,0.7,0.6,1c-0.4,0.1-1,0.3-1.3,0.2c-3-1.2-5.8-2.7-8.1-5.1
					c-2.1-2.2-3-2.2-5.6-0.5c-1.8,1.1-4,1.3-5.6-0.2c-1-0.9-1.9-1.1-3-1c-1.3,0.1-2.1-0.6-1.2-1.6c1.7-2,0.5-3.2-0.9-4.4
					c-0.4-0.4-1.1-0.5-1.6-0.8c-0.9-0.5-2.2-0.9-2.5-1.7c-0.7-1.7,1.6-0.9,2.1-1.9c1.2-2.8,2.7-2.5,5.4-1.5
					c3.7,1.3,7.1,3.2,10.9,4.1c2.7,0.6,2.9,3.9,4.8,5.4C575.8,194.8,575.6,195,575.3,195.3 M162.2,39c-1.7-0.8-4.2-1.8-6.6-3
					c-0.6-0.3-0.9-0.9-1.4-1.3c0.5-0.2,1.1-0.4,1.6-0.7c0.7-0.3,1.4-0.6,2-1.1c1.2-1,4.1-1.1,3.1-3.4c-1.1-2.4-0.4-6.1-4.1-7.1
					c-0.6-0.1-1.1-0.4-1.7-0.6c-1.9-0.5-3.8-1-5.8-1.3c-0.6-0.1-1.8-0.5-1.9,0.7c-0.2,1.5-0.9,1.6-1.9,0.8c-0.9-0.7-1.9-1.5-0.4-2.7
					c1.1-0.9,1.9-3,3.8-0.9c0.3,0.3,1.3,0.2,1.9,0c6.2-1.4,6.8-1.4,11.2,0.4c0.8,0.3,1.8,0.4,2.7,0.5c1.3,0.1,2.2,0.8,2.2,2.1
					c-0.1,1.4,0.8,2,1.5,2.8c0.7,0.8,1.1,1.9,1.8,2.6c0.9,1,1.1,2.1,0.3,2.9c-0.4,0.4-1.8,0.1-2.5-0.3c-1-0.5-1.1,0-1,0.6
					c0.2,1,0.8,2,0.9,3c0.1,0.7,1.7,1,0.5,1.7c-0.3,0.2-1.1-0.3-1.6-0.7c-0.9-0.6-1.4-0.1-2,0.5c-0.6,0.6-0.8,1.1-0.4,2
					C165.1,39,165,39.2,162.2,39 M498.2,178.6c-0.4-1.9,0.6-2.4,2.4-2.1c0.9,0.1,1.5,0,1.6-1.2c0.1-0.9,0.6-1.7,0.9-2.5
					c0.5-1.6,1.5-2.1,3.5-3.3c1.9-1.1,3.5-2.6,5.1-4.1c1-0.9,1.5-0.7,2.4,0.1c2,1.9,2,1.9,0.7,4.8c-0.5,1.1-0.9,2.3-0.9,3.5
					c0,1.5,2.7,2.4,0.7,4.6c-1.2,1.2-1,3.6-2.8,4.7c-0.4,0.2-0.6,0.7-0.9,1.1c-1.7,2.5-2,2.6-4.8,1.8c-0.9-0.3-1.8-0.5-2.7-0.5
					c-3.7-0.2-5-1.4-5.1-5C498.2,179.7,498.2,179.2,498.2,178.6 M180.4,0.1c4.6,0.2,9.1,1.6,13.7,1C197.9,3,202,1.8,205.9,2
					c1.3,0.1,2.6-0.7,4-0.9c1.3-0.2,2.7-0.3,3.9,0c8.4,2,16.9,0.5,25.4,0.9c2.1,0.1,4.5,0.8,6.4-0.9c2.1,0.5,4.2,0.9,6.1,1.6
					c1.4,0.5,1.1,1.3-0.5,2.3c-1.2,0.7-2.3,1.5-3.4,2.4c-0.5,0.5-0.9,1.3-1,2c-0.1,1.1,0.1,2.4-1.1,2.9c-1.3,0.5-2.2,1.4-3.8,1.5
					c-4.7,0.1-4.7,0.2-4.9,5.2c-0.1,2.9-2.5,5.5-5.3,5.4c-4.3-0.1-8.2,1.6-12.3,2.1c-1.2,0.1-2.6,1.1-3.5,2.1
					c-1.7,1.9-3.9,2.3-6.2,2.7c-2.7,0.5-4.9,1.4-5.9,4.4c-0.8,2.5-3,4-4.8,5.8c-0.9,0.9-2,0.9-3,0c-2.8-2.7-5.7-5.4-5.9-9.7
					c0-0.6-0.5-1.1-0.7-1.7c-0.7-2.2-0.5-2.6,1.6-2.7c4-0.2,5.8-2.4,4.9-6.2c-1.8-1.1-0.3-3.2-1.3-4.3c-2-2.1-4-4.2-6.3-6
					c-0.9-0.7-2.3-1-3.4-1c-1.4,0-2.4-0.4-3.5-1c-0.3-0.2-0.6-0.4-0.9-0.6c0.3-0.1,0.6-0.3,0.8-0.3c2.3,0,4.5,0,6.8,0
					c2.4-0.1,3.7-1.9,2.9-4.2c0-0.1-0.6-0.2-0.9-0.2c-4.1,0.5-8,2-12.1,2.5c-2.9,0.3-5.9,0.8-8.4,2c-2.2,1.1-4.4,2-6.6,3
					c-0.5,0.3-1.1,0.7-1.6,0.7c-0.8,0.1-1.8,0.1-2.3-0.3c-2.1-2.1-5.6-0.8-7.4-3.4c-0.5-0.7-0.5-0.9,0.1-1.4c1.1-1,2-1.8,3.7-1.8
					c3.3,0,6.6-0.5,9.8-0.9c0.7-0.1,1.4-0.6,2-0.9C171.6,1.2,175.8-0.3,180.4,0.1 M579.1,238.3c0.9,3.3-1.2,6.7-2,10.3
					c-0.1,0.3-0.2,0.7-0.4,0.8c-2.9,2.1-4.3,5.7-7.5,7.6c-1.3,0.8-2.4,2.2-3.5,3.4c-2.4,2.8-5.4,4.5-8.7,6c-1.6,0.7-2.8,0.8-4.4,0.2
					c-1.1-0.4-2.4-0.4-3.6-0.2c-2.1,0.3-4-0.8-4.1-2.6c-0.1-1.9,0.1-3.7-0.9-5.5c-0.4-0.8,0.5-2.3,0.8-3.4c0.1-0.3,0-0.6,0-0.9
					c-0.3,0.1-0.7,0-1,0.2c-0.8,0.4-1.6,0.9-2.4,1.3c-0.8,0.4-1.7,1-2.5,0.9c-1.5-0.1-0.4-1.7-0.9-2.3c-1.6-1.7-3.4-3.2-5.8-3.5
					c-1.4-0.2-2.9,0.1-4.4-0.1c-2-0.3-3.7,0.5-5.3,1.4c-1.6,0.9-3.2,1.7-5.2,1.6c-0.7,0-1.5,0.4-2.1,0.8c-0.8,0.6-1.4,1.2-2.5,1.1
					c-2.5-0.2-4.7,1.1-7.1,1.6c-1.5,0.3-3.2,0.3-4.7,0.3c-0.6,0-1.2-0.2-1.8-0.4c0.5-0.2,1.2-0.3,1.4-0.7c0.3-0.5,0.4-1.2,0.4-1.8
					c0-4.4-0.1-8.8,0.1-13.1c0.1-3.1,0.6-6.2,1-9.3c0-0.4,0.4-0.8,0.7-1.2c0.3-0.3,0.8-0.5,1.1-0.8c2.5-2.1,5.6-2.9,8.6-4
					c3.5-1.3,7.8-2.1,9.5-6.5c0.2-0.5,1.2-0.8,1.9-1.1c0.4-0.2,0.9-0.2,1.4-0.3c-0.9-2.9,2.7-2.7,3.4-4.9c0.8-2.6,3-2.4,4.7-0.2
					c1.4,1.8,2.6,1.8,3.9,0.3c1.5-1.8,3.2-3.6,4.9-5.2c0.8-0.8,2.2-1.4,3.3-1.4c1.6,0,3.3,0.5,4.9,1c0.2,0.1,0.5,0.9,0.4,1.2
					c-0.1,0.6-0.8,1-0.9,1.6c-0.6,3.3,1.2,5.8,5.4,7.9c3,1.5,5.2,0.5,6.3-2.5c0.5-1.3,1.2-2.4,1.7-3.7c0.5-1.1,0.8-2.3,1.2-3.4
					c0.2-0.7,0.4-1.3,0.6-2c0.2,0.6,0.4,1.1,0.7,1.7c2.1,3.8,4,7.6,3.7,12.2c-0.1,0.8,0.6,1.8,1.2,2.4c1.7,1.7,2.1,2.1,2.7,3.7
					c0.9,2.5,1.5,5.2,4.9,5.4c0.3,0,0.8,0.8,0.9,1.3C579.1,234.8,579.1,236.2,579.1,238.3 M48.4,22.5h2.1c1.5,0,3.1-0.4,4.3,0.1
					c1.1,0.5,1.8,1.9,2.6,3c1.1,1.4,2.4,1.7,4.1,1.9c2.6,0.3,4.9-0.8,7.4-1.1c0.5-0.1,1-0.8,1.6-0.9c3.3-0.4,6.5-0.8,9.8-1
					c1.8-0.1,3.5,1.2,5.4,1c1.7-0.2,3.4-0.3,5,0.9c0.5,0.4,1.6,0.1,2.4,0.1c0.7,0,1.7-0.3,1.9,0c1.8,2.4,5,1.4,7.1,3
					c1.6,1.3,2.9,1.3,4-0.3c1.2-1.7,2.8-1.7,4.7-1.8c4.3-0.1,8.5,0,12.1,2.4c0.8,0.6,0.9-0.1,1.4-0.3c2.9-0.8,4.1-3.3,5.4-5.5
					c0.6-1.1,0.8-2.3,2.4-2.5c0.8-0.1,1.6-0.5,2.4-0.7c0.1,0.8,0.3,1.6,0.2,2.3c-0.3,1.6,0.3,2.3,1.8,2.7c0.2,0.1,0,1.3,0.3,1.8
					c0.2,0.4,1.1,0.8,1.4,0.7c2.5-1.1,4.9-2.2,7.4-3.4c0.2-0.1,0.5-0.1,0.7-0.2c0,0.4,0.3,1,0.1,1.3c-1.1,2.3-3.6,2.1-5.5,3.3
					c-1.1,0.7-3,0.5-3.8,1.3c-1.7,1.8-2.9,2.1-4.5,0c-0.5-0.6-1.4-0.6-1.7,0.6c-0.7,3.7-1.4,4.3-4.8,5c-5.2,1.1-9.4,4.1-13.6,7.1
					c-1.4,1.1-1,2.5-1.1,3.9c-0.1,1.5,0.6,2.1,1.8,3.2c2.7,2.4,5.5,3.4,8.9,3.3c0.6,0,1.3,0,1.8,0.4c0.4,0.3,1.7,0.6,0.6,1.7
					c-0.4,0.4-0.4,1.2-0.4,1.8c-0.2,3.4,2.1,5.2,5.2,3.9c0.7-0.3,1.3-1.4,1.4-2.2c0.2-3.1,2.2-4.1,4.8-4.6c0.9-0.2,1.7-0.5,2.5-1
					c1.8-1,2.1-1.7,1.2-3.8c-1.1-2.5-0.7-3.9,2.4-6.3c1.1-0.9,2.2-1.6,3.4-2.4c0.8-0.6,1.8-1.8,2.4-1.6c2.1,0.7,4.7,0.4,6.3,2.3
					c0.4,0.4,0.6,1.1,0.6,1.7c0.1,0.8-0.1,1.6,0,2.4c0.2,1.4,1.6,1.9,3.1,1.2c1.9-0.9,3.8-1.9,5.7-2.7c0.3-0.1,0.9-0.1,1,0.1
					c0.3,0.4,0.6,1,0.4,1.3c-1.9,4.1,0.9,7,2.5,10.3c0.1,0.3,1.4,0.5,1.6,0.2c0.8-1,1.4-0.4,1.7,0.3c0.3,0.5,0.5,1.4,0.3,1.6
					c-1.4,1.5-2.9,3-4.6,4.2c-0.9,0.7-2,1.3-3.5,1c-4.3-0.8-8.4,1-12.7,1.1c-2.3,0.1-4.7,1-6.6,2.6c-0.8,0.6-0.3,1,0.2,1.4
					c1.2,1.2,2.6,0.7,4,0.4c0.9-0.2,1.8-0.5,2.7-0.6c0.7,0,1.5,0.2,2.3,0.4c-0.5,0.5-1,1.1-1.6,1.5c-0.5,0.4-1.1,0.6-1.6,0.9
					c-0.9,0.6-0.3,1.2,0.2,1.3c1.7,0.4,3.2,2.4,5.3,1c0.3-0.2,0.9-0.3,1.4-0.2c0.4,0,0.8,0.3,1.3,0.4c-0.2,0.2-0.5,0.4-0.7,0.5
					c-0.5,0.3-1.1,0.8-1.6,0.8c-3.3-0.1-5.6,1.5-7.7,3.8c-0.2,0.2-0.8,0.1-1.3,0.1c0.1-0.3,0.2-0.7,0.3-1c0.2-0.6,0.4-1.2,0.7-1.7
					c0.4-0.6,0.9-1.2,1.4-1.7c-0.9,0-1.8-0.2-2.6,0.1c-1.6,0.5-3,1.3-4.6,1.8c-2.7,0.9-4.9,3-6.2,5.5c-0.8,1.6-1.7,2-3.3,2
					c-1.7,0-3,0.6-3.8,2.5c-0.5,1.1-2.3,1.5-3.2,2.5c-1,1-1.6,2.3-2.5,3.3c-1.1,1.3-2.5,2.3-3.2,4c-0.4,1-1.9,1.5-2.9,2.2
					c-2.6,1.9-5.2,3.9-7.9,5.7c-3.9,2.6-4.2,3.6-3,8c0.5,2,0.4,4.1,0.4,6.1c0,0.5-0.7,1.1-1.3,1.4c-0.4,0.2-1.4,0-1.5-0.3
					c-0.5-1.3-0.8-2.6-1-4c-0.2-1.2,0.5-2.5-0.8-3.6c-1.5-1.4-2.8-3.2-4.9-3.5c-2.3-0.3-4.7-0.6-6.6,1.8c-1.4,1.7-2.7,1.4-4.4-0.2
					c-0.5-0.4-1.6-0.9-2-0.6c-2.6,1.7-5.7,1.7-8.3,3.6c-2.5,1.8-4.2,3.7-4.9,6.3c-1,3.7-2.9,7.2-2.3,11.2c0.3,2.3,3.5,5.9,5.8,6.1
					c6.8,0.7,6.9-0.9,9.6-5.2c1.2-1.8,2.8-2.4,4.3-1c0.4,0.4,0.8,1.5,0.5,1.9c-1.4,2.7-1.5,5.9-3.3,8.4c-0.7,1-0.2,1.6,1.2,1.6
					c0.6,0,1.3,0,1.9,0c1.7,0.1,4.2-0.4,5,0.5c0.9,1,0.3,3.4,0.3,5.1c0,1.5,0.2,2.9,0,4.4c-0.3,2.3,0.4,4.1,2.3,5.4
					c0.2,0.2,0.2,0.7,0.3,1c-0.4,0-1,0.1-1.3-0.1c-1.5-1.1-3-2.2-4.4-3.4c-0.3-0.3-0.8-0.8-0.7-1.1c0.6-3-2-4.1-3.4-5.9
					c-0.7-0.9-1.5-1-2.5-1c-3,0.1-5.2-1.6-7.5-3.1c-1-0.7-2-1.5-3.1-2c-0.8-0.4-2.1-0.9-2.6-0.5c-1.7,1.2-3,1-4.7,0.1
					c-1.4-0.7-3.2-0.1-4.7-1.7c-1.5-1.6-3.9-2.3-5.8-3.4c-1.9-1.1-3-2.6-2.8-5c0.1-1.3-0.3-2.8-1-3.9c-1.8-2.8-2.8-6-5.1-8.7
					c-1.8-2-2.4-5.1-3.6-7.7c-0.4-1-0.6-2-1-3c-0.4-1.1-1-2.1-2.4-1.8c-1.2,0.3-1.8,2.1-1.2,3.6c0.6,1.7,1.4,3.3,2,5
					c0.3,1,0.5,2.1,0.6,3.1c0,0.2-0.3,0.5-0.4,0.8c-0.2-0.2-0.5-0.4-0.5-0.6c-1.2-3.9-3.4-7.6-3-11.9c0.2-1.7,0-3.1-2.2-4.1
					c-3.4-1.6-3.9-5.3-4.6-8.6c-0.3-1.6,0.1-3.2-0.1-4.9c-0.2-1.8,0.7-2.8,1.6-4.2c2.5-3.7,5.2-7.3,8-10.8c0.7-0.9,0.7-2.3,1.2-3.4
					c0.2-0.4,0.8-1.1,1.1-1c2.3,0.3,1.9-1.3,1.7-2.5c-0.2-1.3-0.5-2.7-1-4c-1.6-4.1,0.4-8.2,0.2-12.4c-0.1-2.1-1.1-3.3-2.4-4.4
					c-2-1.7-4.6-2.4-7-3c-2.8-0.7-5.9-0.8-8.8-1.1c-1.2-0.1-2,0.4-3.1,0.9c-1.1,0.5-2.6,2-4.1,0.2c-0.2-0.3-1.8,0.3-2.4,0.8
					c-2.8,2.5-6.5,2.3-9.7,3.7c-0.1,0-0.4-0.5-0.7-0.7c-0.5-0.4-1.1-0.8-1.7-1.2c-0.7-0.5-1.9-0.8-2.1-1.5c-0.4-1-0.6-2.6,0-3.3
					c1-1.2,2.5-2,3.9-2.8c0.5-0.3,1.3-0.1,1.9,0c3.6,0.5,6-1.5,8.1-3.9c0.2-0.2,0.2-0.5,0.3-0.7c-0.3-0.1-0.6-0.3-0.8-0.3
					c-0.9,0.1-1.9,0.2-2.8,0.4c-0.4,0.1-1,0.6-1.2,0.5c-0.7-0.3-1.2-0.9-1.8-1.4c0.5-0.5,0.9-1.3,1.4-1.3c1.4-0.1,2.8,0.1,4.2,0.1
					c0.1,0,0.2,0.3,0.3,0.3c3.4,1.1,4.4,0.2,3.5-3.2c-0.2-0.8-0.9-0.9,0.4-1.4c2.3-0.9,4.6-1.5,7-2c2.7-0.6,5.4-0.3,7.9-1
					c2.7-0.7,5.4-0.3,7.9-1C43.5,22.5,46.2,22.7,48.4,22.5 M312.9,23.5c7.3-0.4,13.9,2.1,20.8,3.9c1.2,0.3,0.9,1.2,0.8,1.9
					c-0.1,0.4-0.7,1-1.1,1c-0.9,0-1.8-0.3-2.7-0.4c-1.2-0.1-2.5-0.5-3.6-0.2c-2.4,0.6-2.4,1-0.7,2.7c1.4,1.4,2.8,2.7,4.1,4.1
					c0.9,0.9,1.4,0.8,2.4,0c1.9-1.5,3.9-3,6.1-4.1c3.3-1.8,6.7-3.4,10.1-4.9c0.7-0.3,1.8-0.3,2.4,0c2.4,1.4,4.7-0.2,7-0.2
					c1.2,0,2.4-1.2,3.6-1.8c0.7-0.3,1-1.2,2.2-0.2c3,2.8,6.8,3.6,10.9,3c0.8-0.1,1.7-0.8,2.2-1.5c0.2-0.3-0.5-1.3-1-1.9
					c-1.1-1.5-3.2-2.2-2.9-4.7c0.2-1.4,0.8-2,2.1-1.6c3.3,1,5.6,4,5.7,7.6c0,0.5,0,1,0,1.5c-0.1,1.2,0.2,1.9,1.5,1.7
					c1-0.1,2,0.1,2.9-0.1c0.5-0.1,1.4-1,1.3-1.3c-0.3-0.8-1.6-1.5-0.4-2.3c0.4-0.3,1.6,0.6,2.4,0.7c0.8,0.1,2.2-2.7,1.8-3.6
					c-0.3-0.7-0.7-1.3-1-2c-0.9-1.8-0.3-3.1,1.6-3.1c3.2,0,6.1-1.7,9.3-1.1c0.9,0.2,5.2-1.6,5.8-2.4c1-1.3,2.2-1.5,3.8-1.6
					c2.3,0,4.7,0.5,7-0.8c1-0.6,2.8-0.5,3.8,0c2.6,1.3,5.3,0.7,7.9,0.9c0.6,0,1.4,0,1.8,0.4c0.4,0.3,1.7,0.7,0.6,1.7
					c-0.1,0.1-0.3,0.2-0.3,0.3c-0.6,1-2.6,1.5-1.8,3c0.3,0.6,2,0.4,3.1,0.5c1.6,0.1,3.2,0,4.9,0c1.1,0,2,0.2,3.1,0.9
					c2.7,1.6,5.5,1.1,9.5,0.5c4-0.7,8.2-1.1,12.1,0.8c2.2,1.1,4.6,1.6,7.1,1.8c2.3,0.2,4.7-0.4,7,0.9c1.1,0.6,2.7,0.2,3.8-1.2
					c1-1.3,2.1-2.9,3.5-3.3c1.1-0.3,2.7,1,4,1.7c3.9,2.4,8.1,2,12.4,1.9c2.6,0,5.2,0,7.8,0c0.8,0,2-0.2,2.3,0.2
					c1.9,2.7,4.7,1.5,7.1,1.7c1.6,0.2,3.4-0.3,4.7,0.4c1.5,0.9,2.9,0.6,4.2,0.5c1.7-0.2,2.9,1,4.5,1.1c0.9,0.1,1.8,1,2.5,0.8
					c0.6-0.2,1-1.3,1.5-2c0.9-1.4,2.8-1.2,3.5-0.7c1.7,1.2,3.4,0.5,5,0.9c1.6,0.4,3.2,1,5,1c2.8,0,5.4,1,7.9,2.1
					c1.1,0.5,2.1,0.8,3.1,0.7c2.9-0.2,5.8,0.3,9,0.9c1.7,0.3,2.4,1.3,3.5,2.2c0.1,0.1,0.1,0.6,0,0.6c-0.3,0.1-0.7,0.3-0.9,0.2
					c-2.7-1.9-6.3-1-9.1-2.8c-0.3-0.2-1.1,0.4-1.6,0.7c-0.8,0.4-1.6,0.8-2.4,1.2c-0.5,0.3-0.8,0.6-1.3,1c0.3,0.3,0.5,0.7,0.8,0.9
					c2.1,1.3,4.2,2.4,6.3,3.7c0.3,0.2,0.5,0.4,0.7,0.7c-0.2,0.2-0.5,0.5-0.7,0.5c-3-0.7-4.3,1.7-6,3.3c-1.3,1.2-0.8-0.4-1.2-0.6
					c-0.7-0.4-1.9-0.8-2.5-0.5c-1.2,0.7-1.9,1.9-3.7,1.9c-1.2,0-1.7,1.5-1.7,3c0.1,1.5,0.6,2.2,2.1,2.7c3.8,1.3,4.9,3.5,4,7.1
					c0,0.1-0.2,0.3-0.2,0.4c-0.2,2-0.3,4.1-0.5,6.1c-1.4-1.3-2.6-3-4.3-3.7c-1.2-0.5-0.9-1.5-1.4-2.1c-0.9-1.1-1.4-2.4-3-3.1
					c-2.8-1.4-3.2-5.4-1.3-8.2c1.4-2.1,1.1-4.9-0.8-6.1c-0.3-0.2-1.5-2-2.6-0.3c-0.9,1.4-2.1,1.3-3.7,0.6c-2.1-1-4.2,0.5-4.7,2.9
					c-0.1,0.5,0.1,1,0,1.5c-0.3,1.5-2,2.7-3.2,1.9c-2-1.4-4.1-0.4-6-0.9c-2-0.6-3.9-1-6-1c-1.4,0-2.5,0.2-3.3,1.4
					c-0.4,0.5-0.8,1-1.4,1.4c-3.6,2.3-2.6,5.9-2.5,9.2c0,1,1.1,1.8,2.4,1.8c2.1-0.1,4.2,0.1,6.3,0c3-0.1,5,1.4,6.7,3.6
					c0.2,0.2,0,0.7,0.1,0.9c1,1.4,3,2,2.8,4.2c-0.4,3.8,1.1,7.9-1.9,11.4c-0.4,0.5-0.3,1.4-1.4,1.3c-0.8-0.1-1.6-0.1-2.4,0
					c-1.7,0.2-2.7,1.4-3.1,3.1c-0.3,1.2-0.5,2.5-1.2,3.4c-1.3,1.7-0.7,2.9,0.6,4.1c1.8,1.5,3.7,2.9,5.4,4.5c1.4,1.3,1.4,2.4,0.3,3.6
					c-1.1,1.3-3.7,2.4-4.6,1.7c-0.4-0.3-0.6-1.1-0.5-1.7c0.3-2.4-0.6-3.9-2.9-4.6c-1-0.3-2.4-0.5-2.2-2.5c0.1-0.9-1.3-2.2-2.3-2.8
					c-1.2-0.6-2.4,0.1-3.3,1.3c-0.5,0.7-0.9,0.6-1.1-0.3c-0.1-0.6-0.7-1-0.9-1.6c-0.4-0.8,0.8-2.4-1.3-2.4c-1.5,0-2.8,0.1-3.6,1.7
					c-0.9,1.7-2.1,3.4-3.2,5c-0.9,1.3-0.3,3,1.2,3.1c2.1,0.1,4.2,0,6.3,0c0.4,0,0.9,0.2,1.3,0.3c-0.2,0.3-0.4,0.7-0.7,1
					c-1.5,2.1-1.6,4.1,0.2,6.3c1.2,1.5,2.7,2.8,4.1,4.2c2.2,2.2,2.9,5,3.3,7.9c0.4,3-1.4,5.3-3.2,7.4c-1.4,1.7-2.9,3-5.3,3.6
					c-4.2,1.1-7.1,4.2-8.5,8.4c-0.2,0.6-0.7,1.2-1,1.8c-0.1-0.6-0.2-1.2-0.4-1.8c-0.3-1.2-0.3-2.6-1.1-3.4c-1-1.1-2.4-2-3.8-2.3
					c-0.7-0.2-1.8,1.2-2.5,2c-0.6,0.7-0.9,1.6-1.4,2.3c-1.3,2-1.3,3.4,0.2,5c1.1,1.2,2.4,2.2,3.4,3.5c1.5,1.8,2.8,3.7,4.2,5.6
					c1.7,2.4,1.1,4.7-0.4,6.8c-0.8,1.2-2,2.2-3.1,3.1c-2.7,2.4-3.3,2.4-5.7-0.1c-2.1-2.2-4.6-3.9-5.9-6.8c-0.7-1.5-2.1-1.4-2.9,0.1
					c-0.7,1.3-1.8,2.5-1.4,4.3c0.2,1.1,0.1,2.3,0,3.4c0,0.3-0.2,0.5-0.4,0.8c-0.2-0.3-0.6-0.7-0.6-1c-0.1-1.8-0.2-3.6,0-5.4
					c0.3-2.3-0.5-4.3-1.1-6.4c-0.8-3-1.3-3.2-4.7-2.2c-0.8,0.2-1.2,0.4-1-0.4c0.5-2.4-1.1-3.5-2.4-4.9c-1.8-1.8-3.4-3.5-4.5-5.9
					c-1.5-3.3-7.2-5.2-10.2-3.7c-0.6,0.3-0.9,0.9-1.4,1.3c-3,2.7-5.4,6-9.5,7.7c-2.5,1-3.3,4.1-4.1,6.5c-0.7,2-1.5,3.9-0.4,6.6
					c1.2,2.7,0.8,6.4-2.6,8.5c-1.4,0.9-3.6,0.5-3.9-1.1c-0.7-4-2.8-7.3-4-11c-0.4-1.1-0.4-2.5-1.1-3.4c-2.2-3-3.3-6.3-2.8-10
					c0.1-1-0.2-1.7-0.8-2.6c-1.1-1.7-1.1-2-2.4-0.6c-1.4,1.6-2.3,1.1-3.5-0.2c-1.4-1.6-3.1-2.9-4.4-4.5c-3.2-3.7-7.3-5.1-12.1-4.9
					c-1.9,0.1-3.9-0.1-5.8,0c-2.3,0.1-4.3-0.6-5.9-2.3c-0.9-0.9-1.7-1.8-3.2-1.7c-4.8,0.4-8.6-2-12.1-4.9c-0.7-0.6-1.4-1.4-2.1-2
					c-0.3-0.3-0.7-0.4-1-0.6c-0.1,0.3-0.2,0.6-0.2,0.9c-0.8,3.6,1.6,6.5,2.5,9.7c0.4,1.6,0.7,3.4,2.4,4.3c1.1,0.6,2.2,1.4,3.3,1.3
					c1.3-0.1,2.5-0.9,3.7-1.6c0.5-0.3,0.9-0.9,1.4-1.4c0.9-0.9,1.8-1.8,2.8-2.8c0.5,1.1,1.1,2.1,1.3,3.3c0.4,1.7,1.6,2.6,2.9,3.5
					c0.9,0.6,1.8,1.3,2.6,1.9c0.8,0.6,0.7,1.3,0,2c-2.9,3.2-5.8,6.4-8.6,9.6c-1.8,2.1-4.2,3.1-6.7,3.9c-2.2,0.7-4.3,1.5-6,3
					c-2,1.7-4.1,2.1-6.5,1.9c-1.9-0.1-3.6-1.5-3.8-3.5c-0.4-3.9-2.1-7.5-4.7-10.2c-2.7-2.9-4.4-6.3-6.1-9.7
					c-1.9-3.9-4.1-7.5-7.2-10.7c-1.6-1.6-3.9,0-5.1-1.9c-0.1,0.4-0.5,1-0.4,1.3c0.5,1.1,1.4,2,1.9,3.1c2.2,5.6,5.2,10.8,7.1,16.6
					c0.9,2.7,3.3,4.8,5,7.2c2,2.7,4.2,5.4,6.2,8.2c0.7,0.9,0.9,2.2,1.2,3.4c0.9,2.8,2.4,4.1,4.9,3c2.4-1,4.6-0.7,7-0.8
					c1-0.1,1.9,0,2.9,0c2.9-0.1,3.1,0.1,2.3,2.9c-1.1,4.3-4,7.5-6.3,11c-1.4,2.2-3.3,4.2-5.1,6.2c-2.6,2.7-5,5.5-6.9,8.8
					c-1,1.8-3.4,2.5-3.8,4.8c-3.2,2.5-2.1,5.9-1.6,8.9c0.5,2.8,1.7,5.5,1.7,8.5c0,0.6,0.4,1.1,0.6,1.7c1.1,3.7-0.4,7.3-3.6,9.7
					c-2.4,1.8-4.6,4-6.7,6.2c-1.1,1.2-1.3,4.9-1.2,7c0.2,2,0.5,4.1-1.7,5.6c-2.2,1.5-3.4,3.9-4.5,6.4c-0.6,1.2-1.5,2.4-2.4,3.4
					c-1.9,2-4.2,3.7-5.8,5.9c-2.1,2.9-5.4,3.4-8.2,5.1c-0.6,0.4-1.5,0.2-2.3,0.3c-1.7,0.2-3.3-0.1-5,0.9c-1.7,1-4.1-0.7-4.1-2.9
					c0-4.7-2.2-8.3-5.3-11.5c-0.3-0.3-0.6-0.8-0.6-1.2c0.1-1.7-0.9-3.5-0.9-4.9c0.3-6.2-3.2-11-5.4-16.3c-0.4-0.9-1.5-2.4-1.3-2.6
					c1.8-1.7-0.3-4.4,1.9-6.2c1.4-1.2,1.9-3.7,2.7-5.6c0.2-0.4,0.2-1.1,0-1.4c-1.5-1.8-0.9-4-0.9-6c0-1.3-0.5-2.4-1-3.5
					c-0.7-1.8-1.8-3.4-2.2-5.5c-0.3-1.8-2.2-3.4-3.6-4.8c-2.1-1.9-2.7-3.9-1.6-6.3c1-2,0.7-4.2,0.4-6.1c-0.4-2.5-2.2-4.7-4.9-4.6
					c-2.2,0-3.3-1-4.4-2.3c-1.1-1.4-2.5-1.5-4.2-1.8c-4.4-0.7-8.2,1.6-12.3,2.3c-3.5,0.6-6.9,1.7-10.5,1.7c-2,0-3.6-0.6-5-2
					c-3.1-3.1-6.5-6-8.3-10.2c-0.2-0.6-0.3-1.3-0.7-1.6c-1.3-1.1-3.1-1.9-3.9-3.2c-0.8-1.2-0.6-3-0.8-4.5c-0.1-0.9-0.4-2.1,0-2.6
					c2-2.3,1.5-5,1.6-7.7c0-1.1,0-2.3,0-3.4c-0.2-5.3,2.2-9.5,5.3-13.4c1.8-2.3,4.1-4.2,6.2-6.2c1.6-1.7,4-3,3.2-6
					c1.3-0.9,1-2.8,2.7-3.6c1.8-0.8,3.3-2.5,4.7-4c0.7-0.8,0.7-2.6,2.2-0.5c0.3,0.4,1.4,0.8,1.6,0.7c2-1.9,4.3-0.7,6.5-0.9
					c1.9-0.1,3.7-0.3,5.4-1.1c0.7-0.3,1.4-0.8,2.1-0.8c4.2,0,8.3-1,12.4-2c0.7-0.2,1.5,0.1,2.3,0.2c-0.2,0.7-0.4,1.3-0.6,2
					c-0.6,2.4-0.1,4.4,1.3,5.6c1.5,1.3,2.6,3.1,5.2,2.9c2.5-0.1,4.7,1.3,6.5,2.9c1.9,1.6,4,1,5.9,0.6c1-0.2,1.9-2,2.3-3.3
					c0.5-1.8,0.9-1.5,2.2-0.7c4.2,2.5,8.8,3.6,13.7,3.3c2.9-0.1,5.9,0.1,8.8-0.1c0.8,0,1.9-0.5,2.4-1.2c1.9-3,3.6-6.1,3.3-9.9
					c-0.1-1.3-0.6-1.3-1.7-1.6c-3.7-1.2-7.5-0.9-11.3-0.9c-1.3,0-2.4-0.6-3.5-0.9c-1.8-0.6-2.1-1.7-2.1-3.2c0.1-1.5,0-2.9,0-4.4
					c0.1-1.7-1.1-1.2-2-1.2c-0.3,0-0.6,0.2-0.8,0.4c-1.3,1-2.6,1.4-4.3,0.7c-1.3-0.5-2.2,0.6-1.6,1.9c0.3,0.7,1,1.2,1.4,1.9
					c0.3,0.5,0.5,1.2,0.3,1.6c-0.3,0.8-0.9,1.5-1.4,2.3c-0.8-0.5-1.7-0.8-2.3-1.5c-1.2-1.4-2.4-2.9-3.4-4.4
					c-0.4-0.6-0.2-1.5-0.5-2.2c-0.8-1.9-0.7-4.4-3.7-4.6c-0.9-0.1-1.8-1.1-2.6-1.9c-2-2-4.3-3.5-7.1-4.2c-0.5-0.1-0.7-0.7-1.4-0.1
					c-0.8,0.8-0.3,1.1,0.1,1.8c1.5,2.9,3.6,5.1,6.5,6.5c1,0.5,1.8,1.1,2.7,1.7c0.8,0.6,0.7,0.9-0.1,2.4c-0.2,0.4-0.1,0.9-0.2,1.4
					c-0.1,0.4-0.3,0.8-0.5,1.2c-0.2-0.3-0.3-0.5-0.5-0.8c-2-2.9-3.9-5.6-7.7-6.5c-1.1-0.3-2.1-1.2-3-2c-1.6-1.5-2.9-2.5-4-3
					c-1.2-0.6-1.8-0.5-1.8,0.9c0,1.2-0.2,1.9-1.6,1.7c-0.5-0.1-1,0-1.5,0c-2.8-0.3-5,0.2-5.9,3.4c-0.2,0.6-1.2,1.4-1.8,1.4
					c-2.9-0.3-2.9,2.4-4,3.9c1,2.8-1.8,3.1-3,4.5c-0.2,0.2-0.5,0.3-0.8,0.5c-1.2,0.6-2.8,2.1-3.5,1.8c-2.4-1.2-5.2-0.8-7.6-1.8
					c-0.7-0.3-2.2-3.2-1.7-3.9c1.4-2.1,1-4.3,0.8-6.4c-0.2-1.8,0.9-2.6,1.9-3.6c0.6-0.7,1.2-0.8,2-0.2c1.1,0.7,2.5,1.5,3.7,1.5
					c1.2,0,2.1,1.3,3.2,0.5c1.3-0.9,2.8-1.6,3.7-2.8c1-1.3-0.7-4.9-2.7-6.3c-0.4-0.3-0.7-0.8-1.1-1.1c0.5-0.3,0.9-0.6,1.4-0.8
					c0.4-0.1,1,0,1.5,0c0.3,0,0.6-0.2,0.8-0.3c-0.3-0.2-0.6-0.5-0.9-0.6c-0.3-0.2-0.6-0.2-0.8-0.4c-0.4-0.3-0.7-0.7-1-1
					c0.4-0.2,0.8-0.4,1.2-0.5c1.3-0.3,2.7,0,4.1-0.7c1.4-0.7,2.9-1,4-2.2c0.9-1,1.8-2.3,3.6-2c0.4,0.1,1.3-0.6,1.4-1.1
					c0.6-2.2,1.9-3.2,4.2-2.7c0.2,0,0.4,0.1,0.5,0c0.9-0.9,1.7-2.2,2.8-2.6c0.9-0.3,2,1.2,3.3,0.4c2.4-1.5,4.4-1.3,6.4,0.8
					c0.3,0.3,1.3,0.3,1.6,0c1.9-1.9,4.4-1.5,6.7-1.6c2.4-0.1,3.2-0.5,3.1-3c-0.1-2.2,1.1-1.9,2.4-1.9c2.5-0.1,2.5-0.1,2.6-2.6
					c0.1-2.2,0.1-2.3,2.4-2.3c1.4,0,2.6-0.1,3.3-1.4c0.7-1.1-0.1-2.5-1.4-2.5c-1.8,0-3.6,0-5.4,0c-2.5-0.1-3.1-1.2-1.8-3.5
					c0.4-0.7,0.8-1.3,1.1-2c0.3-0.6,0.9-1.7,0.6-1.9c-0.6-0.6-1.6-1.4-2.3-1.3c-1.7,0.4-3.5,1.1-4.9,2.1c-1.4,1-2.6,2.2-2.4,4.4
					c0.1,1.3-0.7,2.4,0,4.1c1,2.6-3.1,8.1-6,8.4c-0.6,0.1-2.2-0.1-2.7-1.6c-1.3-4-5.6-4.5-8.5-6.7c-0.3-0.2-1.2,0.4-1.9,0.7
					c-0.1-1.1-0.1-2.2-0.3-3.3c-0.2-1.6,1.2-1,1.8-1.4c1.5-0.9,3.1-1.2,4.2-3.1c2.1-3.7,6-5.9,9.4-8.5c1.1-0.9,2.1-2.1,3.3-2.6
					c2.4-1,4.4-2.9,7.4-2.3C310.2,23.7,311.6,23.5,312.9,23.5 M143.5,298.2c-0.6-0.4-1.1-0.9-1.7-1.2c-3.7-1.5-5.9-4.5-7.8-7.8
					c-0.2-0.4-0.1-1.1-0.4-1.3c-2.8-1.9-2.1-4.3-0.8-6.6c0.4-0.8,1.2-1.4,0-2.2c-0.5-0.3-1-1.1-0.9-1.5c0.4-2.8-1.8-4.2-3-6.1
					c-1.2-1.9-2.1-3.7-2-6c0.1-2.3,0.5-4.6-0.1-6.8c-1.1-4.7-0.1-9.6-1.1-14.2c-1.1-5.4-0.5-10.8-0.8-16.2c-0.1-0.9-0.3-2.2,0.2-2.8
					c0.9-1,1.2-2.3,0.5-3c-1.3-1.2-1.5-3.5-3.7-3.8c-3.2-0.4-4.8-3.2-7.4-4.6c-1.5-0.8-2.5-2.3-4-3.2c-1.4-0.8-2.3-2.5-3.1-4
					c-1.2-2.2-2.1-4.6-3.1-7c-1.4-3.1-3.7-5.6-5.5-8.4c-1.5-2.3-1.6-2.5,0.2-4.4c1-1.1,1.9-1.7,0.3-3.2c-1.2-1.1-0.8-3,0.3-4.2
					c3.2-3.7,5.2-8.2,7.5-12.5c0.4-0.7,0.3-1.8,0-2.6c-1-2.5-0.9-4.5,1.2-6.4c0.9-0.8,2.1-1.4,2.2-3c0-0.6,1.4-1.4,2.2-1.4
					c1.2-0.1,1.4-0.6,1.8-1.6c0.4-1.2,0.9-0.9,2,0.2c1.3,1.2,2,2.4,1.7,4.2c0,0.3,0.4,0.9,0.7,0.9c0.4,0.1,1-0.2,1.2-0.5
					c1-1.7,0.7-4,2.5-5.3c1.6,0.9,3,2.3,4.7,2.6c2.3,0.5,4.8,0.2,7.2,0.3c1,0,1.8-0.2,2.4,1.4c0.6,1.5,2.7,3.1,4.3,3.3
					c3,0.4,4.7,2.2,6.7,4c1.2,1.2,2.1,2.8,4.1,3.1c0.6,0.1,1.1,0.8,1.6,0.7c3.7-0.4,5.2,1.9,6.9,4.6c1.7,2.7,1.7,4.6-0.5,6.8
					c-0.3,0.3-0.6,0.7-0.8,1.1c-0.1,0.2,0.1,0.6,0.2,0.9c0,0.1,0.4,0,0.7-0.1c4.4-1,8.6-0.4,12.5,2.7c1.6,1.3,3.1,1.9,4.7,1.5
					c3.5-0.8,6.5,1,9.3,2.2c2.4,1.1,4.6,3,6.9,4.5c1.5,1,1.1,2.7,0.1,4.2c-1,1.5-1.5,3.5-2.8,4.6c-3.4,3-3.6,7.1-4.2,10.9
					c-0.8,6-1.7,11.8-4.1,17.3c-0.2,0.4-0.8,0.6-1.2,1c-2.1,2.1-5.2,1.6-7.6,2.9c-0.7,0.3-1.4,0.4-2.1,0.7c-3.1,1.5-3.2,1.5-2.3,5
					c0.2,0.7,0,0.9-0.2,1.4c-1.4,3.5-3.2,6.7-4.3,10.4c-0.7,2.4-2.8,4.5-4.8,6.2c-1.4,1.2-3.5,1.2-5.2-0.2c-0.6-0.5-1.6-0.8-2.3-0.8
					c-0.6,0,0,2.3,1,3.2c0.2,0.2,0.5,0.5,0.7,0.7c1,1,3.6,0.8,2.9,3c-0.4,1.2-2,2.1-3,3.1c-1.1,1.1-2.1,2-3.7,0.8
					c-0.2-0.2-1,0.1-1.3,0.4c-0.3,0.2-0.5,0.8-0.6,1.2c-0.2,1.2,0.1,2.8-0.6,3.6c-0.4,0.6-2.1,0.1-3.3,0.1c-1.3,0-1.1,1-1,1.7
					c0.1,0.6,0.4,1.2,0.8,1.6c1.5,1.5,1.5,2.9,0.5,4.7c-0.6,1-1.1,2.2-1.3,3.3c-0.2,1.2-0.5,2.8,1.8,2.4c0.3,0,1,0.7,1,1.1
					c0.1,2,0.4,4.1-0.9,5.9c-1,1.3-1.8,2.7-0.1,4.1c0.1,0.1-0.6,1-0.9,1.5H143.5z"/>
			</g>
		</g>
		<path clip-path="url(#SVGID_4_)" fill="#393939" d="M296.2,74.4c1.9,0,3.5-1.6,3.5-3.5c0-1.9-1.6-3.5-3.5-3.5
			c-1.9,0-3.5,1.6-3.5,3.5C292.7,72.8,294.2,74.4,296.2,74.4"/>
		<circle clip-path="url(#SVGID_4_)" fill="none" stroke="#FFFFFF" stroke-width="2" cx="296.2" cy="70.9" r="3.5"/>
		<path clip-path="url(#SVGID_4_)" fill="#393939" d="M291.7,66.4c1.9,0,3.5-1.6,3.5-3.5c0-1.9-1.6-3.5-3.5-3.5
			c-1.9,0-3.5,1.6-3.5,3.5C288.2,64.8,289.7,66.4,291.7,66.4"/>
		<circle clip-path="url(#SVGID_4_)" fill="none" stroke="#FFFFFF" stroke-width="2" cx="291.7" cy="62.9" r="3.5"/>
		<path clip-path="url(#SVGID_4_)" fill="#393939" d="M379.2,125.4c1.9,0,3.5-1.6,3.5-3.5c0-1.9-1.6-3.5-3.5-3.5
			c-1.9,0-3.5,1.6-3.5,3.5C375.7,123.8,377.2,125.4,379.2,125.4"/>
		<circle clip-path="url(#SVGID_4_)" fill="none" stroke="#FFFFFF" stroke-width="2" cx="379.2" cy="121.9" r="3.5"/>
	</g>
</g>
</svg>
