<?xml version="1.0" encoding="UTF-8"?>
<svg width="38px" height="38px" viewBox="0 0 38 38" version="1.1" xmlns="http://www.w3.org/2000/svg" xmlns:xlink="http://www.w3.org/1999/xlink">
    <!-- Generator: Sketch 44.1 (41455) - http://www.bohemiancoding.com/sketch -->
    <title>slack</title>
    <desc>Created with Sketch.</desc>
    <defs></defs>
    <g id="Symbols" stroke="none" stroke-width="1" fill="none" fill-rule="evenodd" opacity="0.7">
        <g id="footer" transform="translate(-315.000000, -35.000000)" fill="#FFFFFF">
            <g id="Group-13">
                <g transform="translate(103.000000, 35.000000)">
                    <path d="M235.215306,10.715512 C235.001284,10.0938155 234.821616,9.57031367 234.641035,9.0469638 C234.517456,8.68884231 234.419869,8.3185605 234.263153,7.97548741 C233.845446,7.06103118 232.785218,6.61991549 231.843857,6.94353207 C230.872855,7.27733291 230.299344,8.31977653 230.586632,9.31540291 C230.841998,10.2005224 231.153151,11.0693774 231.453358,11.9876337 C229.718232,12.564641 228.077197,13.1103355 226.401201,13.6675822 C226.088072,12.751606 225.833466,11.9326083 225.528545,11.1326111 C225.111294,10.0383341 224.046506,9.53474472 223.023671,9.90989066 C221.963291,10.298717 221.477182,11.3005755 221.823447,12.4216052 C222.075926,13.2387789 222.352269,14.0485043 222.638949,14.9264796 C221.836216,15.2009989 221.074371,15.4556056 220.316631,15.7219167 C219.156689,16.1295915 218.596706,17.1512105 218.942819,18.2128067 C219.304285,19.32198 220.361169,19.8251134 221.567929,19.4499674 C222.333117,19.2120811 223.092681,18.9559543 223.909855,18.6900993 C224.461933,20.3429911 224.992731,21.9329532 225.534474,23.5549882 C224.675499,23.848356 223.909095,24.0996186 223.15029,24.3717058 C222.040205,24.7696524 221.498615,25.7854953 221.826031,26.8250508 C222.16728,27.9083835 223.224924,28.4487579 224.364347,28.1018847 C225.159328,27.8598943 225.945645,27.5900871 226.725729,27.3360884 C226.777259,27.3943059 226.824836,27.4254667 226.83958,27.4678759 C227.088715,28.1836628 227.333289,28.9009698 227.579536,29.6178208 C228.014571,30.8841664 229.02859,31.4648218 230.147492,31.0887638 C231.248913,30.718482 231.713133,29.6275491 231.305307,28.3531473 C231.062252,27.5934312 230.809621,26.8369072 230.549847,26.0442062 C232.264452,25.471151 233.907463,24.9219604 235.597444,24.3572655 C235.893852,25.2233844 236.148003,26.0142614 236.434682,26.793282 C236.860598,27.9506407 237.896809,28.492687 238.952173,28.1348695 C240.041282,27.7654998 240.525263,26.6879432 240.139173,25.4814872 C239.888062,24.6968425 239.630415,23.9144777 239.365928,23.1009522 C239.787891,22.9580684 240.145253,22.8376812 240.50231,22.715926 C240.885056,22.5852025 241.269627,22.4593432 241.649485,22.3207155 C242.853509,21.8811198 243.428996,20.830316 243.048986,19.774496 C242.651495,18.6694268 241.612244,18.2052065 240.394995,18.5932727 C239.653824,18.829639 238.914628,19.0723894 238.098519,19.3368764 C237.543704,17.6867207 237.009866,16.0990386 236.465539,14.4804998 C237.356739,14.1754277 238.179233,13.9273571 238.975278,13.6127088 C240.024562,13.1980418 240.507174,12.1425258 240.154373,11.1476595 C239.778315,10.0871274 238.75776,9.57988992 237.654211,9.92174698 C236.862422,10.1669295 236.077473,10.4340005 235.215306,10.715512 M250.000434,23.7202166 C250.091332,27.1564196 248.197818,30.5149486 244.48436,32.8877315 C241.30854,34.9168332 237.787214,36.1210091 234.160094,36.9681276 C231.90633,37.4945175 229.583557,37.9107046 227.278416,37.9914187 C222.853579,38.1463108 219.425736,36.2011153 217.073321,32.4189511 C214.892368,28.9126742 213.695336,25.0291233 212.751087,21.056346 C212.170128,18.6116652 211.825838,16.1409918 212.088349,13.6081487 C212.459087,10.0317979 214.241942,7.35318292 217.17106,5.37120241 C220.060201,3.41612661 223.315215,2.3139454 226.625559,1.35084789 C229.158858,0.613780356 231.735022,0.0661098456 234.3805,0.00454821446 C238.208265,-0.0843741416 241.489576,1.12390587 243.930305,4.21885988 C245.792962,6.58054645 246.943329,9.2959464 247.875722,12.1183572 C249.013624,15.5624644 249.967297,19.0456367 250.000434,23.7202166 Z M232.712073,15.7215366 C230.982116,16.3049281 229.339712,16.8586788 227.646235,17.4297579 C228.204698,19.0840177 228.740208,20.6706358 229.291831,22.3046791 C231.013884,21.7252397 232.653704,21.1736171 234.356909,20.6004099 C233.799966,18.9482781 233.270536,17.3782285 232.712073,15.7215366 Z" id="slack"></path>
                </g>
            </g>
        </g>
    </g>
</svg>