<?xml version="1.0" encoding="UTF-8" standalone="no"?>
<svg
   xmlns:dc="http://purl.org/dc/elements/1.1/"
   xmlns:cc="http://creativecommons.org/ns#"
   xmlns:rdf="http://www.w3.org/1999/02/22-rdf-syntax-ns#"
   xmlns:svg="http://www.w3.org/2000/svg"
   xmlns="http://www.w3.org/2000/svg"
   xmlns:sodipodi="http://sodipodi.sourceforge.net/DTD/sodipodi-0.dtd"
   xmlns:inkscape="http://www.inkscape.org/namespaces/inkscape"
   width="27"
   height="21"
   viewBox="0 0 27 21"
   version="1.1"
   id="svg3723"
   sodipodi:docname="snc.svg"
   inkscape:version="0.92.2 (5c3e80d, 2017-08-06)">
  <metadata
     id="metadata3727">
    <rdf:RDF>
      <cc:Work
         rdf:about="">
        <dc:format>image/svg+xml</dc:format>
        <dc:type
           rdf:resource="http://purl.org/dc/dcmitype/StillImage" />
        <dc:title>N symbol</dc:title>
      </cc:Work>
    </rdf:RDF>
  </metadata>
  <sodipodi:namedview
     pagecolor="#ffffff"
     bordercolor="#666666"
     borderopacity="1"
     objecttolerance="10"
     gridtolerance="10"
     guidetolerance="10"
     inkscape:pageopacity="0"
     inkscape:pageshadow="2"
     inkscape:window-width="1920"
     inkscape:window-height="1017"
     id="namedview3725"
     showgrid="false"
     inkscape:snap-bbox="true"
     inkscape:snap-text-baseline="true"
     inkscape:zoom="15.2"
     inkscape:cx="15.976774"
     inkscape:cy="17.831211"
     inkscape:window-x="1912"
     inkscape:window-y="-8"
     inkscape:window-maximized="1"
     inkscape:current-layer="Snc-landing-1" />
  <!-- Generator: Sketch 46.2 (44496) - http://www.bohemiancoding.com/sketch -->
  <title
     id="title3714">N symbol</title>
  <desc
     id="desc3716">Created with Sketch.</desc>
  <defs
     id="defs3718" />
  <g
     id="Page-1"
     style="fill:none;fill-rule:evenodd;stroke:none;stroke-width:1"
     transform="translate(0,-44)">
    <g
       id="Snc-landing-1"
       transform="translate(-676,-180)"
       style="fill:#ffffff;fill-rule:nonzero">
      <path
         d="m 702.27243,227.53518 h -0.24048 c -0.44096,0 -0.80177,0.12361 -1.08235,0.41182 -0.28055,0.2884 -0.52115,0.86478 -0.80173,1.7296 -0.28056,0.86478 -0.64143,2.30611 -1.08239,4.28279 l 0.64142,-0.41179 h 2.92636 l -0.56122,2.30612 h -3.4074 c -0.44098,1.89431 -0.84183,3.41797 -1.20264,4.57106 -0.36075,1.15305 -0.88192,2.18255 -1.52331,2.965 -0.64139,0.78244 -1.44312,1.23542 -2.44529,1.23542 -1.00218,0 -1.92419,-0.4118 -2.60566,-1.27662 -0.68149,-0.86478 -1.08234,-1.85311 -1.48324,-3.08853 -0.40085,-1.19426 -0.80172,-2.75913 -1.24269,-4.73577 l -0.12018,-0.57655 c -0.56119,-2.38847 -0.96208,-4.03571 -1.20258,-4.98289 -0.24049,-0.94715 -0.48105,-1.60604 -0.64139,-1.89428 -0.16032,-0.2884 -0.36081,-0.453 -0.60131,-0.453 -0.2004,0 -0.36081,0.20583 -0.56123,0.57651 -0.20041,0.4118 -0.40088,1.11189 -0.68147,2.10024 -0.28056,0.98835 -0.64142,2.55319 -1.08236,4.57106 l -0.16032,0.70007 c -0.44092,1.93548 -0.8418,3.54155 -1.24267,4.73577 -0.3608,1.19426 -0.88191,2.22379 -1.56342,3.04737 -0.68147,0.86482 -1.4832,1.27662 -2.52548,1.27662 h -1.72373 l 0.6815,-2.80029 h 0.24047 c 0.44097,0 0.80174,-0.16484 1.08235,-0.453 0.28056,-0.28839 0.52113,-0.86479 0.80174,-1.72957 0.24048,-0.78245 0.6013,-2.10022 1.0022,-3.87099 0.0401,-0.12361 0.0802,-0.2884 0.0802,-0.41183 l -0.64139,0.41183 h -2.88627 l 0.56122,-2.30614 h 3.40741 c 0.44095,-1.89431 0.80173,-3.41801 1.20261,-4.61223 0.36078,-1.15306 0.88189,-2.18258 1.52328,-3.0062 0.64142,-0.82364 1.48324,-1.23542 2.44536,-1.23542 1.00215,0 1.92415,0.41178 2.60563,1.2766 0.6815,0.86479 1.08234,1.89433 1.48323,3.08858 0.40085,1.19421 0.80175,2.80026 1.2427,4.73577 l 0.12018,0.57652 c 0.52113,2.30611 0.92197,3.99454 1.2026,4.94169 0.24046,0.98833 0.48103,1.60604 0.64137,1.93551 0.16033,0.32944 0.36081,0.45297 0.60133,0.45297 0.20039,0 0.36078,-0.20583 0.56122,-0.57653 0.20039,-0.41179 0.40086,-1.11189 0.68151,-2.10022 0.28054,-0.98835 0.64139,-2.55319 1.08231,-4.57106 0.0802,-0.2881 0.12017,-0.49417 0.16032,-0.65888 0.44095,-1.93551 0.84185,-3.50036 1.20261,-4.73577 0.36081,-1.23545 0.88193,-2.22379 1.56339,-3.08858 0.68151,-0.86482 1.52332,-1.2766 2.52548,-1.2766 h 1.72377 z"
         id="N-symbol"
         style="fill:#000000;stroke-width:0.30993083"
         inkscape:connector-curvature="0" />
    </g>
  </g>
</svg>
